Ubuntu-CondensedExtraBoldItalic.ufo
<glyph name="exclam" format="2">
  <advance width="268"/>
  <unicode hex="0021"/>
  <outline>
    <contour>
      <point x="151" y="221" type="curve"/>
      <point x="219" y="221" type="line"/>
      <point x="261" y="298"/>
      <point x="307" y="433"/>
      <point x="327" y="515" type="curve" smooth="yes"/>
      <point x="370" y="693" type="line"/>
      <point x="226" y="693" type="line"/>
      <point x="183" y="515" type="line" smooth="yes"/>
      <point x="163" y="433"/>
      <point x="147" y="298"/>
    </contour>
    <contour>
      <point x="143" y="-13" type="curve"/>
      <point x="191" y="-13"/>
      <point x="240" y="32"/>
      <point x="240" y="91" type="curve"/>
      <point x="240" y="136"/>
      <point x="207" y="164"/>
      <point x="161" y="164" type="curve"/>
      <point x="113" y="164"/>
      <point x="64" y="117"/>
      <point x="64" y="58" type="curve"/>
      <point x="64" y="15"/>
      <point x="97" y="-13"/>
    </contour>
  </outline>
</glyph>
<glyph name="numbersign" format="2">
  <advance width="543"/>
  <unicode hex="0023"/>
  <outline>
    <contour>
      <point x="7" y="0" type="line"/>
      <point x="120" y="0" type="line"/>
      <point x="186" y="175" type="line"/>
      <point x="267" y="175" type="line"/>
      <point x="201" y="0" type="line"/>
      <point x="314" y="0" type="line"/>
      <point x="380" y="175" type="line"/>
      <point x="492" y="175" type="line"/>
      <point x="516" y="275" type="line"/>
      <point x="418" y="275" type="line"/>
      <point x="472" y="419" type="line"/>
      <point x="550" y="419" type="line"/>
      <point x="574" y="519" type="line"/>
      <point x="509" y="519" type="line"/>
      <point x="575" y="693" type="line"/>
      <point x="462" y="693" type="line"/>
      <point x="396" y="519" type="line"/>
      <point x="315" y="519" type="line"/>
      <point x="381" y="693" type="line"/>
      <point x="268" y="693" type="line"/>
      <point x="202" y="519" type="line"/>
      <point x="90" y="519" type="line"/>
      <point x="66" y="419" type="line"/>
      <point x="165" y="419" type="line"/>
      <point x="111" y="275" type="line"/>
      <point x="32" y="275" type="line"/>
      <point x="8" y="175" type="line"/>
      <point x="73" y="175" type="line"/>
    </contour>
    <contour>
      <point x="224" y="275" type="line"/>
      <point x="278" y="419" type="line"/>
      <point x="359" y="419" type="line"/>
      <point x="305" y="275" type="line"/>
    </contour>
  </outline>
</glyph>
<glyph name="dollar" format="2">
  <advance width="444"/>
  <unicode hex="0024"/>
  <outline>
    <contour>
      <point x="133" y="-109" type="line"/>
      <point x="254" y="-109" type="line"/>
      <point x="283" y="11" type="line"/>
      <point x="387" y="37"/>
      <point x="449" y="122"/>
      <point x="449" y="227" type="curve" smooth="yes"/>
      <point x="449" y="297"/>
      <point x="409" y="343"/>
      <point x="373" y="383" type="curve" smooth="yes"/>
      <point x="339" y="420"/>
      <point x="303" y="450"/>
      <point x="303" y="488" type="curve" smooth="yes"/>
      <point x="303" y="538"/>
      <point x="332" y="562"/>
      <point x="384" y="562" type="curve" smooth="yes"/>
      <point x="418" y="562"/>
      <point x="459" y="554"/>
      <point x="483" y="541" type="curve"/>
      <point x="525" y="644" type="line"/>
      <point x="500" y="658"/>
      <point x="474" y="666"/>
      <point x="442" y="670" type="curve"/>
      <point x="467" y="776" type="line"/>
      <point x="346" y="776" type="line"/>
      <point x="319" y="662" type="line"/>
      <point x="231" y="635"/>
      <point x="170" y="560"/>
      <point x="170" y="464" type="curve" smooth="yes"/>
      <point x="170" y="395"/>
      <point x="211" y="354"/>
      <point x="248" y="315" type="curve" smooth="yes"/>
      <point x="281" y="280"/>
      <point x="313" y="251"/>
      <point x="313" y="207" type="curve" smooth="yes"/>
      <point x="313" y="152"/>
      <point x="284" y="116"/>
      <point x="232" y="116" type="curve" smooth="yes"/>
      <point x="194" y="116"/>
      <point x="139" y="127"/>
      <point x="108" y="153" type="curve"/>
      <point x="64" y="43" type="line"/>
      <point x="89" y="28"/>
      <point x="123" y="14"/>
      <point x="161" y="8" type="curve"/>
    </contour>
  </outline>
</glyph>
<glyph name="percent" format="2">
  <advance width="695"/>
  <unicode hex="0025"/>
  <outline>
    <contour>
      <point x="154" y="0" type="line"/>
      <point x="272" y="0" type="line"/>
      <point x="706" y="693" type="line"/>
      <point x="589" y="693" type="line"/>
    </contour>
    <contour>
      <point x="241" y="324" type="curve" smooth="yes"/>
      <point x="362" y="324"/>
      <point x="427" y="473"/>
      <point x="427" y="596" type="curve" smooth="yes"/>
      <point x="427" y="666"/>
      <point x="384" y="709"/>
      <point x="314" y="709" type="curve" smooth="yes"/>
      <point x="194" y="709"/>
      <point x="130" y="562"/>
      <point x="130" y="437" type="curve" smooth="yes"/>
      <point x="130" y="366"/>
      <point x="171" y="324"/>
    </contour>
    <contour>
      <point x="250" y="412" type="curve"/>
      <point x="236" y="412"/>
      <point x="232" y="422"/>
      <point x="232" y="440" type="curve" smooth="yes"/>
      <point x="232" y="488"/>
      <point x="267" y="621"/>
      <point x="306" y="621" type="curve" smooth="yes"/>
      <point x="321" y="621"/>
      <point x="325" y="611"/>
      <point x="325" y="593" type="curve" smooth="yes"/>
      <point x="325" y="545"/>
      <point x="291" y="412"/>
    </contour>
    <contour>
      <point x="546" y="-16" type="curve" smooth="yes"/>
      <point x="667" y="-16"/>
      <point x="732" y="133"/>
      <point x="732" y="256" type="curve" smooth="yes"/>
      <point x="732" y="326"/>
      <point x="689" y="369"/>
      <point x="619" y="369" type="curve" smooth="yes"/>
      <point x="499" y="369"/>
      <point x="435" y="222"/>
      <point x="435" y="97" type="curve" smooth="yes"/>
      <point x="435" y="26"/>
      <point x="476" y="-16"/>
    </contour>
    <contour>
      <point x="555" y="72" type="curve"/>
      <point x="541" y="72"/>
      <point x="537" y="82"/>
      <point x="537" y="100" type="curve" smooth="yes"/>
      <point x="537" y="148"/>
      <point x="572" y="281"/>
      <point x="611" y="281" type="curve" smooth="yes"/>
      <point x="626" y="281"/>
      <point x="630" y="271"/>
      <point x="630" y="253" type="curve" smooth="yes"/>
      <point x="630" y="205"/>
      <point x="596" y="72"/>
    </contour>
  </outline>
</glyph>
<glyph name="ampersand" format="2">
  <advance width="530"/>
  <unicode hex="0026"/>
  <outline>
    <contour>
      <point x="230" y="-14" type="curve"/>
      <point x="282" y="-14"/>
      <point x="341" y="11"/>
      <point x="388" y="55" type="curve"/>
      <point x="397" y="37"/>
      <point x="404" y="19"/>
      <point x="409" y="0" type="curve"/>
      <point x="539" y="0" type="line"/>
      <point x="527" y="58"/>
      <point x="510" y="107"/>
      <point x="489" y="146" type="curve"/>
      <point x="535" y="208"/>
      <point x="571" y="280"/>
      <point x="586" y="361" type="curve"/>
      <point x="474" y="377" type="line"/>
      <point x="466" y="329"/>
      <point x="450" y="287"/>
      <point x="431" y="250" type="curve"/>
      <point x="380" y="354" type="line"/>
      <point x="401" y="367" type="line" smooth="yes"/>
      <point x="502" y="429"/>
      <point x="532" y="510"/>
      <point x="532" y="575" type="curve" smooth="yes"/>
      <point x="532" y="656"/>
      <point x="483" y="707"/>
      <point x="390" y="707" type="curve" smooth="yes"/>
      <point x="271" y="707"/>
      <point x="193" y="621"/>
      <point x="193" y="508" type="curve" smooth="yes"/>
      <point x="193" y="470"/>
      <point x="200" y="436"/>
      <point x="220" y="393" type="curve"/>
      <point x="208" y="386" type="line" smooth="yes"/>
      <point x="111" y="329"/>
      <point x="65" y="242"/>
      <point x="65" y="147" type="curve" smooth="yes"/>
      <point x="65" y="49"/>
      <point x="127" y="-14"/>
    </contour>
    <contour>
      <point x="259" y="99" type="curve"/>
      <point x="222" y="99"/>
      <point x="189" y="126"/>
      <point x="189" y="181" type="curve" smooth="yes"/>
      <point x="189" y="216"/>
      <point x="203" y="256"/>
      <point x="245" y="293" type="curve" smooth="yes"/>
      <point x="262" y="308" type="line"/>
      <point x="346" y="140" type="line"/>
      <point x="317" y="114"/>
      <point x="287" y="99"/>
    </contour>
    <contour>
      <point x="337" y="441" type="line"/>
      <point x="322" y="474"/>
      <point x="315" y="499"/>
      <point x="315" y="521" type="curve" smooth="yes"/>
      <point x="315" y="572"/>
      <point x="341" y="607"/>
      <point x="374" y="607" type="curve" smooth="yes"/>
      <point x="396" y="607"/>
      <point x="412" y="590"/>
      <point x="412" y="559" type="curve" smooth="yes"/>
      <point x="412" y="521"/>
      <point x="402" y="486"/>
      <point x="350" y="450" type="curve"/>
    </contour>
  </outline>
</glyph>
<glyph name="quotesingle" format="2">
  <advance width="244"/>
  <unicode hex="0027"/>
  <outline>
    <contour>
      <point x="197" y="471" type="curve"/>
      <point x="270" y="471" type="line"/>
      <point x="300" y="534"/>
      <point x="340" y="635"/>
      <point x="353" y="689" type="curve" smooth="yes"/>
      <point x="370" y="760" type="line"/>
      <point x="237" y="760" type="line"/>
      <point x="220" y="689" type="line" smooth="yes"/>
      <point x="207" y="635"/>
      <point x="197" y="534"/>
    </contour>
  </outline>
</glyph>
<glyph name="parenleft" format="2">
  <advance width="323"/>
  <unicode hex="0028"/>
  <outline>
    <contour>
      <point x="180" y="-187" type="curve"/>
      <point x="279" y="-135" type="line"/>
      <point x="250" y="-53"/>
      <point x="239" y="16"/>
      <point x="239" y="103" type="curve" smooth="yes"/>
      <point x="239" y="305"/>
      <point x="329" y="544"/>
      <point x="478" y="726" type="curve"/>
      <point x="392" y="785" type="line"/>
      <point x="238" y="632"/>
      <point x="108" y="340"/>
      <point x="108" y="112" type="curve" smooth="yes"/>
      <point x="108" y="-2"/>
      <point x="133" y="-102"/>
    </contour>
  </outline>
</glyph>
<glyph name="parenright" format="2">
  <advance width="323"/>
  <unicode hex="0029"/>
  <outline>
    <contour>
      <point x="75" y="-187" type="line"/>
      <point x="229" y="-34"/>
      <point x="359" y="258"/>
      <point x="359" y="486" type="curve" smooth="yes"/>
      <point x="359" y="600"/>
      <point x="334" y="700"/>
      <point x="287" y="785" type="curve"/>
      <point x="188" y="733" type="line"/>
      <point x="217" y="651"/>
      <point x="228" y="582"/>
      <point x="228" y="495" type="curve" smooth="yes"/>
      <point x="228" y="293"/>
      <point x="138" y="54"/>
      <point x="-11" y="-128" type="curve"/>
    </contour>
  </outline>
</glyph>
<glyph name="asterisk" format="2">
  <advance width="427"/>
  <unicode hex="002A"/>
  <outline>
    <contour>
      <point x="300" y="378" type="line"/>
      <point x="311" y="393"/>
      <point x="321" y="413"/>
      <point x="344" y="504" type="curve"/>
      <point x="367" y="414"/>
      <point x="377" y="394"/>
      <point x="387" y="379" type="curve"/>
      <point x="489" y="453" type="line"/>
      <point x="479" y="468"/>
      <point x="463" y="484"/>
      <point x="383" y="534" type="curve"/>
      <point x="476" y="528"/>
      <point x="498" y="531"/>
      <point x="515" y="537" type="curve"/>
      <point x="476" y="657" type="line"/>
      <point x="459" y="651"/>
      <point x="439" y="641"/>
      <point x="367" y="582" type="curve"/>
      <point x="401" y="667"/>
      <point x="405" y="688"/>
      <point x="405" y="707" type="curve"/>
      <point x="279" y="707" type="line"/>
      <point x="279" y="688"/>
      <point x="283" y="667"/>
      <point x="317" y="580" type="curve"/>
      <point x="246" y="639"/>
      <point x="227" y="649"/>
      <point x="209" y="655" type="curve"/>
      <point x="170" y="535" type="line"/>
      <point x="188" y="529"/>
      <point x="209" y="526"/>
      <point x="303" y="532" type="curve"/>
      <point x="224" y="483"/>
      <point x="209" y="467"/>
      <point x="198" y="452" type="curve"/>
    </contour>
  </outline>
</glyph>
<glyph name="plus" format="2">
  <advance width="444"/>
  <unicode hex="002B"/>
  <outline>
    <contour>
      <point x="194" y="121" type="line"/>
      <point x="308" y="121" type="line"/>
      <point x="338" y="246" type="line"/>
      <point x="456" y="246" type="line"/>
      <point x="482" y="356" type="line"/>
      <point x="364" y="356" type="line"/>
      <point x="394" y="481" type="line"/>
      <point x="280" y="481" type="line"/>
      <point x="250" y="356" type="line"/>
      <point x="132" y="356" type="line"/>
      <point x="106" y="246" type="line"/>
      <point x="224" y="246" type="line"/>
    </contour>
  </outline>
</glyph>
<glyph name="comma" format="2">
  <advance width="248"/>
  <unicode hex="002C"/>
  <outline>
    <contour>
      <point x="93" y="-157" type="line"/>
      <point x="168" y="-69"/>
      <point x="215" y="16"/>
      <point x="226" y="147" type="curve"/>
      <point x="93" y="147" type="line"/>
      <point x="83" y="54"/>
      <point x="54" y="-38"/>
      <point x="3" y="-131" type="curve"/>
    </contour>
  </outline>
</glyph>
<glyph name="hyphen" format="2">
  <advance width="271"/>
  <unicode hex="002D"/>
  <outline>
    <contour>
      <point x="69" y="234" type="line"/>
      <point x="312" y="234" type="line"/>
      <point x="345" y="361" type="line"/>
      <point x="102" y="361" type="line"/>
    </contour>
  </outline>
</glyph>
<glyph name="period" format="2">
  <advance width="248"/>
  <unicode hex="002E"/>
  <outline>
    <contour>
      <point x="132" y="-13" type="curve" smooth="yes"/>
      <point x="179" y="-13"/>
      <point x="226" y="31"/>
      <point x="226" y="88" type="curve" smooth="yes"/>
      <point x="226" y="131"/>
      <point x="194" y="158"/>
      <point x="150" y="158" type="curve" smooth="yes"/>
      <point x="103" y="158"/>
      <point x="56" y="113"/>
      <point x="56" y="56" type="curve" smooth="yes"/>
      <point x="56" y="14"/>
      <point x="88" y="-13"/>
    </contour>
  </outline>
</glyph>
<glyph name="zero" format="2">
  <advance width="420"/>
  <unicode hex="0030"/>
  <outline>
    <contour>
      <point x="171" y="-10" type="curve"/>
      <point x="335" y="-10"/>
      <point x="436" y="265"/>
      <point x="436" y="530" type="curve"/>
      <point x="436" y="648"/>
      <point x="394" y="708"/>
      <point x="292" y="708" type="curve"/>
      <point x="125" y="708"/>
      <point x="24" y="434"/>
      <point x="24" y="162" type="curve"/>
      <point x="24" y="49"/>
      <point x="67" y="-10"/>
    </contour>
    <contour>
      <point x="186" y="106" type="curve"/>
      <point x="160" y="106"/>
      <point x="154" y="123"/>
      <point x="154" y="163" type="curve"/>
      <point x="154" y="275"/>
      <point x="211" y="589"/>
      <point x="276" y="589" type="curve"/>
      <point x="301" y="589"/>
      <point x="306" y="572"/>
      <point x="306" y="535" type="curve"/>
      <point x="306" y="421"/>
      <point x="249" y="106"/>
    </contour>
  </outline>
</glyph>
<glyph name="one" format="2">
  <advance width="444"/>
  <unicode hex="0031"/>
  <outline>
    <contour>
      <point x="192" y="0" type="line"/>
      <point x="330" y="0" type="line"/>
      <point x="496" y="693" type="line"/>
      <point x="398" y="693" type="line"/>
      <point x="343" y="636"/>
      <point x="264" y="589"/>
      <point x="190" y="556" type="curve"/>
      <point x="232" y="456" type="line"/>
      <point x="249" y="461"/>
      <point x="281" y="473"/>
      <point x="310" y="492" type="curve"/>
    </contour>
  </outline>
</glyph>
<glyph name="two" format="2">
  <advance width="444"/>
  <unicode hex="0032"/>
  <outline>
    <contour>
      <point x="64" y="0" type="curve"/>
      <point x="416" y="0" type="line"/>
      <point x="443" y="114" type="line"/>
      <point x="236" y="114" type="line"/>
      <point x="261" y="170"/>
      <point x="298" y="220"/>
      <point x="360" y="287" type="curve" smooth="yes"/>
      <point x="458" y="392"/>
      <point x="517" y="461"/>
      <point x="517" y="555" type="curve" smooth="yes"/>
      <point x="517" y="647"/>
      <point x="463" y="707"/>
      <point x="370" y="707" type="curve" smooth="yes"/>
      <point x="299" y="707"/>
      <point x="234" y="686"/>
      <point x="180" y="645" type="curve"/>
      <point x="223" y="552" type="line"/>
      <point x="256" y="576"/>
      <point x="286" y="589"/>
      <point x="321" y="589" type="curve" smooth="yes"/>
      <point x="351" y="589"/>
      <point x="375" y="574"/>
      <point x="375" y="532" type="curve" smooth="yes"/>
      <point x="375" y="465"/>
      <point x="327" y="416"/>
      <point x="232" y="317" type="curve" smooth="yes"/>
      <point x="154" y="235"/>
      <point x="86" y="130"/>
    </contour>
  </outline>
</glyph>
<glyph name="three" format="2">
  <advance width="434"/>
  <unicode hex="0033"/>
  <outline>
    <contour>
      <point x="185" y="-14" type="curve"/>
      <point x="336" y="-14"/>
      <point x="440" y="89"/>
      <point x="440" y="235" type="curve" smooth="yes"/>
      <point x="440" y="290"/>
      <point x="422" y="333"/>
      <point x="372" y="366" type="curve"/>
      <point x="467" y="412"/>
      <point x="505" y="483"/>
      <point x="505" y="565" type="curve" smooth="yes"/>
      <point x="505" y="654"/>
      <point x="448" y="707"/>
      <point x="356" y="707" type="curve" smooth="yes"/>
      <point x="291" y="707"/>
      <point x="233" y="691"/>
      <point x="190" y="661" type="curve"/>
      <point x="220" y="564" type="line"/>
      <point x="255" y="582"/>
      <point x="279" y="589"/>
      <point x="307" y="589" type="curve" smooth="yes"/>
      <point x="346" y="589"/>
      <point x="364" y="567"/>
      <point x="364" y="530" type="curve" smooth="yes"/>
      <point x="364" y="468"/>
      <point x="317" y="420"/>
      <point x="249" y="420" type="curve" smooth="yes"/>
      <point x="205" y="420" type="line"/>
      <point x="178" y="307" type="line"/>
      <point x="224" y="307" type="line" smooth="yes"/>
      <point x="269" y="307"/>
      <point x="300" y="282"/>
      <point x="300" y="231" type="curve" smooth="yes"/>
      <point x="300" y="159"/>
      <point x="261" y="105"/>
      <point x="192" y="105" type="curve"/>
      <point x="156" y="105"/>
      <point x="122" y="116"/>
      <point x="99" y="132" type="curve"/>
      <point x="44" y="20" type="line"/>
      <point x="76" y="-1"/>
      <point x="123" y="-14"/>
    </contour>
  </outline>
</glyph>
<glyph name="four" format="2">
  <advance width="444"/>
  <unicode hex="0034"/>
  <outline>
    <contour>
      <point x="238" y="0" type="line"/>
      <point x="372" y="0" type="line"/>
      <point x="406" y="143" type="line"/>
      <point x="468" y="143" type="line"/>
      <point x="494" y="249" type="line"/>
      <point x="432" y="249" type="line"/>
      <point x="538" y="693" type="line"/>
      <point x="395" y="693" type="line"/>
      <point x="304" y="593"/>
      <point x="167" y="387"/>
      <point x="87" y="239" type="curve"/>
      <point x="64" y="143" type="line"/>
      <point x="272" y="143" type="line"/>
    </contour>
    <contour>
      <point x="205" y="249" type="line"/>
      <point x="251" y="339"/>
      <point x="297" y="419"/>
      <point x="361" y="507" type="curve"/>
      <point x="298" y="249" type="line"/>
    </contour>
  </outline>
</glyph>
<glyph name="five" format="2">
  <advance width="420"/>
  <unicode hex="0035"/>
  <outline>
    <contour>
      <point x="119" y="-14" type="curve" smooth="yes"/>
      <point x="261" y="-14"/>
      <point x="369" y="117"/>
      <point x="369" y="254" type="curve" smooth="yes"/>
      <point x="369" y="339"/>
      <point x="325" y="404"/>
      <point x="222" y="433" type="curve"/>
      <point x="240" y="484"/>
      <point x="252" y="527"/>
      <point x="265" y="579" type="curve"/>
      <point x="428" y="579" type="line"/>
      <point x="455" y="693" type="line"/>
      <point x="173" y="693" type="line"/>
      <point x="155" y="605"/>
      <point x="106" y="434"/>
      <point x="72" y="335" type="curve"/>
      <point x="187" y="329"/>
      <point x="228" y="292"/>
      <point x="228" y="233" type="curve" smooth="yes"/>
      <point x="228" y="161"/>
      <point x="184" y="105"/>
      <point x="124" y="105" type="curve" smooth="yes"/>
      <point x="83" y="105"/>
      <point x="50" y="113"/>
      <point x="25" y="131" type="curve"/>
      <point x="-27" y="19" type="line"/>
      <point x="7" y="-2"/>
      <point x="57" y="-14"/>
    </contour>
  </outline>
</glyph>
<glyph name="six" format="2">
  <advance width="444"/>
  <unicode hex="0036"/>
  <outline>
    <contour>
      <point x="247" y="-14" type="curve" smooth="yes"/>
      <point x="388" y="-14"/>
      <point x="473" y="150"/>
      <point x="473" y="293" type="curve" smooth="yes"/>
      <point x="473" y="382"/>
      <point x="426" y="435"/>
      <point x="365" y="435" type="curve" smooth="yes"/>
      <point x="343" y="435"/>
      <point x="318" y="432"/>
      <point x="297" y="421" type="curve"/>
      <point x="342" y="512"/>
      <point x="414" y="583"/>
      <point x="522" y="587" type="curve"/>
      <point x="536" y="698" type="line"/>
      <point x="290" y="698"/>
      <point x="103" y="448"/>
      <point x="103" y="175" type="curve" smooth="yes"/>
      <point x="103" y="47"/>
      <point x="162" y="-14"/>
    </contour>
    <contour>
      <point x="265" y="105" type="curve" smooth="yes"/>
      <point x="244" y="105"/>
      <point x="235" y="118"/>
      <point x="235" y="152" type="curve" smooth="yes"/>
      <point x="235" y="197"/>
      <point x="241" y="252"/>
      <point x="255" y="306" type="curve"/>
      <point x="267" y="317"/>
      <point x="282" y="324"/>
      <point x="297" y="324" type="curve" smooth="yes"/>
      <point x="317" y="324"/>
      <point x="333" y="310"/>
      <point x="333" y="272" type="curve" smooth="yes"/>
      <point x="333" y="196"/>
      <point x="306" y="105"/>
    </contour>
  </outline>
</glyph>
<glyph name="seven" format="2">
  <advance width="444"/>
  <unicode hex="0037"/>
  <outline>
    <contour>
      <point x="100" y="0" type="curve"/>
      <point x="240" y="0" type="line"/>
      <point x="299" y="197"/>
      <point x="412" y="431"/>
      <point x="546" y="597" type="curve"/>
      <point x="569" y="693" type="line"/>
      <point x="216" y="693" type="line"/>
      <point x="185" y="574" type="line"/>
      <point x="399" y="574" type="line"/>
      <point x="275" y="416"/>
      <point x="146" y="165"/>
    </contour>
  </outline>
</glyph>
<glyph name="eight" format="2">
  <advance width="444"/>
  <unicode hex="0038"/>
  <outline>
    <contour>
      <point x="226" y="-15" type="curve" smooth="yes"/>
      <point x="377" y="-15"/>
      <point x="456" y="97"/>
      <point x="456" y="225" type="curve" smooth="yes"/>
      <point x="456" y="272"/>
      <point x="440" y="309"/>
      <point x="399" y="355" type="curve"/>
      <point x="496" y="425"/>
      <point x="524" y="510"/>
      <point x="524" y="576" type="curve" smooth="yes"/>
      <point x="524" y="655"/>
      <point x="468" y="707"/>
      <point x="378" y="707" type="curve" smooth="yes"/>
      <point x="263" y="707"/>
      <point x="169" y="611"/>
      <point x="169" y="482" type="curve" smooth="yes"/>
      <point x="169" y="443"/>
      <point x="180" y="407"/>
      <point x="211" y="366" type="curve"/>
      <point x="126" y="310"/>
      <point x="76" y="224"/>
      <point x="76" y="132" type="curve" smooth="yes"/>
      <point x="76" y="51"/>
      <point x="126" y="-15"/>
    </contour>
    <contour>
      <point x="256" y="92" type="curve" smooth="yes"/>
      <point x="229" y="92"/>
      <point x="216" y="112"/>
      <point x="216" y="144" type="curve" smooth="yes"/>
      <point x="216" y="189"/>
      <point x="226" y="242"/>
      <point x="271" y="303" type="curve"/>
      <point x="306" y="263"/>
      <point x="314" y="230"/>
      <point x="314" y="195" type="curve" smooth="yes"/>
      <point x="314" y="128"/>
      <point x="286" y="92"/>
    </contour>
    <contour>
      <point x="340" y="417" type="curve"/>
      <point x="311" y="454"/>
      <point x="303" y="482"/>
      <point x="303" y="511" type="curve" smooth="yes"/>
      <point x="303" y="559"/>
      <point x="321" y="600"/>
      <point x="358" y="600" type="curve" smooth="yes"/>
      <point x="380" y="600"/>
      <point x="392" y="584"/>
      <point x="392" y="554" type="curve" smooth="yes"/>
      <point x="392" y="508"/>
      <point x="372" y="456"/>
    </contour>
  </outline>
</glyph>
<glyph name="nine" format="2">
  <advance width="444"/>
  <unicode hex="0039"/>
  <outline>
    <contour>
      <point x="73" y="-7" type="curve" smooth="yes"/>
      <point x="332" y="-7"/>
      <point x="509" y="247"/>
      <point x="509" y="516" type="curve" smooth="yes"/>
      <point x="509" y="644"/>
      <point x="450" y="705"/>
      <point x="365" y="705" type="curve" smooth="yes"/>
      <point x="225" y="705"/>
      <point x="140" y="539"/>
      <point x="140" y="394" type="curve" smooth="yes"/>
      <point x="140" y="305"/>
      <point x="187" y="252"/>
      <point x="248" y="252" type="curve" smooth="yes"/>
      <point x="269" y="252"/>
      <point x="292" y="255"/>
      <point x="312" y="264" type="curve"/>
      <point x="265" y="176"/>
      <point x="190" y="107"/>
      <point x="79" y="104" type="curve"/>
      <point x="61" y="-7" type="line"/>
      <point x="65" y="-7"/>
      <point x="69" y="-7"/>
    </contour>
    <contour>
      <point x="316" y="364" type="curve" smooth="yes"/>
      <point x="296" y="364"/>
      <point x="280" y="378"/>
      <point x="280" y="416" type="curve" smooth="yes"/>
      <point x="280" y="494"/>
      <point x="307" y="586"/>
      <point x="347" y="586" type="curve" smooth="yes"/>
      <point x="368" y="586"/>
      <point x="377" y="573"/>
      <point x="377" y="539" type="curve" smooth="yes"/>
      <point x="377" y="492"/>
      <point x="370" y="437"/>
      <point x="355" y="381" type="curve"/>
      <point x="342" y="369"/>
      <point x="329" y="364"/>
    </contour>
  </outline>
</glyph>
<glyph name="less" format="2">
  <advance width="444"/>
  <unicode hex="003C"/>
  <outline>
    <contour>
      <point x="379" y="66" type="line"/>
      <point x="438" y="167" type="line"/>
      <point x="254" y="294" type="line"/>
      <point x="500" y="421" type="line"/>
      <point x="490" y="532" type="line"/>
      <point x="135" y="350" type="line"/>
      <point x="111" y="248" type="line"/>
    </contour>
  </outline>
</glyph>
<glyph name="equal" format="2">
  <advance width="444"/>
  <unicode hex="003D"/>
  <outline>
    <contour>
      <point x="131" y="347" type="line"/>
      <point x="481" y="347" type="line"/>
      <point x="507" y="457" type="line"/>
      <point x="157" y="457" type="line"/>
    </contour>
    <contour>
      <point x="82" y="141" type="line"/>
      <point x="432" y="141" type="line"/>
      <point x="458" y="251" type="line"/>
      <point x="108" y="251" type="line"/>
    </contour>
  </outline>
</glyph>
<glyph name="greater" format="2">
  <advance width="444"/>
  <unicode hex="003E"/>
  <outline>
    <contour>
      <point x="97" y="66" type="line"/>
      <point x="452" y="248" type="line"/>
      <point x="476" y="350" type="line"/>
      <point x="208" y="532" type="line"/>
      <point x="149" y="431" type="line"/>
      <point x="333" y="304" type="line"/>
      <point x="87" y="177" type="line"/>
    </contour>
  </outline>
</glyph>
<glyph name="question" format="2">
  <advance width="377"/>
  <unicode hex="003F"/>
  <outline>
    <contour>
      <point x="159" y="221" type="curve"/>
      <point x="284" y="221" type="line"/>
      <point x="284" y="289"/>
      <point x="328" y="331"/>
      <point x="375" y="376" type="curve" smooth="yes"/>
      <point x="425" y="425"/>
      <point x="478" y="478"/>
      <point x="478" y="567" type="curve" smooth="yes"/>
      <point x="478" y="644"/>
      <point x="426" y="707"/>
      <point x="332" y="707" type="curve" smooth="yes"/>
      <point x="269" y="707"/>
      <point x="217" y="695"/>
      <point x="173" y="666" type="curve"/>
      <point x="200" y="563" type="line"/>
      <point x="234" y="581"/>
      <point x="259" y="589"/>
      <point x="283" y="589" type="curve" smooth="yes"/>
      <point x="316" y="589"/>
      <point x="335" y="572"/>
      <point x="335" y="540" type="curve" smooth="yes"/>
      <point x="335" y="489"/>
      <point x="294" y="454"/>
      <point x="253" y="411" type="curve" smooth="yes"/>
      <point x="208" y="365"/>
      <point x="159" y="306"/>
    </contour>
    <contour>
      <point x="180" y="-13" type="curve"/>
      <point x="228" y="-13"/>
      <point x="277" y="32"/>
      <point x="277" y="91" type="curve"/>
      <point x="277" y="136"/>
      <point x="244" y="164"/>
      <point x="198" y="164" type="curve"/>
      <point x="150" y="164"/>
      <point x="101" y="117"/>
      <point x="101" y="58" type="curve"/>
      <point x="101" y="15"/>
      <point x="134" y="-13"/>
    </contour>
  </outline>
</glyph>
<glyph name="at" format="2">
  <advance width="836"/>
  <unicode hex="0040"/>
  <outline>
    <contour>
      <point x="396" y="-161" type="curve" smooth="yes"/>
      <point x="466" y="-161"/>
      <point x="540" y="-151"/>
      <point x="570" y="-134" type="curve"/>
      <point x="572" y="-41" type="line"/>
      <point x="538" y="-53"/>
      <point x="477" y="-64"/>
      <point x="416" y="-64" type="curve" smooth="yes"/>
      <point x="281" y="-64"/>
      <point x="213" y="12"/>
      <point x="213" y="152" type="curve" smooth="yes"/>
      <point x="213" y="425"/>
      <point x="385" y="618"/>
      <point x="555" y="618" type="curve" smooth="yes"/>
      <point x="698" y="618"/>
      <point x="760" y="545"/>
      <point x="760" y="429" type="curve" smooth="yes"/>
      <point x="760" y="230"/>
      <point x="676" y="128"/>
      <point x="646" y="128" type="curve" smooth="yes"/>
      <point x="628" y="128"/>
      <point x="620" y="137"/>
      <point x="620" y="161" type="curve" smooth="yes"/>
      <point x="620" y="178"/>
      <point x="624" y="202"/>
      <point x="632" y="234" type="curve" smooth="yes"/>
      <point x="692" y="486" type="line"/>
      <point x="660" y="503"/>
      <point x="598" y="513"/>
      <point x="560" y="513" type="curve" smooth="yes"/>
      <point x="408" y="513"/>
      <point x="292" y="359"/>
      <point x="292" y="173" type="curve" smooth="yes"/>
      <point x="292" y="94"/>
      <point x="337" y="31"/>
      <point x="415" y="31" type="curve" smooth="yes"/>
      <point x="458" y="31"/>
      <point x="492" y="51"/>
      <point x="516" y="72" type="curve"/>
      <point x="540" y="44"/>
      <point x="574" y="31"/>
      <point x="620" y="31" type="curve" smooth="yes"/>
      <point x="762" y="31"/>
      <point x="871" y="228"/>
      <point x="871" y="441" type="curve" smooth="yes"/>
      <point x="871" y="619"/>
      <point x="762" y="716"/>
      <point x="572" y="716" type="curve" smooth="yes"/>
      <point x="315" y="716"/>
      <point x="98" y="480"/>
      <point x="98" y="130" type="curve" smooth="yes"/>
      <point x="98" y="-74"/>
      <point x="228" y="-161"/>
    </contour>
    <contour>
      <point x="459" y="132" type="curve" smooth="yes"/>
      <point x="429" y="132"/>
      <point x="414" y="149"/>
      <point x="414" y="183" type="curve" smooth="yes"/>
      <point x="414" y="300"/>
      <point x="475" y="415"/>
      <point x="530" y="415" type="curve" smooth="yes"/>
      <point x="538" y="415"/>
      <point x="545" y="414"/>
      <point x="553" y="410" type="curve"/>
      <point x="511" y="231" type="line" smooth="yes"/>
      <point x="504" y="200"/>
      <point x="500" y="176"/>
      <point x="500" y="154" type="curve"/>
      <point x="492" y="140"/>
      <point x="475" y="132"/>
    </contour>
  </outline>
</glyph>
<glyph name="A" format="2">
  <advance width="518"/>
  <unicode hex="0041"/>
  <anchor x="197" y="0" name="bottom"/>
  <anchor x="341" y="10" name="ogonek"/>
  <anchor x="347" y="681" name="top"/>
  <outline>
    <contour>
      <point x="-49" y="0" type="curve"/>
      <point x="93" y="0" type="line"/>
      <point x="108" y="42"/>
      <point x="127" y="91"/>
      <point x="150" y="146" type="curve"/>
      <point x="308" y="146" type="line"/>
      <point x="306" y="90"/>
      <point x="303" y="41"/>
      <point x="299" y="0" type="curve"/>
      <point x="443" y="0" type="line"/>
      <point x="455" y="272"/>
      <point x="442" y="510"/>
      <point x="431" y="693" type="curve"/>
      <point x="288" y="693" type="line"/>
      <point x="185" y="510"/>
      <point x="63" y="272"/>
    </contour>
    <contour>
      <point x="199" y="261" type="line"/>
      <point x="233" y="338"/>
      <point x="272" y="425"/>
      <point x="316" y="519" type="curve"/>
      <point x="315" y="425"/>
      <point x="313" y="338"/>
      <point x="311" y="261" type="curve"/>
    </contour>
  </outline>
</glyph>
<glyph name="B" format="2">
  <advance width="543"/>
  <unicode hex="0042"/>
  <outline>
    <contour>
      <point x="170" y="-10" type="curve" smooth="yes"/>
      <point x="376" y="-10"/>
      <point x="478" y="98"/>
      <point x="478" y="231" type="curve" smooth="yes"/>
      <point x="478" y="285"/>
      <point x="454" y="331"/>
      <point x="400" y="363" type="curve"/>
      <point x="501" y="405"/>
      <point x="537" y="481"/>
      <point x="537" y="557" type="curve" smooth="yes"/>
      <point x="537" y="651"/>
      <point x="471" y="703"/>
      <point x="343" y="703" type="curve" smooth="yes"/>
      <point x="296" y="703"/>
      <point x="244" y="697"/>
      <point x="175" y="683" type="curve"/>
      <point x="13" y="7" type="line"/>
      <point x="67" y="-4"/>
      <point x="122" y="-10"/>
    </contour>
    <contour>
      <point x="210" y="105" type="curve" smooth="yes"/>
      <point x="204" y="105"/>
      <point x="195" y="106"/>
      <point x="179" y="108" type="curve"/>
      <point x="226" y="303" type="line"/>
      <point x="260" y="303" type="line" smooth="yes"/>
      <point x="307" y="303"/>
      <point x="332" y="277"/>
      <point x="332" y="228" type="curve" smooth="yes"/>
      <point x="332" y="146"/>
      <point x="288" y="105"/>
    </contour>
    <contour>
      <point x="253" y="415" type="line"/>
      <point x="294" y="587" type="line"/>
      <point x="308" y="588"/>
      <point x="320" y="588"/>
      <point x="328" y="588" type="curve"/>
      <point x="371" y="588"/>
      <point x="391" y="570"/>
      <point x="391" y="531" type="curve" smooth="yes"/>
      <point x="391" y="477"/>
      <point x="368" y="415"/>
      <point x="275" y="415" type="curve" smooth="yes"/>
    </contour>
  </outline>
</glyph>
<glyph name="C" format="2">
  <advance width="484"/>
  <unicode hex="0043"/>
  <anchor x="287" y="0" name="bottom"/>
  <anchor x="474" y="681" name="top"/>
  <outline>
    <contour>
      <point x="324" y="-14" type="curve" smooth="yes"/>
      <point x="382" y="-14"/>
      <point x="435" y="-1"/>
      <point x="474" y="20" type="curve"/>
      <point x="468" y="139" type="line"/>
      <point x="437" y="119"/>
      <point x="400" y="110"/>
      <point x="368" y="110" type="curve" smooth="yes"/>
      <point x="315" y="110"/>
      <point x="271" y="139"/>
      <point x="271" y="220" type="curve" smooth="yes"/>
      <point x="271" y="484"/>
      <point x="371" y="585"/>
      <point x="465" y="585" type="curve" smooth="yes"/>
      <point x="496" y="585"/>
      <point x="525" y="579"/>
      <point x="550" y="565" type="curve"/>
      <point x="597" y="681" type="line"/>
      <point x="568" y="698"/>
      <point x="520" y="707"/>
      <point x="468" y="707" type="curve"/>
      <point x="262" y="707"/>
      <point x="125" y="496"/>
      <point x="125" y="231" type="curve" smooth="yes"/>
      <point x="125" y="75"/>
      <point x="185" y="-14"/>
    </contour>
  </outline>
</glyph>
<glyph name="D" format="2">
  <advance width="585"/>
  <unicode hex="0044"/>
  <anchor x="164" y="0" name="bottom"/>
  <anchor x="247" y="347" name="center"/>
  <anchor x="337" y="681" name="top"/>
  <outline>
    <contour>
      <point x="199" y="-10" type="curve" smooth="yes"/>
      <point x="459" y="-10"/>
      <point x="565" y="257"/>
      <point x="565" y="476" type="curve" smooth="yes"/>
      <point x="565" y="628"/>
      <point x="492" y="703"/>
      <point x="343" y="703" type="curve" smooth="yes"/>
      <point x="279" y="703"/>
      <point x="228" y="695"/>
      <point x="175" y="683" type="curve"/>
      <point x="14" y="11" type="line"/>
      <point x="64" y="-3"/>
      <point x="136" y="-10"/>
    </contour>
    <contour>
      <point x="236" y="110" type="curve" smooth="yes"/>
      <point x="224" y="110"/>
      <point x="201" y="113"/>
      <point x="181" y="118" type="curve"/>
      <point x="292" y="580" type="line"/>
      <point x="307" y="582"/>
      <point x="321" y="583"/>
      <point x="330" y="583" type="curve" smooth="yes"/>
      <point x="389" y="583"/>
      <point x="418" y="545"/>
      <point x="418" y="464" type="curve" smooth="yes"/>
      <point x="418" y="284"/>
      <point x="344" y="110"/>
    </contour>
  </outline>
</glyph>
<glyph name="E" format="2">
  <advance width="486"/>
  <unicode hex="0045"/>
  <anchor x="246" y="0" name="bottom"/>
  <anchor x="376" y="10" name="ogonek"/>
  <anchor x="397" y="681" name="top"/>
  <anchor x="123" y="693" name="topleft"/>
  <outline>
    <contour>
      <point x="75" y="0" type="line"/>
      <point x="441" y="0" type="line"/>
      <point x="470" y="119" type="line"/>
      <point x="245" y="119" type="line"/>
      <point x="290" y="306" type="line"/>
      <point x="477" y="306" type="line"/>
      <point x="505" y="421" type="line"/>
      <point x="318" y="421" type="line"/>
      <point x="355" y="574" type="line"/>
      <point x="558" y="574" type="line"/>
      <point x="586" y="693" type="line"/>
      <point x="241" y="693" type="line"/>
    </contour>
  </outline>
</glyph>
<glyph name="F" format="2">
  <advance width="457"/>
  <unicode hex="0046"/>
  <outline>
    <contour>
      <point x="75" y="0" type="line"/>
      <point x="217" y="0" type="line"/>
      <point x="289" y="300" type="line"/>
      <point x="472" y="300" type="line"/>
      <point x="500" y="415" type="line"/>
      <point x="317" y="415" type="line"/>
      <point x="355" y="574" type="line"/>
      <point x="554" y="574" type="line"/>
      <point x="582" y="693" type="line"/>
      <point x="241" y="693" type="line"/>
    </contour>
  </outline>
</glyph>
<glyph name="G" format="2">
  <advance width="547"/>
  <unicode hex="0047"/>
  <anchor x="330" y="0" name="bottom"/>
  <anchor x="468" y="681" name="top"/>
  <outline>
    <contour>
      <point x="337" y="-14" type="curve"/>
      <point x="428" y="-14"/>
      <point x="490" y="10"/>
      <point x="495" y="14" type="curve"/>
      <point x="580" y="366" type="line"/>
      <point x="438" y="366" type="line"/>
      <point x="376" y="109" type="line"/>
      <point x="365" y="108"/>
      <point x="362" y="108"/>
      <point x="359" y="108" type="curve"/>
      <point x="300" y="108"/>
      <point x="271" y="140"/>
      <point x="271" y="218" type="curve" smooth="yes"/>
      <point x="271" y="454"/>
      <point x="359" y="584"/>
      <point x="475" y="584" type="curve"/>
      <point x="519" y="584"/>
      <point x="555" y="576"/>
      <point x="577" y="562" type="curve"/>
      <point x="629" y="682" type="line"/>
      <point x="603" y="697"/>
      <point x="556" y="707"/>
      <point x="506" y="707" type="curve"/>
      <point x="282" y="707"/>
      <point x="126" y="519"/>
      <point x="126" y="214" type="curve" smooth="yes"/>
      <point x="126" y="63"/>
      <point x="198" y="-14"/>
    </contour>
  </outline>
</glyph>
<glyph name="H" format="2">
  <advance width="582"/>
  <unicode hex="0048"/>
  <anchor x="282" y="0" name="bottom"/>
  <anchor x="365" y="347" name="center"/>
  <anchor x="446" y="681" name="top"/>
  <anchor x="123" y="693" name="topleft"/>
  <outline>
    <contour>
      <point x="75" y="0" type="line"/>
      <point x="217" y="0" type="line"/>
      <point x="289" y="300" type="line"/>
      <point x="437" y="300" type="line"/>
      <point x="365" y="0" type="line"/>
      <point x="507" y="0" type="line"/>
      <point x="673" y="693" type="line"/>
      <point x="531" y="693" type="line"/>
      <point x="466" y="420" type="line"/>
      <point x="318" y="420" type="line"/>
      <point x="383" y="693" type="line"/>
      <point x="241" y="693" type="line"/>
    </contour>
  </outline>
</glyph>
<glyph name="J" format="2">
  <advance width="409"/>
  <unicode hex="004A"/>
  <anchor x="171" y="0" name="bottom"/>
  <anchor x="434" y="681" name="top"/>
  <outline>
    <contour>
      <point x="150" y="-14" type="curve" smooth="yes"/>
      <point x="289" y="-14"/>
      <point x="356" y="53"/>
      <point x="389" y="189" type="curve" smooth="yes"/>
      <point x="510" y="693" type="line"/>
      <point x="368" y="693" type="line"/>
      <point x="249" y="194" type="line" smooth="yes"/>
      <point x="236" y="138"/>
      <point x="209" y="108"/>
      <point x="171" y="108" type="curve" smooth="yes"/>
      <point x="140" y="108"/>
      <point x="109" y="120"/>
      <point x="86" y="140" type="curve"/>
      <point x="18" y="31" type="line"/>
      <point x="53" y="4"/>
      <point x="104" y="-14"/>
    </contour>
  </outline>
</glyph>
<glyph name="K" format="2">
  <advance width="519"/>
  <unicode hex="004B"/>
  <anchor x="234" y="0" name="bottom"/>
  <anchor x="382" y="681" name="top"/>
  <outline>
    <contour>
      <point x="12" y="0" type="line"/>
      <point x="154" y="0" type="line"/>
      <point x="225" y="298" type="line"/>
      <point x="272" y="218"/>
      <point x="301" y="102"/>
      <point x="303" y="0" type="curve"/>
      <point x="446" y="0" type="line"/>
      <point x="438" y="119"/>
      <point x="403" y="243"/>
      <point x="355" y="345" type="curve"/>
      <point x="459" y="474"/>
      <point x="543" y="602"/>
      <point x="601" y="693" type="curve"/>
      <point x="456" y="693" type="line"/>
      <point x="408" y="616"/>
      <point x="336" y="497"/>
      <point x="246" y="385" type="curve"/>
      <point x="320" y="693" type="line"/>
      <point x="178" y="693" type="line"/>
    </contour>
  </outline>
</glyph>
<glyph name="L" format="2">
  <advance width="437"/>
  <unicode hex="004C"/>
  <outline>
    <contour>
      <point x="70" y="0" type="line"/>
      <point x="419" y="0" type="line"/>
      <point x="448" y="119" type="line"/>
      <point x="240" y="119" type="line"/>
      <point x="378" y="693" type="line"/>
      <point x="236" y="693" type="line"/>
    </contour>
  </outline>
</glyph>
<glyph name="M" format="2">
  <advance width="723"/>
  <unicode hex="004D"/>
  <outline>
    <contour>
      <point x="58" y="0" type="curve"/>
      <point x="193" y="0" type="line"/>
      <point x="221" y="114"/>
      <point x="265" y="285"/>
      <point x="319" y="467" type="curve"/>
      <point x="328" y="322"/>
      <point x="326" y="201"/>
      <point x="327" y="89" type="curve"/>
      <point x="438" y="89" type="line"/>
      <point x="492" y="197"/>
      <point x="550" y="316"/>
      <point x="625" y="455" type="curve"/>
      <point x="593" y="278"/>
      <point x="556" y="111"/>
      <point x="530" y="0" type="curve"/>
      <point x="665" y="0" type="line"/>
      <point x="713" y="223"/>
      <point x="762" y="506"/>
      <point x="792" y="693" type="curve"/>
      <point x="652" y="693" type="line"/>
      <point x="599" y="608"/>
      <point x="508" y="448"/>
      <point x="429" y="289" type="curve"/>
      <point x="426" y="437"/>
      <point x="415" y="608"/>
      <point x="403" y="693" type="curve"/>
      <point x="263" y="693" type="line"/>
      <point x="203" y="506"/>
      <point x="116" y="223"/>
    </contour>
  </outline>
</glyph>
<glyph name="N" format="2">
  <advance width="593"/>
  <unicode hex="004E"/>
  <anchor x="323" y="0" name="bottom"/>
  <anchor x="450" y="681" name="top"/>
  <outline>
    <contour>
      <point x="75" y="0" type="line"/>
      <point x="210" y="0" type="line"/>
      <point x="313" y="428" type="line"/>
      <point x="364" y="248"/>
      <point x="392" y="102"/>
      <point x="407" y="0" type="curve"/>
      <point x="518" y="0" type="line"/>
      <point x="684" y="693" type="line"/>
      <point x="549" y="693" type="line"/>
      <point x="457" y="310" type="line"/>
      <point x="425" y="453"/>
      <point x="390" y="582"/>
      <point x="353" y="693" type="curve"/>
      <point x="241" y="693" type="line"/>
    </contour>
  </outline>
</glyph>
<glyph name="O" format="2">
  <advance width="607"/>
  <unicode hex="004F"/>
  <guideline x="732" y="402" angle="90"/>
  <anchor x="295" y="0" name="bottom"/>
  <anchor x="378" y="347" name="center"/>
  <anchor x="485" y="10" name="ogonek"/>
  <anchor x="459" y="681" name="top"/>
  <anchor x="123" y="693" name="topleft"/>
  <anchor x="690" y="693" name="topright"/>
  <outline>
    <contour>
      <point x="326" y="-13" type="curve" smooth="yes"/>
      <point x="529" y="-13"/>
      <point x="649" y="243"/>
      <point x="649" y="468" type="curve" smooth="yes"/>
      <point x="649" y="616"/>
      <point x="589" y="707"/>
      <point x="449" y="707" type="curve" smooth="yes"/>
      <point x="244" y="707"/>
      <point x="124" y="452"/>
      <point x="124" y="225" type="curve" smooth="yes"/>
      <point x="124" y="78"/>
      <point x="185" y="-13"/>
    </contour>
    <contour>
      <point x="338" y="110" type="curve" smooth="yes"/>
      <point x="285" y="110"/>
      <point x="270" y="152"/>
      <point x="270" y="222" type="curve" smooth="yes"/>
      <point x="270" y="321"/>
      <point x="321" y="585"/>
      <point x="433" y="585" type="curve" smooth="yes"/>
      <point x="482" y="585"/>
      <point x="502" y="542"/>
      <point x="502" y="472" type="curve" smooth="yes"/>
      <point x="502" y="370"/>
      <point x="447" y="110"/>
    </contour>
  </outline>
</glyph>
<glyph name="P" format="2">
  <advance width="509"/>
  <unicode hex="0050"/>
  <outline>
    <contour>
      <point x="75" y="0" type="line"/>
      <point x="217" y="0" type="line"/>
      <point x="274" y="239" type="line"/>
      <point x="297" y="239" type="line" smooth="yes"/>
      <point x="474" y="239"/>
      <point x="601" y="354"/>
      <point x="601" y="529" type="curve" smooth="yes"/>
      <point x="601" y="640"/>
      <point x="531" y="703"/>
      <point x="407" y="703" type="curve"/>
      <point x="351" y="703"/>
      <point x="300" y="697"/>
      <point x="239" y="683" type="curve"/>
    </contour>
    <contour>
      <point x="303" y="357" type="line"/>
      <point x="356" y="578" type="line"/>
      <point x="369" y="582"/>
      <point x="382" y="583"/>
      <point x="387" y="583" type="curve" smooth="yes"/>
      <point x="433" y="583"/>
      <point x="457" y="559"/>
      <point x="457" y="511" type="curve" smooth="yes"/>
      <point x="457" y="409"/>
      <point x="410" y="357"/>
      <point x="318" y="357" type="curve" smooth="yes"/>
    </contour>
  </outline>
</glyph>
<glyph name="Q" format="2">
  <advance width="607"/>
  <unicode hex="0051"/>
  <outline>
    <contour>
      <point x="489" y="-188" type="curve"/>
      <point x="531" y="-82" type="line"/>
      <point x="439" y="-80"/>
      <point x="398" y="-47"/>
      <point x="390" y="-5" type="curve" smooth="yes"/>
      <point x="390" y="-5"/>
      <point x="390" y="-4"/>
      <point x="390" y="-4" type="curve"/>
      <point x="554" y="43"/>
      <point x="649" y="268"/>
      <point x="649" y="468" type="curve" smooth="yes"/>
      <point x="649" y="616"/>
      <point x="589" y="707"/>
      <point x="449" y="707" type="curve" smooth="yes"/>
      <point x="244" y="707"/>
      <point x="124" y="452"/>
      <point x="124" y="225" type="curve" smooth="yes"/>
      <point x="124" y="102"/>
      <point x="167" y="18"/>
      <point x="264" y="-6" type="curve"/>
      <point x="264" y="-6"/>
      <point x="264" y="-7"/>
      <point x="264" y="-7" type="curve" smooth="yes"/>
      <point x="272" y="-114"/>
      <point x="322" y="-170"/>
    </contour>
    <contour>
      <point x="338" y="110" type="curve" smooth="yes"/>
      <point x="285" y="110"/>
      <point x="270" y="152"/>
      <point x="270" y="222" type="curve" smooth="yes"/>
      <point x="270" y="321"/>
      <point x="321" y="585"/>
      <point x="433" y="585" type="curve" smooth="yes"/>
      <point x="482" y="585"/>
      <point x="502" y="542"/>
      <point x="502" y="472" type="curve" smooth="yes"/>
      <point x="502" y="370"/>
      <point x="447" y="110"/>
    </contour>
  </outline>
</glyph>
<glyph name="R" format="2">
  <advance width="533"/>
  <unicode hex="0052"/>
  <anchor x="303" y="0" name="bottom"/>
  <anchor x="412" y="681" name="top"/>
  <outline>
    <contour>
      <point x="75" y="0" type="line"/>
      <point x="217" y="0" type="line"/>
      <point x="278" y="255" type="line"/>
      <point x="314" y="255" type="line"/>
      <point x="320" y="255"/>
      <point x="325" y="255"/>
      <point x="331" y="255" type="curve"/>
      <point x="359" y="174"/>
      <point x="369" y="87"/>
      <point x="378" y="0" type="curve"/>
      <point x="520" y="0" type="line"/>
      <point x="515" y="89"/>
      <point x="498" y="196"/>
      <point x="462" y="295" type="curve"/>
      <point x="567" y="364"/>
      <point x="596" y="458"/>
      <point x="596" y="543" type="curve" smooth="yes"/>
      <point x="596" y="648"/>
      <point x="530" y="703"/>
      <point x="407" y="703" type="curve" smooth="yes"/>
      <point x="344" y="703"/>
      <point x="292" y="695"/>
      <point x="239" y="682" type="curve"/>
    </contour>
    <contour>
      <point x="306" y="368" type="line"/>
      <point x="356" y="579" type="line"/>
      <point x="374" y="584"/>
      <point x="382" y="585"/>
      <point x="389" y="585" type="curve" smooth="yes"/>
      <point x="426" y="585"/>
      <point x="449" y="562"/>
      <point x="449" y="518" type="curve" smooth="yes"/>
      <point x="449" y="432"/>
      <point x="399" y="368"/>
      <point x="317" y="368" type="curve" smooth="yes"/>
    </contour>
  </outline>
</glyph>
<glyph name="S" format="2">
  <advance width="419"/>
  <unicode hex="0053"/>
  <outline>
    <contour>
      <point x="197" y="-14" type="curve" smooth="yes"/>
      <point x="351" y="-14"/>
      <point x="447" y="90"/>
      <point x="447" y="228" type="curve" smooth="yes"/>
      <point x="447" y="303"/>
      <point x="407" y="353"/>
      <point x="369" y="395" type="curve" smooth="yes"/>
      <point x="333" y="434"/>
      <point x="299" y="467"/>
      <point x="299" y="508" type="curve" smooth="yes"/>
      <point x="299" y="562"/>
      <point x="330" y="587"/>
      <point x="384" y="587" type="curve" smooth="yes"/>
      <point x="418" y="587"/>
      <point x="459" y="578"/>
      <point x="484" y="565" type="curve"/>
      <point x="530" y="675" type="line"/>
      <point x="491" y="696"/>
      <point x="451" y="707"/>
      <point x="394" y="707" type="curve" smooth="yes"/>
      <point x="261" y="707"/>
      <point x="156" y="613"/>
      <point x="156" y="481" type="curve" smooth="yes"/>
      <point x="156" y="407"/>
      <point x="198" y="362"/>
      <point x="237" y="321" type="curve" smooth="yes"/>
      <point x="271" y="286"/>
      <point x="302" y="253"/>
      <point x="302" y="206" type="curve" smooth="yes"/>
      <point x="302" y="145"/>
      <point x="271" y="106"/>
      <point x="217" y="106" type="curve" smooth="yes"/>
      <point x="178" y="106"/>
      <point x="122" y="119"/>
      <point x="89" y="147" type="curve"/>
      <point x="41" y="29" type="line"/>
      <point x="80" y="7"/>
      <point x="133" y="-14"/>
    </contour>
  </outline>
</glyph>
<glyph name="T" format="2">
  <advance width="463"/>
  <unicode hex="0054"/>
  <outline>
    <contour>
      <point x="161" y="0" type="line"/>
      <point x="303" y="0" type="line"/>
      <point x="441" y="574" type="line"/>
      <point x="579" y="574" type="line"/>
      <point x="607" y="693" type="line"/>
      <point x="188" y="693" type="line"/>
      <point x="160" y="574" type="line"/>
      <point x="299" y="574" type="line"/>
    </contour>
  </outline>
</glyph>
<glyph name="U" format="2">
  <advance width="560"/>
  <unicode hex="0055"/>
  <outline>
    <contour>
      <point x="294" y="-14" type="curve" smooth="yes"/>
      <point x="435" y="-14"/>
      <point x="511" y="70"/>
      <point x="547" y="219" type="curve" smooth="yes"/>
      <point x="661" y="693" type="line"/>
      <point x="519" y="693" type="line"/>
      <point x="405" y="218" type="line" smooth="yes"/>
      <point x="387" y="142"/>
      <point x="363" y="110"/>
      <point x="316" y="110" type="curve" smooth="yes"/>
      <point x="281" y="110"/>
      <point x="256" y="130"/>
      <point x="256" y="178" type="curve" smooth="yes"/>
      <point x="256" y="190"/>
      <point x="258" y="205"/>
      <point x="262" y="222" type="curve" smooth="yes"/>
      <point x="375" y="693" type="line"/>
      <point x="233" y="693" type="line"/>
      <point x="123" y="235" type="line" smooth="yes"/>
      <point x="116" y="207"/>
      <point x="113" y="181"/>
      <point x="113" y="158" type="curve" smooth="yes"/>
      <point x="113" y="47"/>
      <point x="183" y="-14"/>
    </contour>
  </outline>
</glyph>
<glyph name="V" format="2">
  <advance width="506"/>
  <unicode hex="0056"/>
  <outline>
    <contour>
      <point x="183" y="0" type="curve"/>
      <point x="326" y="0" type="line"/>
      <point x="429" y="182"/>
      <point x="545" y="422"/>
      <point x="657" y="693" type="curve"/>
      <point x="515" y="693" type="line"/>
      <point x="471" y="572"/>
      <point x="400" y="394"/>
      <point x="298" y="174" type="curve"/>
      <point x="301" y="397"/>
      <point x="310" y="575"/>
      <point x="321" y="693" type="curve"/>
      <point x="177" y="693" type="line"/>
      <point x="165" y="422"/>
      <point x="172" y="182"/>
    </contour>
  </outline>
</glyph>
<glyph name="W" format="2">
  <advance width="705"/>
  <unicode hex="0057"/>
  <anchor x="357" y="0" name="bottom"/>
  <anchor x="511" y="681" name="top"/>
  <outline>
    <contour>
      <point x="133" y="0" type="curve"/>
      <point x="272" y="0" type="line"/>
      <point x="324" y="99"/>
      <point x="396" y="268"/>
      <point x="452" y="407" type="curve"/>
      <point x="445" y="268"/>
      <point x="442" y="100"/>
      <point x="446" y="0" type="curve"/>
      <point x="580" y="0" type="line"/>
      <point x="673" y="194"/>
      <point x="805" y="547"/>
      <point x="855" y="693" type="curve"/>
      <point x="714" y="693" type="line"/>
      <point x="681" y="580"/>
      <point x="622" y="397"/>
      <point x="553" y="214" type="curve"/>
      <point x="555" y="338"/>
      <point x="560" y="487"/>
      <point x="569" y="618" type="curve"/>
      <point x="434" y="618" type="line"/>
      <point x="383" y="488"/>
      <point x="321" y="339"/>
      <point x="265" y="215" type="curve"/>
      <point x="281" y="399"/>
      <point x="303" y="581"/>
      <point x="322" y="693" type="curve"/>
      <point x="178" y="693" type="line"/>
      <point x="160" y="547"/>
      <point x="134" y="195"/>
    </contour>
  </outline>
</glyph>
<glyph name="X" format="2">
  <advance width="517"/>
  <unicode hex="0058"/>
  <outline>
    <contour>
      <point x="12" y="0" type="line"/>
      <point x="162" y="0" type="line"/>
      <point x="318" y="250" type="line"/>
      <point x="346" y="126"/>
      <point x="358" y="63"/>
      <point x="363" y="0" type="curve"/>
      <point x="509" y="0" type="line"/>
      <point x="502" y="92"/>
      <point x="478" y="202"/>
      <point x="438" y="357" type="curve"/>
      <point x="511" y="469"/>
      <point x="583" y="581"/>
      <point x="656" y="693" type="curve"/>
      <point x="505" y="693" type="line"/>
      <point x="463" y="619"/>
      <point x="421" y="546"/>
      <point x="379" y="472" type="curve"/>
      <point x="336" y="693" type="line"/>
      <point x="185" y="693" type="line"/>
      <point x="257" y="371" type="line"/>
    </contour>
  </outline>
</glyph>
<glyph name="Y" format="2">
  <advance width="506"/>
  <unicode hex="0059"/>
  <outline>
    <contour>
      <point x="181" y="0" type="line"/>
      <point x="323" y="0" type="line"/>
      <point x="386" y="261" type="line"/>
      <point x="486" y="401"/>
      <point x="605" y="590"/>
      <point x="660" y="693" type="curve"/>
      <point x="509" y="693" type="line"/>
      <point x="468" y="604"/>
      <point x="412" y="501"/>
      <point x="348" y="402" type="curve"/>
      <point x="334" y="502"/>
      <point x="326" y="604"/>
      <point x="324" y="693" type="curve"/>
      <point x="174" y="693" type="line"/>
      <point x="184" y="590"/>
      <point x="212" y="402"/>
      <point x="244" y="261" type="curve"/>
    </contour>
  </outline>
</glyph>
<glyph name="Z" format="2">
  <advance width="462"/>
  <unicode hex="005A"/>
  <outline>
    <contour>
      <point x="37" y="0" type="line"/>
      <point x="429" y="0" type="line"/>
      <point x="458" y="119" type="line"/>
      <point x="232" y="119" type="line"/>
      <point x="320" y="258"/>
      <point x="442" y="433"/>
      <point x="559" y="572" type="curve"/>
      <point x="588" y="693" type="line"/>
      <point x="218" y="693" type="line"/>
      <point x="190" y="574" type="line"/>
      <point x="406" y="574" type="line"/>
      <point x="271" y="409"/>
      <point x="156" y="242"/>
      <point x="58" y="87" type="curve"/>
    </contour>
  </outline>
</glyph>
<glyph name="bracketleft" format="2">
  <advance width="330"/>
  <unicode hex="005B"/>
  <outline>
    <contour>
      <point x="32" y="-185" type="line"/>
      <point x="253" y="-185" type="line"/>
      <point x="277" y="-84" type="line"/>
      <point x="182" y="-84" type="line"/>
      <point x="366" y="681" type="line"/>
      <point x="461" y="681" type="line"/>
      <point x="485" y="783" type="line"/>
      <point x="264" y="783" type="line"/>
    </contour>
  </outline>
</glyph>
<glyph name="backslash" format="2">
  <advance width="315"/>
  <unicode hex="005C"/>
  <outline>
    <contour>
      <point x="197" y="-185" type="line"/>
      <point x="318" y="-185" type="line"/>
      <point x="286" y="783" type="line"/>
      <point x="165" y="783" type="line"/>
    </contour>
  </outline>
</glyph>
<glyph name="bracketright" format="2">
  <advance width="330"/>
  <unicode hex="005D"/>
  <outline>
    <contour>
      <point x="-75" y="-185" type="line"/>
      <point x="146" y="-185" type="line"/>
      <point x="378" y="783" type="line"/>
      <point x="157" y="783" type="line"/>
      <point x="133" y="682" type="line"/>
      <point x="228" y="682" type="line"/>
      <point x="44" y="-83" type="line"/>
      <point x="-51" y="-83" type="line"/>
    </contour>
  </outline>
</glyph>
<glyph name="asciicircum" format="2">
  <advance width="444"/>
  <unicode hex="005E"/>
  <outline>
    <contour>
      <point x="202" y="295" type="line"/>
      <point x="352" y="538" type="line"/>
      <point x="385" y="295" type="line"/>
      <point x="504" y="328" type="line"/>
      <point x="442" y="693" type="line"/>
      <point x="330" y="693" type="line"/>
      <point x="102" y="341" type="line"/>
    </contour>
  </outline>
</glyph>
<glyph name="underscore" format="2">
  <advance width="378"/>
  <unicode hex="005F"/>
  <outline>
    <contour>
      <point x="-39" y="-185" type="line"/>
      <point x="329" y="-185" type="line"/>
      <point x="357" y="-68" type="line"/>
      <point x="-11" y="-68" type="line"/>
    </contour>
  </outline>
</glyph>
<glyph name="grave" format="2">
  <advance width="255"/>
  <unicode hex="0060"/>
  <outline>
    <contour>
      <point x="326" y="578" type="line"/>
      <point x="389" y="630" type="line"/>
      <point x="278" y="785" type="line"/>
      <point x="189" y="712" type="line"/>
    </contour>
  </outline>
</glyph>
<glyph name="a" format="2">
  <advance width="494"/>
  <unicode hex="0061"/>
  <outline>
    <contour>
      <point x="222" y="-10" type="curve" smooth="yes"/>
      <point x="272" y="-10"/>
      <point x="314" y="9"/>
      <point x="339" y="30" type="curve"/>
      <point x="345" y="17"/>
      <point x="350" y="4"/>
      <point x="356" y="-11" type="curve"/>
      <point x="475" y="9" type="line"/>
      <point x="456" y="72"/>
      <point x="450" y="145"/>
      <point x="469" y="223" type="curve" smooth="yes"/>
      <point x="538" y="511" type="line"/>
      <point x="501" y="531"/>
      <point x="431" y="543"/>
      <point x="389" y="543" type="curve" smooth="yes"/>
      <point x="221" y="543"/>
      <point x="93" y="366"/>
      <point x="93" y="153" type="curve" smooth="yes"/>
      <point x="93" y="62"/>
      <point x="128" y="-10"/>
    </contour>
    <contour>
      <point x="276" y="105" type="curve" smooth="yes"/>
      <point x="241" y="105"/>
      <point x="233" y="125"/>
      <point x="233" y="164" type="curve" smooth="yes"/>
      <point x="233" y="298"/>
      <point x="297" y="430"/>
      <point x="354" y="430" type="curve" smooth="yes"/>
      <point x="363" y="430"/>
      <point x="370" y="429"/>
      <point x="379" y="424" type="curve"/>
      <point x="330" y="219" type="line" smooth="yes"/>
      <point x="322" y="184"/>
      <point x="318" y="156"/>
      <point x="318" y="131" type="curve"/>
      <point x="309" y="116"/>
      <point x="293" y="105"/>
    </contour>
  </outline>
</glyph>
<glyph name="b" format="2">
  <advance width="485"/>
  <unicode hex="0062"/>
  <outline>
    <contour>
      <point x="222" y="-10" type="curve" smooth="yes"/>
      <point x="391" y="-10"/>
      <point x="516" y="165"/>
      <point x="520" y="376" type="curve" smooth="yes"/>
      <point x="522" y="470"/>
      <point x="485" y="543"/>
      <point x="389" y="543" type="curve" smooth="yes"/>
      <point x="369" y="543"/>
      <point x="349" y="536"/>
      <point x="332" y="527" type="curve"/>
      <point x="392" y="776" type="line"/>
      <point x="249" y="754" type="line"/>
      <point x="73" y="22" type="line"/>
      <point x="110" y="2"/>
      <point x="180" y="-10"/>
    </contour>
    <contour>
      <point x="257" y="103" type="curve" smooth="yes"/>
      <point x="248" y="103"/>
      <point x="241" y="104"/>
      <point x="232" y="109" type="curve"/>
      <point x="304" y="411" type="line"/>
      <point x="318" y="423"/>
      <point x="331" y="427"/>
      <point x="344" y="427" type="curve" smooth="yes"/>
      <point x="375" y="427"/>
      <point x="380" y="405"/>
      <point x="380" y="365" type="curve" smooth="yes"/>
      <point x="380" y="236"/>
      <point x="315" y="103"/>
    </contour>
  </outline>
</glyph>
<glyph name="c" format="2">
  <advance width="375"/>
  <unicode hex="0063"/>
  <outline>
    <contour>
      <point x="258" y="-14" type="curve" smooth="yes"/>
      <point x="297" y="-14"/>
      <point x="329" y="-7"/>
      <point x="366" y="9" type="curve"/>
      <point x="360" y="114" type="line"/>
      <point x="340" y="107"/>
      <point x="322" y="104"/>
      <point x="306" y="104" type="curve" smooth="yes"/>
      <point x="263" y="104"/>
      <point x="239" y="130"/>
      <point x="239" y="183" type="curve" smooth="yes"/>
      <point x="239" y="333"/>
      <point x="287" y="429"/>
      <point x="363" y="429" type="curve" smooth="yes"/>
      <point x="383" y="429"/>
      <point x="406" y="425"/>
      <point x="428" y="414" type="curve"/>
      <point x="471" y="525" type="line"/>
      <point x="439" y="540"/>
      <point x="402" y="546"/>
      <point x="361" y="546" type="curve"/>
      <point x="209" y="546"/>
      <point x="99" y="385"/>
      <point x="99" y="164" type="curve" smooth="yes"/>
      <point x="99" y="52"/>
      <point x="158" y="-14"/>
    </contour>
  </outline>
</glyph>
<glyph name="d" format="2">
  <advance width="496"/>
  <unicode hex="0064"/>
  <anchor x="184" y="0" name="bottom"/>
  <anchor x="248" y="266" name="center"/>
  <anchor x="370" y="776" name="top"/>
  <anchor x="603" y="776" name="topright"/>
  <outline>
    <contour>
      <point x="222" y="-10" type="curve" smooth="yes"/>
      <point x="273" y="-10"/>
      <point x="316" y="9"/>
      <point x="341" y="30" type="curve"/>
      <point x="347" y="17"/>
      <point x="352" y="4"/>
      <point x="358" y="-11" type="curve"/>
      <point x="477" y="9" type="line"/>
      <point x="458" y="72"/>
      <point x="452" y="145"/>
      <point x="471" y="223" type="curve" smooth="yes"/>
      <point x="603" y="776" type="line"/>
      <point x="460" y="754" type="line"/>
      <point x="407" y="535" type="line"/>
      <point x="396" y="540"/>
      <point x="381" y="543"/>
      <point x="368" y="543" type="curve" smooth="yes"/>
      <point x="228" y="543"/>
      <point x="93" y="366"/>
      <point x="93" y="152" type="curve" smooth="yes"/>
      <point x="93" y="62"/>
      <point x="128" y="-10"/>
    </contour>
    <contour>
      <point x="276" y="105" type="curve" smooth="yes"/>
      <point x="241" y="105"/>
      <point x="232" y="125"/>
      <point x="232" y="163" type="curve" smooth="yes"/>
      <point x="232" y="298"/>
      <point x="298" y="428"/>
      <point x="356" y="428" type="curve" smooth="yes"/>
      <point x="362" y="428"/>
      <point x="369" y="428"/>
      <point x="381" y="423" type="curve"/>
      <point x="332" y="219" type="line" smooth="yes"/>
      <point x="324" y="184"/>
      <point x="320" y="156"/>
      <point x="320" y="131" type="curve"/>
      <point x="311" y="116"/>
      <point x="294" y="105"/>
    </contour>
  </outline>
</glyph>
<glyph name="e" format="2">
  <advance width="440"/>
  <unicode hex="0065"/>
  <outline>
    <contour>
      <point x="276" y="-14" type="curve" smooth="yes"/>
      <point x="331" y="-14"/>
      <point x="370" y="-2"/>
      <point x="406" y="14" type="curve"/>
      <point x="399" y="118" type="line"/>
      <point x="374" y="105"/>
      <point x="344" y="100"/>
      <point x="314" y="100" type="curve" smooth="yes"/>
      <point x="263" y="100"/>
      <point x="235" y="118"/>
      <point x="235" y="181" type="curve" smooth="yes"/>
      <point x="235" y="183"/>
      <point x="235" y="185"/>
      <point x="235" y="188" type="curve"/>
      <point x="378" y="198"/>
      <point x="490" y="253"/>
      <point x="497" y="408" type="curve" smooth="yes"/>
      <point x="501" y="494"/>
      <point x="450" y="546"/>
      <point x="364" y="546" type="curve" smooth="yes"/>
      <point x="202" y="546"/>
      <point x="98" y="362"/>
      <point x="98" y="174" type="curve" smooth="yes"/>
      <point x="98" y="71"/>
      <point x="138" y="-14"/>
    </contour>
    <contour>
      <point x="242" y="286" type="curve"/>
      <point x="258" y="377"/>
      <point x="299" y="434"/>
      <point x="338" y="434" type="curve" smooth="yes"/>
      <point x="360" y="434"/>
      <point x="369" y="420"/>
      <point x="369" y="396" type="curve" smooth="yes"/>
      <point x="369" y="356"/>
      <point x="345" y="299"/>
    </contour>
  </outline>
</glyph>
<glyph name="f" format="2">
  <advance width="367"/>
  <unicode hex="0066"/>
  <outline>
    <contour>
      <point x="103" y="-189" type="line"/>
      <point x="157" y="-123"/>
      <point x="196" y="-54"/>
      <point x="230" y="90" type="curve" smooth="yes"/>
      <point x="308" y="418" type="line"/>
      <point x="439" y="418" type="line"/>
      <point x="467" y="532" type="line"/>
      <point x="336" y="532" type="line"/>
      <point x="341" y="554" type="line" smooth="yes"/>
      <point x="356" y="616"/>
      <point x="374" y="659"/>
      <point x="434" y="659" type="curve" smooth="yes"/>
      <point x="459" y="659"/>
      <point x="479" y="651"/>
      <point x="495" y="643" type="curve"/>
      <point x="541" y="752" type="line"/>
      <point x="519" y="766"/>
      <point x="483" y="776"/>
      <point x="442" y="776" type="curve" smooth="yes"/>
      <point x="303" y="776"/>
      <point x="239" y="698"/>
      <point x="205" y="556" type="curve" smooth="yes"/>
      <point x="88" y="72" type="line" smooth="yes"/>
      <point x="69" y="-8"/>
      <point x="28" y="-112"/>
      <point x="-23" y="-169" type="curve"/>
    </contour>
  </outline>
</glyph>
<glyph name="g" format="2">
  <advance width="486"/>
  <unicode hex="0067"/>
  <outline>
    <contour>
      <point x="164" y="-188" type="curve" smooth="yes"/>
      <point x="305" y="-188"/>
      <point x="394" y="-104"/>
      <point x="433" y="62" type="curve" smooth="yes"/>
      <point x="537" y="506" type="line"/>
      <point x="500" y="526"/>
      <point x="430" y="538"/>
      <point x="388" y="538" type="curve" smooth="yes"/>
      <point x="222" y="538"/>
      <point x="100" y="382"/>
      <point x="96" y="194" type="curve" smooth="yes"/>
      <point x="94" y="100"/>
      <point x="130" y="27"/>
      <point x="225" y="27" type="curve" smooth="yes"/>
      <point x="248" y="27"/>
      <point x="270" y="35"/>
      <point x="288" y="45" type="curve"/>
      <point x="287" y="39" type="line" smooth="yes"/>
      <point x="276" y="-26"/>
      <point x="245" y="-76"/>
      <point x="170" y="-76" type="curve" smooth="yes"/>
      <point x="132" y="-76"/>
      <point x="99" y="-65"/>
      <point x="69" y="-48" type="curve"/>
      <point x="25" y="-157" type="line"/>
      <point x="63" y="-177"/>
      <point x="112" y="-188"/>
    </contour>
    <contour>
      <point x="272" y="143" type="curve" smooth="yes"/>
      <point x="243" y="143"/>
      <point x="236" y="165"/>
      <point x="236" y="205" type="curve" smooth="yes"/>
      <point x="236" y="313"/>
      <point x="298" y="425"/>
      <point x="353" y="425" type="curve" smooth="yes"/>
      <point x="362" y="425"/>
      <point x="369" y="424"/>
      <point x="378" y="419" type="curve"/>
      <point x="317" y="163" type="line"/>
      <point x="303" y="147"/>
      <point x="286" y="143"/>
    </contour>
  </outline>
</glyph>
<glyph name="i" format="2">
  <advance width="274"/>
  <unicode hex="0069"/>
  <outline>
    <contour>
      <point x="68" y="0" type="line"/>
      <point x="206" y="0" type="line"/>
      <point x="334" y="532" type="line"/>
      <point x="196" y="532" type="line"/>
    </contour>
    <contour>
      <point x="288" y="596" type="curve" smooth="yes"/>
      <point x="336" y="596"/>
      <point x="384" y="638"/>
      <point x="384" y="696" type="curve" smooth="yes"/>
      <point x="384" y="738"/>
      <point x="353" y="764"/>
      <point x="312" y="764" type="curve" smooth="yes"/>
      <point x="264" y="764"/>
      <point x="216" y="720"/>
      <point x="216" y="663" type="curve" smooth="yes"/>
      <point x="216" y="622"/>
      <point x="247" y="596"/>
    </contour>
  </outline>
</glyph>
<glyph name="j" format="2">
  <advance width="274"/>
  <unicode hex="006A"/>
  <outline>
    <contour>
      <point x="27" y="-188" type="curve" smooth="yes"/>
      <point x="123" y="-188"/>
      <point x="179" y="-132"/>
      <point x="208" y="-12" type="curve" smooth="yes"/>
      <point x="339" y="532" type="line"/>
      <point x="201" y="532" type="line"/>
      <point x="69" y="-16" type="line" smooth="yes"/>
      <point x="60" y="-53"/>
      <point x="46" y="-73"/>
      <point x="20" y="-73" type="curve" smooth="yes"/>
      <point x="2" y="-73"/>
      <point x="-10" y="-69"/>
      <point x="-24" y="-62" type="curve"/>
      <point x="-63" y="-169" type="line"/>
      <point x="-37" y="-180"/>
      <point x="-3" y="-188"/>
    </contour>
    <contour>
      <point x="293" y="596" type="curve" smooth="yes"/>
      <point x="341" y="596"/>
      <point x="389" y="638"/>
      <point x="389" y="696" type="curve" smooth="yes"/>
      <point x="389" y="738"/>
      <point x="358" y="764"/>
      <point x="317" y="764" type="curve" smooth="yes"/>
      <point x="269" y="764"/>
      <point x="221" y="720"/>
      <point x="221" y="663" type="curve" smooth="yes"/>
      <point x="221" y="622"/>
      <point x="252" y="596"/>
    </contour>
  </outline>
</glyph>
<glyph name="k" format="2">
  <advance width="466"/>
  <unicode hex="006B"/>
  <anchor x="240" y="0" name="bottom"/>
  <anchor x="318" y="776" name="top"/>
  <outline>
    <contour>
      <point x="65" y="0" type="line"/>
      <point x="203" y="0" type="line"/>
      <point x="258" y="228" type="line"/>
      <point x="280" y="173"/>
      <point x="299" y="83"/>
      <point x="306" y="0" type="curve"/>
      <point x="449" y="0" type="line"/>
      <point x="440" y="93"/>
      <point x="414" y="192"/>
      <point x="377" y="278" type="curve"/>
      <point x="452" y="366"/>
      <point x="525" y="457"/>
      <point x="575" y="532" type="curve"/>
      <point x="429" y="532" type="line"/>
      <point x="396" y="476"/>
      <point x="329" y="384"/>
      <point x="281" y="325" type="curve"/>
      <point x="389" y="776" type="line"/>
      <point x="246" y="754" type="line"/>
    </contour>
  </outline>
</glyph>
<glyph name="l" format="2">
  <advance width="282"/>
  <unicode hex="006C"/>
  <outline>
    <contour>
      <point x="251" y="-14" type="curve"/>
      <point x="278" y="98" type="line"/>
      <point x="237" y="101"/>
      <point x="225" y="117"/>
      <point x="235" y="160" type="curve" smooth="yes"/>
      <point x="383" y="776" type="line"/>
      <point x="240" y="754" type="line"/>
      <point x="96" y="158" type="line" smooth="yes"/>
      <point x="68" y="44"/>
      <point x="118" y="-10"/>
    </contour>
  </outline>
</glyph>
<glyph name="n" format="2">
  <advance width="496"/>
  <unicode hex="006E"/>
  <anchor x="188" y="0" name="bottom"/>
  <anchor x="298" y="532" name="top"/>
  <outline>
    <contour>
      <point x="4" y="0" type="line"/>
      <point x="142" y="0" type="line"/>
      <point x="243" y="421" type="line"/>
      <point x="254" y="425"/>
      <point x="265" y="427"/>
      <point x="274" y="427" type="curve" smooth="yes"/>
      <point x="315" y="427"/>
      <point x="328" y="392"/>
      <point x="307" y="307" type="curve" smooth="yes"/>
      <point x="233" y="0" type="line"/>
      <point x="371" y="0" type="line"/>
      <point x="446" y="313" type="line" smooth="yes"/>
      <point x="483" y="467"/>
      <point x="434" y="542"/>
      <point x="301" y="542" type="curve" smooth="yes"/>
      <point x="243" y="542"/>
      <point x="187" y="531"/>
      <point x="127" y="513" type="curve"/>
    </contour>
  </outline>
</glyph>
<glyph name="o" format="2">
  <advance width="482"/>
  <unicode hex="006F"/>
  <anchor x="237" y="0" name="bottom"/>
  <anchor x="301" y="266" name="center"/>
  <anchor x="373" y="10" name="ogonek"/>
  <anchor x="365" y="532" name="top"/>
  <anchor x="526" y="532" name="topright"/>
  <outline>
    <contour>
      <point x="258" y="-11" type="curve" smooth="yes"/>
      <point x="417" y="-11"/>
      <point x="511" y="190"/>
      <point x="511" y="367" type="curve" smooth="yes"/>
      <point x="511" y="476"/>
      <point x="456" y="543"/>
      <point x="353" y="543" type="curve" smooth="yes"/>
      <point x="193" y="543"/>
      <point x="99" y="343"/>
      <point x="99" y="165" type="curve" smooth="yes"/>
      <point x="99" y="56"/>
      <point x="155" y="-11"/>
    </contour>
    <contour>
      <point x="272" y="103" type="curve" smooth="yes"/>
      <point x="247" y="103"/>
      <point x="239" y="121"/>
      <point x="239" y="154" type="curve" smooth="yes"/>
      <point x="239" y="229"/>
      <point x="271" y="429"/>
      <point x="338" y="429" type="curve" smooth="yes"/>
      <point x="362" y="429"/>
      <point x="371" y="411"/>
      <point x="371" y="378" type="curve" smooth="yes"/>
      <point x="371" y="301"/>
      <point x="338" y="103"/>
    </contour>
  </outline>
</glyph>
<glyph name="p" format="2">
  <advance width="486"/>
  <unicode hex="0070"/>
  <guideline x="144" y="511" angle="0"/>
  <guideline x="400" y="543" angle="0"/>
  <outline>
    <contour>
      <point x="24" y="-185" type="line"/>
      <point x="162" y="-185" type="line"/>
      <point x="205" y="-4" type="line"/>
      <point x="220" y="-11"/>
      <point x="237" y="-14"/>
      <point x="250" y="-14" type="curve" smooth="yes"/>
      <point x="383" y="-14"/>
      <point x="521" y="165"/>
      <point x="521" y="380" type="curve" smooth="yes"/>
      <point x="521" y="480"/>
      <point x="477" y="542"/>
      <point x="351" y="542" type="curve" smooth="yes"/>
      <point x="310" y="542"/>
      <point x="234" y="529"/>
      <point x="192" y="513" type="curve"/>
    </contour>
    <contour>
      <point x="257" y="101" type="curve" smooth="yes"/>
      <point x="251" y="101"/>
      <point x="244" y="101"/>
      <point x="232" y="106" type="curve"/>
      <point x="306" y="417" type="line"/>
      <point x="315" y="422"/>
      <point x="329" y="426"/>
      <point x="342" y="426" type="curve" smooth="yes"/>
      <point x="371" y="426"/>
      <point x="381" y="406"/>
      <point x="381" y="367" type="curve" smooth="yes"/>
      <point x="381" y="232"/>
      <point x="313" y="101"/>
    </contour>
  </outline>
</glyph>
<glyph name="q" format="2">
  <advance width="486"/>
  <unicode hex="0071"/>
  <outline>
    <contour>
      <point x="235" y="-185" type="line"/>
      <point x="373" y="-185" type="line"/>
      <point x="540" y="513" type="line"/>
      <point x="503" y="528"/>
      <point x="432" y="542"/>
      <point x="390" y="542" type="curve" smooth="yes"/>
      <point x="222" y="542"/>
      <point x="96" y="367"/>
      <point x="92" y="156" type="curve" smooth="yes"/>
      <point x="90" y="61"/>
      <point x="128" y="-12"/>
      <point x="223" y="-12" type="curve" smooth="yes"/>
      <point x="243" y="-12"/>
      <point x="263" y="-4"/>
      <point x="280" y="5" type="curve"/>
    </contour>
    <contour>
      <point x="268" y="105" type="curve" smooth="yes"/>
      <point x="237" y="105"/>
      <point x="232" y="127"/>
      <point x="232" y="167" type="curve" smooth="yes"/>
      <point x="232" y="296"/>
      <point x="297" y="429"/>
      <point x="355" y="429" type="curve" smooth="yes"/>
      <point x="364" y="429"/>
      <point x="371" y="428"/>
      <point x="380" y="423" type="curve"/>
      <point x="308" y="121" type="line"/>
      <point x="294" y="109"/>
      <point x="281" y="105"/>
    </contour>
  </outline>
</glyph>
<glyph name="r" format="2">
  <advance width="346"/>
  <unicode hex="0072"/>
  <outline>
    <contour>
      <point x="68" y="0" type="line"/>
      <point x="206" y="0" type="line"/>
      <point x="306" y="417" type="line"/>
      <point x="323" y="422"/>
      <point x="338" y="425"/>
      <point x="353" y="425" type="curve" smooth="yes"/>
      <point x="379" y="425"/>
      <point x="403" y="423"/>
      <point x="420" y="416" type="curve"/>
      <point x="460" y="529" type="line"/>
      <point x="433" y="538"/>
      <point x="401" y="542"/>
      <point x="363" y="542" type="curve" smooth="yes"/>
      <point x="305" y="542"/>
      <point x="250" y="530"/>
      <point x="188" y="501" type="curve"/>
    </contour>
  </outline>
</glyph>
<glyph name="s" format="2">
  <advance width="384"/>
  <unicode hex="0073"/>
  <anchor x="218" y="0" name="bottom"/>
  <anchor x="330" y="532" name="top"/>
  <outline>
    <contour>
      <point x="176" y="-14" type="curve" smooth="yes"/>
      <point x="301" y="-14"/>
      <point x="394" y="64"/>
      <point x="394" y="176" type="curve" smooth="yes"/>
      <point x="394" y="229"/>
      <point x="379" y="261"/>
      <point x="333" y="305" type="curve" smooth="yes"/>
      <point x="294" y="342"/>
      <point x="276" y="357"/>
      <point x="276" y="381" type="curve"/>
      <point x="276" y="411"/>
      <point x="298" y="434"/>
      <point x="338" y="434" type="curve" smooth="yes"/>
      <point x="360" y="434"/>
      <point x="381" y="429"/>
      <point x="406" y="418" type="curve"/>
      <point x="451" y="524" type="line"/>
      <point x="436" y="533"/>
      <point x="398" y="546"/>
      <point x="350" y="546" type="curve" smooth="yes"/>
      <point x="225" y="546"/>
      <point x="137" y="458"/>
      <point x="137" y="349" type="curve" smooth="yes"/>
      <point x="137" y="299"/>
      <point x="158" y="267"/>
      <point x="198" y="233" type="curve" smooth="yes"/>
      <point x="239" y="199"/>
      <point x="254" y="180"/>
      <point x="254" y="155" type="curve" smooth="yes"/>
      <point x="254" y="126"/>
      <point x="235" y="98"/>
      <point x="188" y="98" type="curve"/>
      <point x="160" y="98"/>
      <point x="126" y="108"/>
      <point x="101" y="124" type="curve"/>
      <point x="52" y="17" type="line"/>
      <point x="73" y="2"/>
      <point x="120" y="-14"/>
    </contour>
  </outline>
</glyph>
<glyph name="t" format="2">
  <advance width="353"/>
  <unicode hex="0074"/>
  <outline>
    <contour>
      <point x="238" y="-14" type="curve" smooth="yes"/>
      <point x="276" y="-14"/>
      <point x="321" y="-6"/>
      <point x="351" y="7" type="curve"/>
      <point x="344" y="115" type="line"/>
      <point x="324" y="109"/>
      <point x="302" y="106"/>
      <point x="281" y="106" type="curve"/>
      <point x="234" y="106"/>
      <point x="225" y="129"/>
      <point x="239" y="187" type="curve" smooth="yes"/>
      <point x="294" y="419" type="line"/>
      <point x="414" y="419" type="line"/>
      <point x="441" y="532" type="line"/>
      <point x="322" y="532" type="line"/>
      <point x="357" y="681" type="line"/>
      <point x="214" y="659" type="line"/>
      <point x="103" y="195" type="line" smooth="yes"/>
      <point x="70" y="56"/>
      <point x="99" y="-14"/>
    </contour>
  </outline>
</glyph>
<glyph name="v" format="2">
  <advance width="430"/>
  <unicode hex="0076"/>
  <outline>
    <contour>
      <point x="146" y="0" type="curve"/>
      <point x="286" y="0" type="line"/>
      <point x="363" y="140"/>
      <point x="454" y="324"/>
      <point x="543" y="532" type="curve"/>
      <point x="403" y="532" type="line"/>
      <point x="371" y="439"/>
      <point x="321" y="297"/>
      <point x="252" y="148" type="curve"/>
      <point x="257" y="300"/>
      <point x="264" y="441"/>
      <point x="273" y="532" type="curve"/>
      <point x="139" y="532" type="line"/>
      <point x="130" y="324"/>
      <point x="137" y="140"/>
    </contour>
  </outline>
</glyph>
<glyph name="w" format="2">
  <advance width="631"/>
  <unicode hex="0077"/>
  <outline>
    <contour>
      <point x="140" y="0" type="curve"/>
      <point x="274" y="0" type="line"/>
      <point x="308" y="66"/>
      <point x="347" y="165"/>
      <point x="395" y="302" type="curve"/>
      <point x="392" y="163"/>
      <point x="391" y="66"/>
      <point x="399" y="0" type="curve"/>
      <point x="530" y="0" type="line"/>
      <point x="588" y="125"/>
      <point x="683" y="362"/>
      <point x="729" y="532" type="curve"/>
      <point x="602" y="532" type="line"/>
      <point x="580" y="439"/>
      <point x="538" y="311"/>
      <point x="480" y="148" type="curve"/>
      <point x="485" y="326"/>
      <point x="492" y="442"/>
      <point x="503" y="532" type="curve"/>
      <point x="380" y="532" type="line"/>
      <point x="359" y="442"/>
      <point x="312" y="328"/>
      <point x="246" y="157" type="curve"/>
      <point x="256" y="328"/>
      <point x="268" y="441"/>
      <point x="279" y="532" type="curve"/>
      <point x="142" y="532" type="line"/>
      <point x="133" y="344"/>
      <point x="132" y="106"/>
    </contour>
  </outline>
</glyph>
<glyph name="x" format="2">
  <advance width="423"/>
  <unicode hex="0078"/>
  <outline>
    <contour>
      <point x="13" y="0" type="line"/>
      <point x="157" y="0" type="line"/>
      <point x="261" y="171" type="line"/>
      <point x="272" y="114"/>
      <point x="280" y="54"/>
      <point x="283" y="0" type="curve"/>
      <point x="421" y="0" type="line"/>
      <point x="410" y="83"/>
      <point x="388" y="171"/>
      <point x="359" y="265" type="curve"/>
      <point x="438" y="368"/>
      <point x="488" y="451"/>
      <point x="533" y="532" type="curve"/>
      <point x="393" y="532" type="line"/>
      <point x="371" y="486"/>
      <point x="345" y="434"/>
      <point x="308" y="370" type="curve"/>
      <point x="273" y="532" type="line"/>
      <point x="133" y="532" type="line"/>
      <point x="206" y="280" type="line"/>
    </contour>
  </outline>
</glyph>
<glyph name="y" format="2">
  <advance width="441"/>
  <unicode hex="0079"/>
  <anchor x="157" y="0" name="bottom"/>
  <anchor x="334" y="532" name="top"/>
  <outline>
    <contour>
      <point x="55" y="-188" type="curve" smooth="yes"/>
      <point x="157" y="-188"/>
      <point x="208" y="-146"/>
      <point x="293" y="0" type="curve" smooth="yes"/>
      <point x="378" y="145"/>
      <point x="472" y="341"/>
      <point x="545" y="532" type="curve"/>
      <point x="404" y="532" type="line"/>
      <point x="371" y="433"/>
      <point x="326" y="298"/>
      <point x="263" y="158" type="curve"/>
      <point x="265" y="302"/>
      <point x="271" y="435"/>
      <point x="278" y="532" type="curve"/>
      <point x="143" y="532" type="line"/>
      <point x="137" y="376"/>
      <point x="142" y="212"/>
      <point x="156" y="5" type="curve"/>
      <point x="119" y="-58"/>
      <point x="87" y="-71"/>
      <point x="58" y="-71" type="curve" smooth="yes"/>
      <point x="42" y="-71"/>
      <point x="21" y="-67"/>
      <point x="7" y="-60" type="curve"/>
      <point x="-30" y="-169" type="line"/>
      <point x="-6" y="-181"/>
      <point x="25" y="-188"/>
    </contour>
  </outline>
</glyph>
<glyph name="z" format="2">
  <advance width="372"/>
  <unicode hex="007A"/>
  <outline>
    <contour>
      <point x="35" y="0" type="line"/>
      <point x="351" y="0" type="line"/>
      <point x="378" y="113" type="line"/>
      <point x="210" y="113" type="line"/>
      <point x="277" y="214"/>
      <point x="375" y="349"/>
      <point x="437" y="426" type="curve"/>
      <point x="463" y="532" type="line"/>
      <point x="164" y="532" type="line"/>
      <point x="137" y="419" type="line"/>
      <point x="286" y="419" type="line"/>
      <point x="206" y="316"/>
      <point x="127" y="203"/>
      <point x="58" y="94" type="curve"/>
    </contour>
  </outline>
</glyph>
<glyph name="braceleft" format="2">
  <advance width="330"/>
  <unicode hex="007B"/>
  <outline>
    <contour>
      <point x="251" y="-184" type="curve"/>
      <point x="276" y="-77" type="line"/>
      <point x="228" y="-77"/>
      <point x="220" y="-53"/>
      <point x="229" y="-17" type="curve" smooth="yes"/>
      <point x="269" y="149" type="line" smooth="yes"/>
      <point x="287" y="222"/>
      <point x="276" y="269"/>
      <point x="235" y="299" type="curve"/>
      <point x="290" y="329"/>
      <point x="323" y="377"/>
      <point x="341" y="450" type="curve" smooth="yes"/>
      <point x="381" y="616" type="line" smooth="yes"/>
      <point x="390" y="654"/>
      <point x="410" y="676"/>
      <point x="457" y="676" type="curve"/>
      <point x="483" y="783" type="line"/>
      <point x="339" y="783"/>
      <point x="282" y="732"/>
      <point x="255" y="618" type="curve" smooth="yes"/>
      <point x="220" y="470" type="line" smooth="yes"/>
      <point x="202" y="394"/>
      <point x="178" y="357"/>
      <point x="135" y="353" type="curve"/>
      <point x="109" y="246" type="line"/>
      <point x="149" y="242"/>
      <point x="157" y="204"/>
      <point x="138" y="128" type="curve" smooth="yes"/>
      <point x="102" y="-19" type="line" smooth="yes"/>
      <point x="74" y="-133"/>
      <point x="140" y="-184"/>
    </contour>
  </outline>
</glyph>
<glyph name="bar" format="2">
  <advance width="296"/>
  <unicode hex="007C"/>
  <outline>
    <contour>
      <point x="41" y="-185" type="line"/>
      <point x="167" y="-185" type="line"/>
      <point x="399" y="783" type="line"/>
      <point x="273" y="783" type="line"/>
    </contour>
  </outline>
</glyph>
<glyph name="braceright" format="2">
  <advance width="330"/>
  <unicode hex="007D"/>
  <outline>
    <contour>
      <point x="-9" y="-184" type="line"/>
      <point x="135" y="-184"/>
      <point x="192" y="-133"/>
      <point x="219" y="-19" type="curve" smooth="yes"/>
      <point x="254" y="129" type="line" smooth="yes"/>
      <point x="272" y="205"/>
      <point x="296" y="242"/>
      <point x="339" y="246" type="curve"/>
      <point x="365" y="353" type="line"/>
      <point x="325" y="357"/>
      <point x="317" y="395"/>
      <point x="336" y="471" type="curve" smooth="yes"/>
      <point x="372" y="618" type="line" smooth="yes"/>
      <point x="400" y="732"/>
      <point x="334" y="783"/>
      <point x="223" y="783" type="curve"/>
      <point x="198" y="676" type="line"/>
      <point x="246" y="676"/>
      <point x="254" y="652"/>
      <point x="245" y="616" type="curve" smooth="yes"/>
      <point x="205" y="450" type="line" smooth="yes"/>
      <point x="187" y="377"/>
      <point x="198" y="330"/>
      <point x="239" y="300" type="curve"/>
      <point x="184" y="270"/>
      <point x="151" y="222"/>
      <point x="133" y="149" type="curve" smooth="yes"/>
      <point x="93" y="-17" type="line" smooth="yes"/>
      <point x="84" y="-55"/>
      <point x="64" y="-77"/>
      <point x="17" y="-77" type="curve"/>
    </contour>
  </outline>
</glyph>
<glyph name="asciitilde" format="2">
  <advance width="444"/>
  <unicode hex="007E"/>
  <outline>
    <contour>
      <point x="348" y="207" type="curve" smooth="yes"/>
      <point x="426" y="207"/>
      <point x="480" y="278"/>
      <point x="510" y="371" type="curve"/>
      <point x="423" y="398" type="line"/>
      <point x="399" y="340"/>
      <point x="383" y="330"/>
      <point x="364" y="330" type="curve" smooth="yes"/>
      <point x="329" y="330"/>
      <point x="302" y="398"/>
      <point x="240" y="398" type="curve" smooth="yes"/>
      <point x="162" y="398"/>
      <point x="108" y="327"/>
      <point x="79" y="234" type="curve"/>
      <point x="165" y="207" type="line"/>
      <point x="189" y="265"/>
      <point x="205" y="275"/>
      <point x="225" y="275" type="curve" smooth="yes"/>
      <point x="260" y="275"/>
      <point x="287" y="207"/>
    </contour>
  </outline>
</glyph>
<glyph name="exclamdown" format="2">
  <advance width="258"/>
  <unicode hex="00A1"/>
  <outline>
    <contour>
      <point x="18" y="-174" type="line"/>
      <point x="162" y="-174" type="line"/>
      <point x="205" y="4" type="line" smooth="yes"/>
      <point x="225" y="86"/>
      <point x="241" y="221"/>
      <point x="237" y="298" type="curve"/>
      <point x="169" y="298" type="line"/>
      <point x="127" y="221"/>
      <point x="81" y="86"/>
      <point x="61" y="4" type="curve" smooth="yes"/>
    </contour>
    <contour>
      <point x="227" y="355" type="curve"/>
      <point x="275" y="355"/>
      <point x="324" y="402"/>
      <point x="324" y="461" type="curve"/>
      <point x="324" y="504"/>
      <point x="291" y="532"/>
      <point x="245" y="532" type="curve"/>
      <point x="197" y="532"/>
      <point x="148" y="487"/>
      <point x="148" y="428" type="curve"/>
      <point x="148" y="383"/>
      <point x="181" y="355"/>
    </contour>
  </outline>
</glyph>
<glyph name="cent" format="2">
  <advance width="420"/>
  <unicode hex="00A2"/>
  <outline>
    <contour>
      <point x="74" y="-101" type="line"/>
      <point x="196" y="-101" type="line"/>
      <point x="227" y="31" type="line"/>
      <point x="256" y="33"/>
      <point x="282" y="40"/>
      <point x="311" y="53" type="curve"/>
      <point x="305" y="158" type="line"/>
      <point x="285" y="151"/>
      <point x="267" y="148"/>
      <point x="251" y="148" type="curve" smooth="yes"/>
      <point x="202" y="148"/>
      <point x="176" y="175"/>
      <point x="176" y="229" type="curve" smooth="yes"/>
      <point x="176" y="366"/>
      <point x="228" y="454"/>
      <point x="308" y="454" type="curve" smooth="yes"/>
      <point x="328" y="454"/>
      <point x="351" y="450"/>
      <point x="373" y="439" type="curve"/>
      <point x="416" y="550" type="line"/>
      <point x="398" y="559"/>
      <point x="378" y="564"/>
      <point x="356" y="567" type="curve"/>
      <point x="384" y="685" type="line"/>
      <point x="262" y="685" type="line"/>
      <point x="232" y="559" type="line"/>
      <point x="115" y="519"/>
      <point x="36" y="384"/>
      <point x="36" y="210" type="curve" smooth="yes"/>
      <point x="36" y="136"/>
      <point x="62" y="82"/>
      <point x="110" y="53" type="curve"/>
    </contour>
  </outline>
</glyph>
<glyph name="sterling" format="2">
  <advance width="434"/>
  <unicode hex="00A3"/>
  <outline>
    <contour>
      <point x="56" y="0" type="curve"/>
      <point x="398" y="0" type="line"/>
      <point x="426" y="114" type="line"/>
      <point x="239" y="114" type="line"/>
      <point x="258" y="161"/>
      <point x="278.235" y="226.941"/>
      <point x="292" y="282" type="curve"/>
      <point x="403" y="282" type="line"/>
      <point x="429" y="392" type="line"/>
      <point x="318" y="392" type="line"/>
      <point x="345" y="505" type="line" smooth="yes"/>
      <point x="358" y="558"/>
      <point x="381" y="592"/>
      <point x="429" y="592" type="curve" smooth="yes"/>
      <point x="460" y="592"/>
      <point x="481" y="586"/>
      <point x="498" y="572" type="curve"/>
      <point x="549" y="680" type="line"/>
      <point x="521" y="696"/>
      <point x="486" y="706"/>
      <point x="444" y="706" type="curve" smooth="yes"/>
      <point x="322" y="706"/>
      <point x="238" y="634"/>
      <point x="207" y="504" type="curve" smooth="yes"/>
      <point x="180" y="392" type="line"/>
      <point x="118" y="392" type="line"/>
      <point x="92" y="282" type="line"/>
      <point x="154" y="282" type="line"/>
      <point x="130.235" y="186.941"/>
      <point x="88" y="68"/>
    </contour>
  </outline>
</glyph>
<glyph name="currency" format="2">
  <advance width="420"/>
  <unicode hex="00A4"/>
  <outline>
    <contour>
      <point x="110" y="103" type="line"/>
      <point x="165" y="165" type="line"/>
      <point x="184" y="157"/>
      <point x="206" y="152"/>
      <point x="229" y="152" type="curve" smooth="yes"/>
      <point x="252" y="152"/>
      <point x="274" y="157"/>
      <point x="293" y="165" type="curve"/>
      <point x="348" y="103" type="line"/>
      <point x="431" y="177" type="line"/>
      <point x="372" y="243" type="line"/>
      <point x="386" y="272"/>
      <point x="394" y="307"/>
      <point x="394" y="347" type="curve" smooth="yes"/>
      <point x="394" y="387"/>
      <point x="386" y="423"/>
      <point x="371" y="452" type="curve"/>
      <point x="431" y="518" type="line"/>
      <point x="348" y="592" type="line"/>
      <point x="293" y="530" type="line"/>
      <point x="274" y="538"/>
      <point x="252" y="543"/>
      <point x="229" y="543" type="curve" smooth="yes"/>
      <point x="206" y="543"/>
      <point x="184" y="538"/>
      <point x="165" y="530" type="curve"/>
      <point x="110" y="592" type="line"/>
      <point x="27" y="518" type="line"/>
      <point x="87" y="452" type="line"/>
      <point x="72" y="423"/>
      <point x="64" y="387"/>
      <point x="64" y="347" type="curve" smooth="yes"/>
      <point x="64" y="307"/>
      <point x="72" y="272"/>
      <point x="86" y="243" type="curve"/>
      <point x="27" y="177" type="line"/>
    </contour>
    <contour>
      <point x="229" y="253" type="curve" smooth="yes"/>
      <point x="195" y="253"/>
      <point x="175" y="284"/>
      <point x="175" y="348" type="curve" smooth="yes"/>
      <point x="175" y="411"/>
      <point x="195" y="443"/>
      <point x="229" y="443" type="curve" smooth="yes"/>
      <point x="264" y="443"/>
      <point x="284" y="411"/>
      <point x="284" y="348" type="curve" smooth="yes"/>
      <point x="284" y="284"/>
      <point x="264" y="253"/>
    </contour>
  </outline>
</glyph>
<glyph name="yen" format="2">
  <advance width="434"/>
  <unicode hex="00A5"/>
  <outline>
    <contour>
      <point x="148" y="0" type="line"/>
      <point x="286" y="0" type="line"/>
      <point x="314" y="118" type="line"/>
      <point x="424" y="118" type="line"/>
      <point x="447" y="211" type="line"/>
      <point x="337" y="211" type="line"/>
      <point x="352" y="274" type="line"/>
      <point x="462" y="274" type="line"/>
      <point x="484" y="367" type="line"/>
      <point x="415" y="367" type="line"/>
      <point x="485" y="479"/>
      <point x="549" y="589"/>
      <point x="601" y="693" type="curve"/>
      <point x="459" y="693" type="line"/>
      <point x="419" y="608"/>
      <point x="368" y="507"/>
      <point x="314" y="408" type="curve"/>
      <point x="307" y="509"/>
      <point x="305" y="608"/>
      <point x="305" y="693" type="curve"/>
      <point x="165" y="693" type="line"/>
      <point x="169" y="589"/>
      <point x="179" y="480"/>
      <point x="195" y="367" type="curve"/>
      <point x="126" y="367" type="line"/>
      <point x="104" y="274" type="line"/>
      <point x="214" y="274" type="line"/>
      <point x="199" y="211" type="line"/>
      <point x="89" y="211" type="line"/>
      <point x="66" y="118" type="line"/>
      <point x="176" y="118" type="line"/>
    </contour>
  </outline>
</glyph>
<glyph name="brokenbar" format="2">
  <advance width="296"/>
  <unicode hex="00A6"/>
  <outline>
    <contour>
      <point x="178" y="388" type="line"/>
      <point x="304" y="388" type="line"/>
      <point x="399" y="783" type="line"/>
      <point x="273" y="783" type="line"/>
    </contour>
    <contour>
      <point x="41" y="-185" type="line"/>
      <point x="167" y="-185" type="line"/>
      <point x="262" y="213" type="line"/>
      <point x="136" y="213" type="line"/>
    </contour>
  </outline>
</glyph>
<glyph name="section" format="2">
  <advance width="404"/>
  <unicode hex="00A7"/>
  <outline>
    <contour>
      <point x="168" y="-109" type="curve"/>
      <point x="304" y="-109"/>
      <point x="391" y="-16"/>
      <point x="391" y="73" type="curve" smooth="yes"/>
      <point x="391" y="104"/>
      <point x="377" y="131"/>
      <point x="353" y="159" type="curve"/>
      <point x="418" y="207"/>
      <point x="453" y="278"/>
      <point x="453" y="342" type="curve" smooth="yes"/>
      <point x="453" y="389"/>
      <point x="431" y="422"/>
      <point x="386" y="457" type="curve" smooth="yes"/>
      <point x="334" y="497"/>
      <point x="299" y="517"/>
      <point x="299" y="548" type="curve" smooth="yes"/>
      <point x="299" y="575"/>
      <point x="321" y="594"/>
      <point x="363" y="594" type="curve" smooth="yes"/>
      <point x="400" y="594"/>
      <point x="434" y="585"/>
      <point x="466" y="567" type="curve"/>
      <point x="522" y="673" type="line"/>
      <point x="488" y="694"/>
      <point x="438" y="710"/>
      <point x="382" y="710" type="curve" smooth="yes"/>
      <point x="272" y="710"/>
      <point x="166" y="638"/>
      <point x="166" y="530" type="curve" smooth="yes"/>
      <point x="166" y="504"/>
      <point x="176" y="478"/>
      <point x="197" y="448" type="curve"/>
      <point x="131" y="401"/>
      <point x="95" y="334"/>
      <point x="95" y="267" type="curve" smooth="yes"/>
      <point x="95" y="218"/>
      <point x="117" y="180"/>
      <point x="169" y="146" type="curve" smooth="yes"/>
      <point x="225" y="110"/>
      <point x="256" y="88"/>
      <point x="256" y="63" type="curve" smooth="yes"/>
      <point x="256" y="31"/>
      <point x="231" y="6"/>
      <point x="193" y="6" type="curve"/>
      <point x="154" y="6"/>
      <point x="112" y="14"/>
      <point x="65" y="37" type="curve"/>
      <point x="12" y="-70" type="line"/>
      <point x="50" y="-93"/>
      <point x="109" y="-109"/>
    </contour>
    <contour>
      <point x="283" y="218" type="curve"/>
      <point x="269" y="228" type="line"/>
      <point x="235" y="255"/>
      <point x="222" y="276"/>
      <point x="222" y="302" type="curve" smooth="yes"/>
      <point x="222" y="332"/>
      <point x="239" y="367"/>
      <point x="265" y="387" type="curve"/>
      <point x="277" y="379" type="line"/>
      <point x="313" y="352"/>
      <point x="324" y="332"/>
      <point x="324" y="309" type="curve" smooth="yes"/>
      <point x="324" y="278"/>
      <point x="310" y="245"/>
    </contour>
  </outline>
</glyph>
<glyph name="dieresis" format="2">
  <advance width="388"/>
  <unicode hex="00A8"/>
  <outline>
    <contour>
      <point x="436" y="605" type="curve" smooth="yes"/>
      <point x="479" y="605"/>
      <point x="517" y="644"/>
      <point x="517" y="690" type="curve" smooth="yes"/>
      <point x="517" y="727"/>
      <point x="489" y="751"/>
      <point x="454" y="751" type="curve" smooth="yes"/>
      <point x="412" y="751"/>
      <point x="373" y="715"/>
      <point x="373" y="664" type="curve" smooth="yes"/>
      <point x="373" y="627"/>
      <point x="400" y="605"/>
    </contour>
    <contour>
      <point x="258" y="605" type="curve" smooth="yes"/>
      <point x="301" y="605"/>
      <point x="339" y="644"/>
      <point x="339" y="690" type="curve" smooth="yes"/>
      <point x="339" y="727"/>
      <point x="311" y="751"/>
      <point x="276" y="751" type="curve" smooth="yes"/>
      <point x="234" y="751"/>
      <point x="195" y="715"/>
      <point x="195" y="664" type="curve" smooth="yes"/>
      <point x="195" y="627"/>
      <point x="222" y="605"/>
    </contour>
  </outline>
</glyph>
<glyph name="copyright" format="2">
  <advance width="696"/>
  <unicode hex="00A9"/>
  <outline>
    <contour>
      <point x="367" y="-15" type="curve" smooth="yes"/>
      <point x="552" y="-15"/>
      <point x="670" y="127"/>
      <point x="670" y="348" type="curve"/>
      <point x="670" y="569"/>
      <point x="552" y="710"/>
      <point x="367" y="710" type="curve"/>
      <point x="182" y="710"/>
      <point x="64" y="569"/>
      <point x="64" y="348" type="curve" smooth="yes"/>
      <point x="64" y="127"/>
      <point x="182" y="-15"/>
    </contour>
    <contour>
      <point x="381" y="154" type="curve"/>
      <point x="417" y="154"/>
      <point x="456" y="163"/>
      <point x="481" y="181" type="curve"/>
      <point x="458" y="264" type="line"/>
      <point x="438" y="250"/>
      <point x="419" y="245"/>
      <point x="396" y="245" type="curve"/>
      <point x="350" y="245"/>
      <point x="330" y="279"/>
      <point x="330" y="352" type="curve" smooth="yes"/>
      <point x="330" y="419"/>
      <point x="350" y="454"/>
      <point x="396" y="454" type="curve"/>
      <point x="418" y="454"/>
      <point x="436" y="447"/>
      <point x="451" y="436" type="curve"/>
      <point x="477" y="519" type="line"/>
      <point x="453" y="534"/>
      <point x="414" y="544"/>
      <point x="379" y="544" type="curve" smooth="yes"/>
      <point x="285" y="544"/>
      <point x="226" y="467"/>
      <point x="226" y="349" type="curve" smooth="yes"/>
      <point x="226" y="232"/>
      <point x="280" y="155"/>
    </contour>
    <contour>
      <point x="367" y="73" type="curve" smooth="yes"/>
      <point x="239" y="73"/>
      <point x="157" y="180"/>
      <point x="157" y="348" type="curve"/>
      <point x="157" y="515"/>
      <point x="239" y="622"/>
      <point x="367" y="622" type="curve" smooth="yes"/>
      <point x="495" y="622"/>
      <point x="577" y="515"/>
      <point x="577" y="348" type="curve"/>
      <point x="577" y="180"/>
      <point x="495" y="73"/>
    </contour>
  </outline>
</glyph>
<glyph name="ordfeminine" format="2">
  <advance width="326"/>
  <unicode hex="00AA"/>
  <outline>
    <contour>
      <point x="217" y="306" type="curve" smooth="yes"/>
      <point x="253" y="306"/>
      <point x="284" y="320"/>
      <point x="302" y="334" type="curve"/>
      <point x="306" y="325"/>
      <point x="307" y="316"/>
      <point x="311" y="305" type="curve"/>
      <point x="402" y="319" type="line"/>
      <point x="389" y="362"/>
      <point x="386" y="417"/>
      <point x="400" y="471" type="curve" smooth="yes"/>
      <point x="452" y="675" type="line"/>
      <point x="424" y="690"/>
      <point x="370" y="698"/>
      <point x="339" y="698" type="curve" smooth="yes"/>
      <point x="217" y="698"/>
      <point x="125" y="574"/>
      <point x="125" y="425" type="curve" smooth="yes"/>
      <point x="125" y="359"/>
      <point x="149" y="306"/>
    </contour>
    <contour>
      <point x="258" y="392" type="curve" smooth="yes"/>
      <point x="236" y="392"/>
      <point x="231" y="408"/>
      <point x="231" y="436" type="curve" smooth="yes"/>
      <point x="231" y="525"/>
      <point x="271" y="613"/>
      <point x="312" y="613" type="curve" smooth="yes"/>
      <point x="319" y="613"/>
      <point x="324" y="612"/>
      <point x="330" y="609" type="curve"/>
      <point x="296" y="473" type="line" smooth="yes"/>
      <point x="290" y="448"/>
      <point x="287" y="429"/>
      <point x="287" y="411" type="curve"/>
      <point x="280" y="400"/>
      <point x="269" y="392"/>
    </contour>
  </outline>
</glyph>
<glyph name="logicalnot" format="2">
  <advance width="434"/>
  <unicode hex="00AC"/>
  <outline>
    <contour>
      <point x="306" y="126" type="line"/>
      <point x="420" y="126" type="line"/>
      <point x="488" y="406" type="line"/>
      <point x="141" y="406" type="line"/>
      <point x="114" y="296" type="line"/>
      <point x="347" y="296" type="line"/>
    </contour>
  </outline>
</glyph>
<glyph name="registered" format="2">
  <advance width="696"/>
  <unicode hex="00AE"/>
  <outline>
    <contour>
      <point x="368" y="-15" type="curve" smooth="yes"/>
      <point x="553" y="-15"/>
      <point x="671" y="127"/>
      <point x="671" y="348" type="curve"/>
      <point x="671" y="569"/>
      <point x="553" y="710"/>
      <point x="368" y="710" type="curve"/>
      <point x="183" y="710"/>
      <point x="65" y="569"/>
      <point x="65" y="348" type="curve" smooth="yes"/>
      <point x="65" y="127"/>
      <point x="183" y="-15"/>
    </contour>
    <contour>
      <point x="368" y="73" type="curve" smooth="yes"/>
      <point x="240" y="73"/>
      <point x="158" y="180"/>
      <point x="158" y="348" type="curve"/>
      <point x="158" y="515"/>
      <point x="240" y="622"/>
      <point x="368" y="622" type="curve" smooth="yes"/>
      <point x="496" y="622"/>
      <point x="578" y="515"/>
      <point x="578" y="348" type="curve"/>
      <point x="578" y="180"/>
      <point x="496" y="73"/>
    </contour>
    <contour>
      <point x="258" y="167" type="line"/>
      <point x="348" y="167" type="line"/>
      <point x="348" y="293" type="line"/>
      <point x="361" y="293" type="line"/>
      <point x="363" y="293"/>
      <point x="364" y="293"/>
      <point x="365" y="293" type="curve"/>
      <point x="380" y="264"/>
      <point x="394" y="222"/>
      <point x="412" y="167" type="curve"/>
      <point x="505" y="167" type="line"/>
      <point x="486" y="228"/>
      <point x="473" y="268"/>
      <point x="444" y="320" type="curve"/>
      <point x="474" y="342"/>
      <point x="491" y="374"/>
      <point x="491" y="416" type="curve" smooth="yes"/>
      <point x="491" y="499"/>
      <point x="446" y="540"/>
      <point x="357" y="540" type="curve" smooth="yes"/>
      <point x="333" y="540"/>
      <point x="298" y="535"/>
      <point x="258" y="524" type="curve"/>
    </contour>
    <contour>
      <point x="348" y="367" type="line"/>
      <point x="348" y="459" type="line"/>
      <point x="354" y="460"/>
      <point x="360" y="461"/>
      <point x="365" y="461" type="curve" smooth="yes"/>
      <point x="389" y="461"/>
      <point x="400" y="449"/>
      <point x="400" y="416" type="curve" smooth="yes"/>
      <point x="400" y="377"/>
      <point x="384" y="367"/>
      <point x="356" y="367" type="curve" smooth="yes"/>
    </contour>
  </outline>
</glyph>
<glyph name="macron" format="2">
  <advance width="306"/>
  <unicode hex="00AF"/>
  <outline>
    <contour>
      <point x="182" y="625" type="line"/>
      <point x="425" y="625" type="line"/>
      <point x="449" y="728" type="line"/>
      <point x="206" y="728" type="line"/>
    </contour>
  </outline>
</glyph>
<glyph name="degree" format="2">
  <advance width="317"/>
  <unicode hex="00B0"/>
  <outline>
    <contour>
      <point x="309" y="496" type="curve" smooth="yes"/>
      <point x="370" y="496"/>
      <point x="448" y="543"/>
      <point x="448" y="630" type="curve" smooth="yes"/>
      <point x="448" y="723"/>
      <point x="372" y="764"/>
      <point x="309" y="764" type="curve" smooth="yes"/>
      <point x="249" y="764"/>
      <point x="171" y="718"/>
      <point x="171" y="630" type="curve" smooth="yes"/>
      <point x="171" y="538"/>
      <point x="247" y="496"/>
    </contour>
    <contour>
      <point x="309" y="583" type="curve" smooth="yes"/>
      <point x="287" y="583"/>
      <point x="263" y="597"/>
      <point x="263" y="630" type="curve" smooth="yes"/>
      <point x="263" y="663"/>
      <point x="287" y="678"/>
      <point x="309" y="678" type="curve" smooth="yes"/>
      <point x="331" y="678"/>
      <point x="356" y="663"/>
      <point x="356" y="630" type="curve" smooth="yes"/>
      <point x="356" y="597"/>
      <point x="331" y="583"/>
    </contour>
  </outline>
</glyph>
<glyph name="plusminus" format="2">
  <advance width="434"/>
  <unicode hex="00B1"/>
  <outline>
    <contour>
      <point x="200" y="165" type="line"/>
      <point x="314" y="165" type="line"/>
      <point x="344" y="290" type="line"/>
      <point x="462" y="290" type="line"/>
      <point x="488" y="400" type="line"/>
      <point x="370" y="400" type="line"/>
      <point x="400" y="525" type="line"/>
      <point x="286" y="525" type="line"/>
      <point x="256" y="400" type="line"/>
      <point x="138" y="400" type="line"/>
      <point x="112" y="290" type="line"/>
      <point x="230" y="290" type="line"/>
    </contour>
    <contour>
      <point x="43" y="0" type="line"/>
      <point x="393" y="0" type="line"/>
      <point x="419" y="110" type="line"/>
      <point x="69" y="110" type="line"/>
    </contour>
  </outline>
</glyph>
<glyph name="twosuperior" format="2">
  <advance width="292"/>
  <unicode hex="00B2"/>
  <outline>
    <contour>
      <point x="104" y="298" type="curve"/>
      <point x="334" y="298" type="line"/>
      <point x="355" y="388" type="line"/>
      <point x="241" y="388" type="line"/>
      <point x="259" y="418"/>
      <point x="289" y="444"/>
      <point x="317" y="470" type="curve" smooth="yes"/>
      <point x="357" y="508"/>
      <point x="393" y="547"/>
      <point x="393" y="606" type="curve" smooth="yes"/>
      <point x="393" y="664"/>
      <point x="356" y="701"/>
      <point x="289" y="701" type="curve" smooth="yes"/>
      <point x="241" y="701"/>
      <point x="198" y="688"/>
      <point x="162" y="662" type="curve"/>
      <point x="196" y="589" type="line"/>
      <point x="213" y="603"/>
      <point x="237" y="611"/>
      <point x="256" y="611" type="curve" smooth="yes"/>
      <point x="273" y="611"/>
      <point x="286" y="605"/>
      <point x="286" y="588" type="curve" smooth="yes"/>
      <point x="286" y="559"/>
      <point x="254" y="530"/>
      <point x="217" y="492" type="curve" smooth="yes"/>
      <point x="172" y="446"/>
      <point x="118" y="386"/>
    </contour>
  </outline>
</glyph>
<glyph name="threesuperior" format="2">
  <advance width="282"/>
  <unicode hex="00B3"/>
  <outline>
    <contour>
      <point x="198" y="290" type="curve" smooth="yes"/>
      <point x="288" y="290"/>
      <point x="359" y="357"/>
      <point x="359" y="437" type="curve" smooth="yes"/>
      <point x="359" y="467"/>
      <point x="344" y="493"/>
      <point x="314" y="506" type="curve"/>
      <point x="367" y="533"/>
      <point x="393" y="570"/>
      <point x="393" y="615" type="curve" smooth="yes"/>
      <point x="393" y="675"/>
      <point x="348" y="700"/>
      <point x="288" y="700" type="curve" smooth="yes"/>
      <point x="252" y="700"/>
      <point x="211" y="693"/>
      <point x="170" y="672" type="curve"/>
      <point x="188" y="593" type="line"/>
      <point x="212" y="606"/>
      <point x="234" y="613"/>
      <point x="251" y="613" type="curve" smooth="yes"/>
      <point x="274" y="613"/>
      <point x="285" y="604"/>
      <point x="285" y="586" type="curve" smooth="yes"/>
      <point x="285" y="563"/>
      <point x="268" y="542"/>
      <point x="222" y="542" type="curve" smooth="yes"/>
      <point x="198" y="542" type="line"/>
      <point x="179" y="462" type="line"/>
      <point x="207" y="462" type="line" smooth="yes"/>
      <point x="243" y="462"/>
      <point x="259" y="451"/>
      <point x="259" y="430" type="curve" smooth="yes"/>
      <point x="259" y="401"/>
      <point x="239" y="379"/>
      <point x="200" y="379" type="curve" smooth="yes"/>
      <point x="174" y="379"/>
      <point x="150" y="385"/>
      <point x="130" y="397" type="curve"/>
      <point x="92" y="317" type="line"/>
      <point x="120" y="299"/>
      <point x="153" y="290"/>
    </contour>
  </outline>
</glyph>
<glyph name="acute" format="2">
  <advance width="300"/>
  <unicode hex="00B4"/>
  <outline>
    <contour>
      <point x="256" y="578" type="line"/>
      <point x="423" y="710" type="line"/>
      <point x="348" y="785" type="line"/>
      <point x="200" y="636" type="line"/>
    </contour>
  </outline>
</glyph>
<glyph name="micro" format="2">
  <advance width="501"/>
  <unicode hex="00B5"/>
  <outline>
    <contour>
      <point x="13" y="-185" type="line"/>
      <point x="146" y="-185" type="line"/>
      <point x="158" y="-136" type="line" smooth="yes"/>
      <point x="171" y="-83"/>
      <point x="177" y="-31"/>
      <point x="180" y="7" type="curve"/>
      <point x="192" y="-2"/>
      <point x="220" y="-9"/>
      <point x="251" y="-9" type="curve" smooth="yes"/>
      <point x="292" y="-8"/>
      <point x="328" y="8"/>
      <point x="349" y="26" type="curve"/>
      <point x="353" y="13"/>
      <point x="359" y="-1"/>
      <point x="363" y="-11" type="curve"/>
      <point x="482" y="9" type="line"/>
      <point x="461" y="72"/>
      <point x="459" y="153"/>
      <point x="476" y="223" type="curve" smooth="yes"/>
      <point x="550" y="532" type="line"/>
      <point x="412" y="532" type="line"/>
      <point x="337" y="219" type="line" smooth="yes"/>
      <point x="330" y="189"/>
      <point x="326" y="160"/>
      <point x="325" y="133" type="curve"/>
      <point x="315" y="117"/>
      <point x="299" y="105"/>
      <point x="281" y="105" type="curve" smooth="yes"/>
      <point x="238" y="105"/>
      <point x="228" y="139"/>
      <point x="249" y="225" type="curve" smooth="yes"/>
      <point x="323" y="532" type="line"/>
      <point x="185" y="532" type="line"/>
    </contour>
  </outline>
</glyph>
<glyph name="paragraph" format="2">
  <advance width="559"/>
  <unicode hex="00B6"/>
  <outline>
    <contour>
      <point x="140" y="-185" type="line"/>
      <point x="260" y="-185" type="line"/>
      <point x="446" y="590" type="line"/>
      <point x="465" y="590"/>
      <point x="490" y="588"/>
      <point x="504" y="586" type="curve"/>
      <point x="319" y="-185" type="line"/>
      <point x="438" y="-185" type="line"/>
      <point x="644" y="675" type="line"/>
      <point x="593" y="691"/>
      <point x="517" y="701"/>
      <point x="447" y="701" type="curve" smooth="yes"/>
      <point x="243" y="701"/>
      <point x="131" y="562"/>
      <point x="131" y="411" type="curve" smooth="yes"/>
      <point x="131" y="327"/>
      <point x="170" y="276"/>
      <point x="246" y="260" type="curve"/>
    </contour>
  </outline>
</glyph>
<glyph name="cedilla" format="2">
  <advance width="283"/>
  <unicode hex="00B8"/>
  <outline>
    <contour>
      <point x="68" y="-210" type="curve" smooth="yes"/>
      <point x="155" y="-210"/>
      <point x="212" y="-167"/>
      <point x="212" y="-101" type="curve" smooth="yes"/>
      <point x="212" y="-77"/>
      <point x="202" y="-55"/>
      <point x="173" y="-39" type="curve"/>
      <point x="191" y="-10"/>
      <point x="203" y="9"/>
      <point x="209" y="20" type="curve"/>
      <point x="123" y="20" type="line"/>
      <point x="111" y="4"/>
      <point x="83" y="-42"/>
      <point x="68" y="-71" type="curve"/>
      <point x="97" y="-75"/>
      <point x="111" y="-84"/>
      <point x="111" y="-99" type="curve" smooth="yes"/>
      <point x="111" y="-114"/>
      <point x="97" y="-126"/>
      <point x="71" y="-126" type="curve" smooth="yes"/>
      <point x="56" y="-126"/>
      <point x="38" y="-123"/>
      <point x="25" y="-117" type="curve"/>
      <point x="-5" y="-198" type="line"/>
      <point x="19" y="-206"/>
      <point x="45" y="-210"/>
    </contour>
  </outline>
</glyph>
<glyph name="onesuperior" format="2">
  <advance width="282"/>
  <unicode hex="00B9"/>
  <outline>
    <contour>
      <point x="184" y="298" type="line"/>
      <point x="284" y="298" type="line"/>
      <point x="381" y="693" type="line"/>
      <point x="305" y="693" type="line"/>
      <point x="267" y="668"/>
      <point x="220" y="643"/>
      <point x="164" y="622" type="curve"/>
      <point x="195" y="544" type="line"/>
      <point x="213" y="549"/>
      <point x="233" y="557"/>
      <point x="250" y="566" type="curve"/>
    </contour>
  </outline>
</glyph>
<glyph name="ordmasculine" format="2">
  <advance width="316"/>
  <unicode hex="00BA"/>
  <outline>
    <contour>
      <point x="243" y="305" type="curve" smooth="yes"/>
      <point x="360" y="305"/>
      <point x="430" y="448"/>
      <point x="430" y="573" type="curve" smooth="yes"/>
      <point x="430" y="650"/>
      <point x="389" y="698"/>
      <point x="314" y="698" type="curve" smooth="yes"/>
      <point x="197" y="698"/>
      <point x="127" y="556"/>
      <point x="127" y="430" type="curve" smooth="yes"/>
      <point x="127" y="353"/>
      <point x="169" y="305"/>
    </contour>
    <contour>
      <point x="254" y="386" type="curve" smooth="yes"/>
      <point x="238" y="386"/>
      <point x="233" y="399"/>
      <point x="233" y="422" type="curve" smooth="yes"/>
      <point x="233" y="475"/>
      <point x="256" y="617"/>
      <point x="303" y="617" type="curve" smooth="yes"/>
      <point x="318" y="617"/>
      <point x="323" y="604"/>
      <point x="323" y="581" type="curve" smooth="yes"/>
      <point x="323" y="526"/>
      <point x="300" y="386"/>
    </contour>
  </outline>
</glyph>
<glyph name="Aring" format="2">
  <advance width="518"/>
  <unicode hex="00C5"/>
  <outline>
    <contour>
      <point x="15" y="0" type="curve"/>
      <point x="157" y="0" type="line"/>
      <point x="172" y="42"/>
      <point x="191" y="91"/>
      <point x="214" y="146" type="curve"/>
      <point x="372" y="146" type="line"/>
      <point x="370" y="90"/>
      <point x="367" y="41"/>
      <point x="363" y="0" type="curve"/>
      <point x="507" y="0" type="line"/>
      <point x="518" y="259"/>
      <point x="507" y="487"/>
      <point x="497" y="666" type="curve"/>
      <point x="517" y="683"/>
      <point x="529" y="710"/>
      <point x="529" y="740" type="curve" smooth="yes"/>
      <point x="529" y="795"/>
      <point x="486" y="837"/>
      <point x="429" y="837" type="curve" smooth="yes"/>
      <point x="374" y="837"/>
      <point x="332" y="795"/>
      <point x="332" y="740" type="curve" smooth="yes"/>
      <point x="332" y="720"/>
      <point x="338" y="701"/>
      <point x="348" y="686" type="curve"/>
      <point x="246" y="504"/>
      <point x="125" y="268"/>
    </contour>
    <contour>
      <point x="263" y="261" type="line"/>
      <point x="297" y="338"/>
      <point x="336" y="425"/>
      <point x="380" y="519" type="curve"/>
      <point x="379" y="425"/>
      <point x="377" y="338"/>
      <point x="375" y="261" type="curve"/>
    </contour>
    <contour>
      <point x="431" y="701" type="curve" smooth="yes"/>
      <point x="407" y="701"/>
      <point x="392" y="716"/>
      <point x="392" y="740" type="curve" smooth="yes"/>
      <point x="392" y="764"/>
      <point x="407" y="779"/>
      <point x="431" y="779" type="curve" smooth="yes"/>
      <point x="456" y="779"/>
      <point x="471" y="764"/>
      <point x="471" y="740" type="curve"/>
      <point x="471" y="716"/>
      <point x="456" y="701"/>
    </contour>
  </outline>
</glyph>
<glyph name="AE" format="2">
  <advance width="787"/>
  <unicode hex="00C6"/>
  <anchor x="330" y="0" name="bottom"/>
  <anchor x="632" y="681" name="top"/>
  <outline>
    <contour>
      <point x="5" y="0" type="curve"/>
      <point x="147" y="0" type="line"/>
      <point x="169" y="41"/>
      <point x="201" y="94"/>
      <point x="237" y="151" type="curve"/>
      <point x="413" y="151" type="line"/>
      <point x="377" y="0" type="line"/>
      <point x="743" y="0" type="line"/>
      <point x="772" y="119" type="line"/>
      <point x="547" y="119" type="line"/>
      <point x="592" y="306" type="line"/>
      <point x="779" y="306" type="line"/>
      <point x="807" y="421" type="line"/>
      <point x="620" y="421" type="line"/>
      <point x="657" y="574" type="line"/>
      <point x="860" y="574" type="line"/>
      <point x="888" y="693" type="line"/>
      <point x="487" y="693" type="line"/>
      <point x="315" y="476"/>
      <point x="175" y="281"/>
    </contour>
    <contour>
      <point x="313" y="266" type="line"/>
      <point x="373" y="356"/>
      <point x="436" y="447"/>
      <point x="509" y="548" type="curve"/>
      <point x="441" y="266" type="line"/>
    </contour>
  </outline>
</glyph>
<glyph name="Ccedilla" format="2">
  <advance width="484"/>
  <unicode hex="00C7"/>
  <outline>
    <contour>
      <point x="223" y="-210" type="curve" smooth="yes"/>
      <point x="310" y="-210"/>
      <point x="367" y="-167"/>
      <point x="367" y="-101" type="curve" smooth="yes"/>
      <point x="367" y="-77"/>
      <point x="357" y="-55"/>
      <point x="328" y="-39" type="curve"/>
      <point x="334" y="-30"/>
      <point x="339" y="-21"/>
      <point x="344" y="-13" type="curve"/>
      <point x="394" y="-11"/>
      <point x="440" y="1"/>
      <point x="474" y="20" type="curve"/>
      <point x="468" y="139" type="line"/>
      <point x="437" y="119"/>
      <point x="400" y="110"/>
      <point x="368" y="110" type="curve" smooth="yes"/>
      <point x="315" y="110"/>
      <point x="271" y="139"/>
      <point x="271" y="220" type="curve" smooth="yes"/>
      <point x="271" y="484"/>
      <point x="371" y="585"/>
      <point x="465" y="585" type="curve" smooth="yes"/>
      <point x="496" y="585"/>
      <point x="525" y="579"/>
      <point x="550" y="565" type="curve"/>
      <point x="597" y="681" type="line"/>
      <point x="568" y="698"/>
      <point x="520" y="707"/>
      <point x="468" y="707" type="curve"/>
      <point x="262" y="707"/>
      <point x="125" y="496"/>
      <point x="125" y="231" type="curve" smooth="yes"/>
      <point x="125" y="101"/>
      <point x="166" y="18"/>
      <point x="260" y="-6" type="curve"/>
      <point x="248" y="-27"/>
      <point x="233" y="-52"/>
      <point x="223" y="-71" type="curve"/>
      <point x="252" y="-75"/>
      <point x="266" y="-84"/>
      <point x="266" y="-99" type="curve" smooth="yes"/>
      <point x="266" y="-114"/>
      <point x="252" y="-126"/>
      <point x="226" y="-126" type="curve" smooth="yes"/>
      <point x="211" y="-126"/>
      <point x="193" y="-123"/>
      <point x="180" y="-117" type="curve"/>
      <point x="150" y="-198" type="line"/>
      <point x="174" y="-206"/>
      <point x="200" y="-210"/>
    </contour>
  </outline>
</glyph>
<glyph name="multiply" format="2">
  <advance width="434"/>
  <unicode hex="00D7"/>
  <outline>
    <contour>
      <point x="149" y="120" type="line"/>
      <point x="278" y="224" type="line"/>
      <point x="357" y="120" type="line"/>
      <point x="450" y="194" type="line"/>
      <point x="371" y="298" type="line"/>
      <point x="500" y="403" type="line"/>
      <point x="433" y="489" type="line"/>
      <point x="304" y="385" type="line"/>
      <point x="225" y="489" type="line"/>
      <point x="132" y="415" type="line"/>
      <point x="211" y="310" type="line"/>
      <point x="82" y="206" type="line"/>
    </contour>
  </outline>
</glyph>
<glyph name="Oslash" format="2">
  <advance width="607"/>
  <unicode hex="00D8"/>
  <anchor x="395" y="681" name="top"/>
  <outline>
    <contour>
      <point x="80" y="-38" type="line"/>
      <point x="131" y="28" type="line"/>
      <point x="163" y="1"/>
      <point x="206" y="-13"/>
      <point x="262" y="-13" type="curve" smooth="yes"/>
      <point x="465" y="-13"/>
      <point x="585" y="243"/>
      <point x="585" y="468" type="curve" smooth="yes"/>
      <point x="585" y="515"/>
      <point x="579" y="557"/>
      <point x="566" y="591" type="curve"/>
      <point x="634" y="679" type="line"/>
      <point x="562" y="727" type="line"/>
      <point x="515" y="666" type="line"/>
      <point x="483" y="693"/>
      <point x="440" y="707"/>
      <point x="385" y="707" type="curve" smooth="yes"/>
      <point x="180" y="707"/>
      <point x="60" y="452"/>
      <point x="60" y="225" type="curve" smooth="yes"/>
      <point x="60" y="178"/>
      <point x="66" y="137"/>
      <point x="79" y="102" type="curve"/>
      <point x="8" y="10" type="line"/>
    </contour>
    <contour>
      <point x="274" y="110" type="curve" smooth="yes"/>
      <point x="247" y="110"/>
      <point x="229" y="121"/>
      <point x="219" y="142" type="curve"/>
      <point x="435" y="421" type="line"/>
      <point x="435" y="421"/>
      <point x="435" y="421"/>
      <point x="435" y="421" type="curve"/>
      <point x="422" y="300"/>
      <point x="368" y="110"/>
    </contour>
    <contour>
      <point x="209" y="270" type="line"/>
      <point x="209" y="270"/>
      <point x="209" y="270"/>
      <point x="209" y="270" type="curve" smooth="yes"/>
      <point x="221" y="387"/>
      <point x="272" y="585"/>
      <point x="369" y="585" type="curve" smooth="yes"/>
      <point x="396" y="585"/>
      <point x="414" y="572"/>
      <point x="425" y="549" type="curve"/>
    </contour>
  </outline>
</glyph>
<glyph name="Thorn" format="2">
  <advance width="499"/>
  <unicode hex="00DE"/>
  <outline>
    <contour>
      <point x="70" y="0" type="line"/>
      <point x="212" y="0" type="line"/>
      <point x="244" y="133" type="line"/>
      <point x="267" y="133" type="line" smooth="yes"/>
      <point x="444" y="133"/>
      <point x="571" y="248"/>
      <point x="571" y="423" type="curve" smooth="yes"/>
      <point x="571" y="534"/>
      <point x="501" y="597"/>
      <point x="377" y="597" type="curve"/>
      <point x="370" y="597"/>
      <point x="362" y="597"/>
      <point x="355" y="597" type="curve"/>
      <point x="378" y="693" type="line"/>
      <point x="236" y="693" type="line"/>
    </contour>
    <contour>
      <point x="272" y="251" type="line"/>
      <point x="325" y="472" type="line"/>
      <point x="337" y="476"/>
      <point x="346" y="477"/>
      <point x="355" y="477" type="curve" smooth="yes"/>
      <point x="401" y="477"/>
      <point x="427" y="453"/>
      <point x="427" y="405" type="curve" smooth="yes"/>
      <point x="427" y="303"/>
      <point x="380" y="251"/>
      <point x="288" y="251" type="curve" smooth="yes"/>
    </contour>
  </outline>
</glyph>
<glyph name="germandbls" format="2">
  <advance width="529"/>
  <unicode hex="00DF"/>
  <outline>
    <contour>
      <point x="103" y="-189" type="line"/>
      <point x="155" y="-137"/>
      <point x="197" y="-48"/>
      <point x="241" y="137" type="curve" smooth="yes"/>
      <point x="340" y="549" type="line" smooth="yes"/>
      <point x="359" y="629"/>
      <point x="382" y="659"/>
      <point x="427" y="659" type="curve" smooth="yes"/>
      <point x="446" y="659"/>
      <point x="465" y="647"/>
      <point x="465" y="620" type="curve" smooth="yes"/>
      <point x="466" y="521"/>
      <point x="340" y="497"/>
      <point x="340" y="376" type="curve" smooth="yes"/>
      <point x="340" y="331"/>
      <point x="366" y="292"/>
      <point x="388" y="253" type="curve" smooth="yes"/>
      <point x="406" y="224"/>
      <point x="421" y="195"/>
      <point x="421" y="166" type="curve" smooth="yes"/>
      <point x="421" y="122"/>
      <point x="388" y="98"/>
      <point x="343" y="98" type="curve" smooth="yes"/>
      <point x="327" y="98"/>
      <point x="310" y="101"/>
      <point x="293" y="107" type="curve"/>
      <point x="246" y="2" type="line"/>
      <point x="278" y="-8"/>
      <point x="309" y="-12"/>
      <point x="338" y="-12" type="curve" smooth="yes"/>
      <point x="464" y="-12"/>
      <point x="556" y="74"/>
      <point x="556" y="181" type="curve" smooth="yes"/>
      <point x="556" y="228"/>
      <point x="536" y="265"/>
      <point x="516" y="298" type="curve" smooth="yes"/>
      <point x="495" y="332"/>
      <point x="475" y="363"/>
      <point x="475" y="398" type="curve" smooth="yes"/>
      <point x="475" y="474"/>
      <point x="602" y="528"/>
      <point x="602" y="651" type="curve" smooth="yes"/>
      <point x="602" y="741"/>
      <point x="533" y="776"/>
      <point x="443" y="776" type="curve" smooth="yes"/>
      <point x="340" y="776"/>
      <point x="243" y="719"/>
      <point x="207" y="566" type="curve" smooth="yes"/>
      <point x="98" y="113" type="line" smooth="yes"/>
      <point x="76" y="20"/>
      <point x="36" y="-102"/>
      <point x="-23" y="-169" type="curve"/>
    </contour>
  </outline>
</glyph>
<glyph name="ae" format="2">
  <advance width="663"/>
  <unicode hex="00E6"/>
  <anchor x="260" y="0" name="bottom"/>
  <anchor x="388" y="532" name="top"/>
  <outline>
    <contour>
      <point x="140" y="-14" type="curve" smooth="yes"/>
      <point x="198" y="-14"/>
      <point x="247" y="12"/>
      <point x="290" y="53" type="curve"/>
      <point x="318" y="13"/>
      <point x="363" y="-14"/>
      <point x="435" y="-14" type="curve" smooth="yes"/>
      <point x="490" y="-14"/>
      <point x="529" y="-2"/>
      <point x="565" y="14" type="curve"/>
      <point x="558" y="118" type="line"/>
      <point x="533" y="105"/>
      <point x="503" y="100"/>
      <point x="473" y="100" type="curve" smooth="yes"/>
      <point x="422" y="100"/>
      <point x="394" y="118"/>
      <point x="394" y="181" type="curve" smooth="yes"/>
      <point x="394" y="183"/>
      <point x="394" y="186"/>
      <point x="394" y="188" type="curve"/>
      <point x="537" y="198"/>
      <point x="649" y="253"/>
      <point x="656" y="408" type="curve" smooth="yes"/>
      <point x="660" y="494"/>
      <point x="609" y="546"/>
      <point x="523" y="546" type="curve" smooth="yes"/>
      <point x="465" y="546"/>
      <point x="416" y="520"/>
      <point x="373" y="479" type="curve"/>
      <point x="345" y="519"/>
      <point x="301" y="546"/>
      <point x="228" y="546" type="curve" smooth="yes"/>
      <point x="173" y="546"/>
      <point x="134" y="534"/>
      <point x="98" y="518" type="curve"/>
      <point x="105" y="414" type="line"/>
      <point x="130" y="427"/>
      <point x="160" y="432"/>
      <point x="190" y="432" type="curve" smooth="yes"/>
      <point x="241" y="432"/>
      <point x="269" y="414"/>
      <point x="269" y="351" type="curve" smooth="yes"/>
      <point x="269" y="349"/>
      <point x="269" y="346"/>
      <point x="269" y="344" type="curve"/>
      <point x="126" y="334"/>
      <point x="14" y="279"/>
      <point x="7" y="124" type="curve" smooth="yes"/>
      <point x="3" y="38"/>
      <point x="54" y="-14"/>
    </contour>
    <contour>
      <point x="166" y="98" type="curve" smooth="yes"/>
      <point x="144" y="98"/>
      <point x="135" y="112"/>
      <point x="135" y="136" type="curve" smooth="yes"/>
      <point x="135" y="176"/>
      <point x="159" y="233"/>
      <point x="262" y="246" type="curve"/>
      <point x="246" y="155"/>
      <point x="205" y="98"/>
    </contour>
    <contour>
      <point x="401" y="286" type="curve"/>
      <point x="417" y="377"/>
      <point x="458" y="434"/>
      <point x="497" y="434" type="curve" smooth="yes"/>
      <point x="519" y="434"/>
      <point x="528" y="420"/>
      <point x="528" y="396" type="curve" smooth="yes"/>
      <point x="528" y="356"/>
      <point x="504" y="299"/>
    </contour>
  </outline>
</glyph>
<glyph name="ccedilla" format="2">
  <advance width="377"/>
  <unicode hex="00E7"/>
  <outline>
    <contour>
      <point x="98" y="-210" type="curve" smooth="yes"/>
      <point x="185" y="-210"/>
      <point x="242" y="-167"/>
      <point x="242" y="-101" type="curve" smooth="yes"/>
      <point x="242" y="-77"/>
      <point x="232" y="-55"/>
      <point x="203" y="-39" type="curve"/>
      <point x="209" y="-29"/>
      <point x="215" y="-21"/>
      <point x="219" y="-13" type="curve"/>
      <point x="248" y="-11"/>
      <point x="275" y="-4"/>
      <point x="304" y="9" type="curve"/>
      <point x="298" y="114" type="line"/>
      <point x="278" y="107"/>
      <point x="260" y="104"/>
      <point x="244" y="104" type="curve" smooth="yes"/>
      <point x="201" y="104"/>
      <point x="177" y="130"/>
      <point x="177" y="183" type="curve" smooth="yes"/>
      <point x="177" y="333"/>
      <point x="225" y="429"/>
      <point x="301" y="429" type="curve" smooth="yes"/>
      <point x="321" y="429"/>
      <point x="344" y="425"/>
      <point x="366" y="414" type="curve"/>
      <point x="409" y="525" type="line"/>
      <point x="377" y="540"/>
      <point x="340" y="546"/>
      <point x="299" y="546" type="curve"/>
      <point x="147" y="546"/>
      <point x="37" y="385"/>
      <point x="37" y="164" type="curve" smooth="yes"/>
      <point x="37" y="76"/>
      <point x="73" y="17"/>
      <point x="136" y="-5" type="curve"/>
      <point x="124" y="-25"/>
      <point x="108" y="-52"/>
      <point x="98" y="-71" type="curve"/>
      <point x="127" y="-75"/>
      <point x="141" y="-84"/>
      <point x="141" y="-99" type="curve" smooth="yes"/>
      <point x="141" y="-114"/>
      <point x="127" y="-126"/>
      <point x="101" y="-126" type="curve" smooth="yes"/>
      <point x="86" y="-126"/>
      <point x="68" y="-123"/>
      <point x="55" y="-117" type="curve"/>
      <point x="25" y="-198" type="line"/>
      <point x="49" y="-206"/>
      <point x="75" y="-210"/>
    </contour>
  </outline>
</glyph>
<glyph name="eth" format="2">
  <advance width="478"/>
  <unicode hex="00F0"/>
  <outline>
    <contour>
      <point x="248" y="-14" type="curve" smooth="yes"/>
      <point x="423" y="-14"/>
      <point x="519" y="207"/>
      <point x="519" y="459" type="curve" smooth="yes"/>
      <point x="519" y="520"/>
      <point x="511" y="574"/>
      <point x="496" y="623" type="curve"/>
      <point x="576" y="658" type="line"/>
      <point x="547" y="733" type="line"/>
      <point x="467" y="699" type="line"/>
      <point x="453" y="727"/>
      <point x="438" y="753"/>
      <point x="422" y="776" type="curve"/>
      <point x="307" y="716" type="line"/>
      <point x="322" y="695"/>
      <point x="335" y="671"/>
      <point x="345" y="647" type="curve"/>
      <point x="262" y="611" type="line"/>
      <point x="292" y="535" type="line"/>
      <point x="370" y="569" type="line"/>
      <point x="376" y="540"/>
      <point x="379" y="514"/>
      <point x="380" y="483" type="curve" smooth="yes"/>
      <point x="380" y="483"/>
      <point x="380" y="482"/>
      <point x="380" y="482" type="curve"/>
      <point x="367" y="487"/>
      <point x="353" y="489"/>
      <point x="338" y="489" type="curve" smooth="yes"/>
      <point x="191" y="489"/>
      <point x="85" y="333"/>
      <point x="85" y="156" type="curve" smooth="yes"/>
      <point x="85" y="46"/>
      <point x="144" y="-14"/>
    </contour>
    <contour>
      <point x="264" y="105" type="curve" smooth="yes"/>
      <point x="240" y="105"/>
      <point x="226" y="124"/>
      <point x="226" y="167" type="curve" smooth="yes"/>
      <point x="226" y="255"/>
      <point x="261" y="379"/>
      <point x="330" y="379" type="curve" smooth="yes"/>
      <point x="345" y="379"/>
      <point x="356" y="377"/>
      <point x="366" y="373" type="curve"/>
      <point x="346" y="208"/>
      <point x="306" y="105"/>
    </contour>
  </outline>
</glyph>
<glyph name="divide" format="2">
  <advance width="444"/>
  <unicode hex="00F7"/>
  <outline>
    <contour>
      <point x="106" y="246" type="line"/>
      <point x="456" y="246" type="line"/>
      <point x="482" y="356" type="line"/>
      <point x="132" y="356" type="line"/>
    </contour>
    <contour>
      <point x="249" y="62" type="curve" smooth="yes"/>
      <point x="297" y="62"/>
      <point x="331" y="98"/>
      <point x="331" y="150" type="curve" smooth="yes"/>
      <point x="331" y="186"/>
      <point x="303" y="211"/>
      <point x="264" y="211" type="curve" smooth="yes"/>
      <point x="216" y="211"/>
      <point x="182" y="174"/>
      <point x="182" y="122" type="curve" smooth="yes"/>
      <point x="182" y="87"/>
      <point x="210" y="62"/>
    </contour>
    <contour>
      <point x="323" y="391" type="curve" smooth="yes"/>
      <point x="371" y="391"/>
      <point x="405" y="427"/>
      <point x="405" y="479" type="curve" smooth="yes"/>
      <point x="405" y="515"/>
      <point x="377" y="540"/>
      <point x="338" y="540" type="curve" smooth="yes"/>
      <point x="290" y="540"/>
      <point x="256" y="503"/>
      <point x="256" y="451" type="curve" smooth="yes"/>
      <point x="256" y="416"/>
      <point x="284" y="391"/>
    </contour>
  </outline>
</glyph>
<glyph name="oslash" format="2">
  <advance width="482"/>
  <unicode hex="00F8"/>
  <outline>
    <contour>
      <point x="126" y="-39" type="line"/>
      <point x="168" y="12" type="line"/>
      <point x="192" y="-3"/>
      <point x="222" y="-11"/>
      <point x="258" y="-11" type="curve" smooth="yes"/>
      <point x="417" y="-11"/>
      <point x="511" y="190"/>
      <point x="511" y="367" type="curve" smooth="yes"/>
      <point x="511" y="399"/>
      <point x="506" y="428"/>
      <point x="497" y="452" type="curve"/>
      <point x="551" y="518" type="line"/>
      <point x="488" y="570" type="line"/>
      <point x="445" y="518" type="line"/>
      <point x="421" y="534"/>
      <point x="390" y="543"/>
      <point x="353" y="543" type="curve" smooth="yes"/>
      <point x="193" y="543"/>
      <point x="99" y="343"/>
      <point x="99" y="165" type="curve" smooth="yes"/>
      <point x="99" y="132"/>
      <point x="104" y="103"/>
      <point x="114" y="79" type="curve"/>
      <point x="61" y="14" type="line"/>
    </contour>
    <contour>
      <point x="269" y="95" type="curve" smooth="yes"/>
      <point x="252" y="95"/>
      <point x="241" y="99"/>
      <point x="233" y="108" type="curve"/>
      <point x="385" y="320" type="line"/>
      <point x="385" y="320"/>
      <point x="385" y="320"/>
      <point x="385" y="320" type="curve"/>
      <point x="372" y="216"/>
      <point x="335" y="95"/>
    </contour>
    <contour>
      <point x="229" y="221" type="line"/>
      <point x="229" y="221"/>
      <point x="229" y="221"/>
      <point x="229" y="221" type="curve" smooth="yes"/>
      <point x="242" y="318"/>
      <point x="280" y="437"/>
      <point x="346" y="437" type="curve" smooth="yes"/>
      <point x="360" y="437"/>
      <point x="370" y="434"/>
      <point x="376" y="427" type="curve"/>
    </contour>
  </outline>
</glyph>
<glyph name="thorn" format="2">
  <advance width="486"/>
  <unicode hex="00FE"/>
  <outline>
    <contour>
      <point x="24" y="-185" type="line"/>
      <point x="162" y="-185" type="line"/>
      <point x="205" y="-6" type="line"/>
      <point x="217" y="-11"/>
      <point x="235" y="-14"/>
      <point x="250" y="-14" type="curve" smooth="yes"/>
      <point x="383" y="-14"/>
      <point x="521" y="165"/>
      <point x="521" y="380" type="curve" smooth="yes"/>
      <point x="521" y="480"/>
      <point x="477" y="542"/>
      <point x="351" y="542" type="curve" smooth="yes"/>
      <point x="346" y="542"/>
      <point x="341" y="542"/>
      <point x="336" y="542" type="curve"/>
      <point x="392" y="776" type="line"/>
      <point x="249" y="754" type="line"/>
    </contour>
    <contour>
      <point x="255" y="101" type="curve" smooth="yes"/>
      <point x="249" y="101"/>
      <point x="240" y="102"/>
      <point x="231" y="105" type="curve"/>
      <point x="307" y="420" type="line"/>
      <point x="321" y="425"/>
      <point x="331" y="426"/>
      <point x="342" y="426" type="curve" smooth="yes"/>
      <point x="371" y="426"/>
      <point x="381" y="406"/>
      <point x="381" y="367" type="curve" smooth="yes"/>
      <point x="381" y="232"/>
      <point x="315" y="101"/>
    </contour>
  </outline>
</glyph>
<glyph name="Aogonek" format="2">
  <advance width="518"/>
  <unicode hex="0104"/>
  <outline>
    <contour>
      <point x="340" y="-208" type="curve" smooth="yes"/>
      <point x="368" y="-208"/>
      <point x="400" y="-204"/>
      <point x="429" y="-193" type="curve"/>
      <point x="441" y="-100" type="line"/>
      <point x="419" y="-107"/>
      <point x="406" y="-108"/>
      <point x="393" y="-108" type="curve" smooth="yes"/>
      <point x="375" y="-108"/>
      <point x="365" y="-100"/>
      <point x="365" y="-82" type="curve" smooth="yes"/>
      <point x="365" y="-54"/>
      <point x="388" y="-28"/>
      <point x="443" y="0" type="curve"/>
      <point x="455" y="272"/>
      <point x="442" y="510"/>
      <point x="431" y="693" type="curve"/>
      <point x="288" y="693" type="line"/>
      <point x="185" y="510"/>
      <point x="63" y="272"/>
      <point x="-49" y="0" type="curve"/>
      <point x="93" y="0" type="line"/>
      <point x="108" y="42"/>
      <point x="127" y="91"/>
      <point x="150" y="146" type="curve"/>
      <point x="308" y="146" type="line"/>
      <point x="306" y="90"/>
      <point x="303" y="41"/>
      <point x="299" y="0" type="curve"/>
      <point x="328" y="0" type="line"/>
      <point x="269" y="-35"/>
      <point x="244" y="-71"/>
      <point x="244" y="-125" type="curve" smooth="yes"/>
      <point x="244" y="-177"/>
      <point x="281" y="-208"/>
    </contour>
    <contour>
      <point x="199" y="261" type="line"/>
      <point x="233" y="338"/>
      <point x="272" y="425"/>
      <point x="316" y="519" type="curve"/>
      <point x="315" y="425"/>
      <point x="313" y="338"/>
      <point x="311" y="261" type="curve"/>
    </contour>
  </outline>
</glyph>
<glyph name="aogonek" format="2">
  <advance width="484"/>
  <unicode hex="0105"/>
  <outline>
    <contour>
      <point x="271" y="105" type="curve" smooth="yes"/>
      <point x="236" y="105"/>
      <point x="228" y="125"/>
      <point x="228" y="164" type="curve" smooth="yes"/>
      <point x="228" y="298"/>
      <point x="292" y="430"/>
      <point x="349" y="430" type="curve" smooth="yes"/>
      <point x="358" y="430"/>
      <point x="365" y="429"/>
      <point x="374" y="424" type="curve"/>
      <point x="325" y="219" type="line" smooth="yes"/>
      <point x="317" y="184"/>
      <point x="313" y="156"/>
      <point x="313" y="131" type="curve"/>
      <point x="304" y="116"/>
      <point x="288" y="105"/>
    </contour>
    <contour>
      <point x="348" y="-208" type="curve" smooth="yes"/>
      <point x="376" y="-208"/>
      <point x="408" y="-204"/>
      <point x="437" y="-193" type="curve"/>
      <point x="449" y="-100" type="line"/>
      <point x="427" y="-107"/>
      <point x="414" y="-108"/>
      <point x="401" y="-108" type="curve" smooth="yes"/>
      <point x="383" y="-108"/>
      <point x="373" y="-100"/>
      <point x="373" y="-82" type="curve" smooth="yes"/>
      <point x="373" y="-51"/>
      <point x="401" y="-23"/>
      <point x="470" y="9" type="curve"/>
      <point x="459" y="45"/>
      <point x="452" y="85"/>
      <point x="452" y="127" type="curve" smooth="yes"/>
      <point x="452" y="158"/>
      <point x="456" y="190"/>
      <point x="464" y="223" type="curve" smooth="yes"/>
      <point x="533" y="511" type="line"/>
      <point x="496" y="531"/>
      <point x="426" y="543"/>
      <point x="384" y="543" type="curve" smooth="yes"/>
      <point x="216" y="543"/>
      <point x="88" y="366"/>
      <point x="88" y="153" type="curve" smooth="yes"/>
      <point x="88" y="62"/>
      <point x="123" y="-10"/>
      <point x="217" y="-10" type="curve" smooth="yes"/>
      <point x="267" y="-10"/>
      <point x="309" y="9"/>
      <point x="334" y="30" type="curve"/>
      <point x="338" y="21"/>
      <point x="343" y="9"/>
      <point x="347" y="-1" type="curve"/>
      <point x="284" y="-37"/>
      <point x="252" y="-69"/>
      <point x="252" y="-125" type="curve" smooth="yes"/>
      <point x="252" y="-177"/>
      <point x="289" y="-208"/>
    </contour>
  </outline>
</glyph>
<glyph name="dcroat" format="2">
  <advance width="486"/>
  <unicode hex="0111"/>
  <outline>
    <contour>
      <point x="217" y="-10" type="curve" smooth="yes"/>
      <point x="268" y="-10"/>
      <point x="311" y="9"/>
      <point x="336" y="30" type="curve"/>
      <point x="342" y="17"/>
      <point x="347" y="4"/>
      <point x="353" y="-11" type="curve"/>
      <point x="472" y="9" type="line"/>
      <point x="453" y="72"/>
      <point x="447" y="145"/>
      <point x="466" y="223" type="curve" smooth="yes"/>
      <point x="555" y="595" type="line"/>
      <point x="610" y="595" type="line"/>
      <point x="632" y="688" type="line"/>
      <point x="577" y="688" type="line"/>
      <point x="598" y="776" type="line"/>
      <point x="455" y="754" type="line"/>
      <point x="439" y="688" type="line"/>
      <point x="345" y="688" type="line"/>
      <point x="323" y="595" type="line"/>
      <point x="417" y="595" type="line"/>
      <point x="402" y="535" type="line"/>
      <point x="391" y="540"/>
      <point x="376" y="543"/>
      <point x="363" y="543" type="curve" smooth="yes"/>
      <point x="223" y="543"/>
      <point x="88" y="366"/>
      <point x="88" y="152" type="curve" smooth="yes"/>
      <point x="88" y="62"/>
      <point x="123" y="-10"/>
    </contour>
    <contour>
      <point x="271" y="105" type="curve" smooth="yes"/>
      <point x="236" y="105"/>
      <point x="227" y="125"/>
      <point x="227" y="163" type="curve" smooth="yes"/>
      <point x="227" y="298"/>
      <point x="293" y="428"/>
      <point x="351" y="428" type="curve" smooth="yes"/>
      <point x="357" y="428"/>
      <point x="364" y="428"/>
      <point x="376" y="423" type="curve"/>
      <point x="327" y="219" type="line" smooth="yes"/>
      <point x="319" y="184"/>
      <point x="315" y="156"/>
      <point x="315" y="131" type="curve"/>
      <point x="306" y="116"/>
      <point x="289" y="105"/>
    </contour>
  </outline>
</glyph>
<glyph name="Eogonek" format="2">
  <advance width="486"/>
  <unicode hex="0118"/>
  <outline>
    <contour>
      <point x="337" y="-208" type="curve" smooth="yes"/>
      <point x="365" y="-208"/>
      <point x="397" y="-204"/>
      <point x="426" y="-193" type="curve"/>
      <point x="438" y="-100" type="line"/>
      <point x="416" y="-107"/>
      <point x="403" y="-108"/>
      <point x="390" y="-108" type="curve" smooth="yes"/>
      <point x="372" y="-108"/>
      <point x="362" y="-100"/>
      <point x="362" y="-82" type="curve" smooth="yes"/>
      <point x="362" y="-54"/>
      <point x="385" y="-28"/>
      <point x="441" y="0" type="curve"/>
      <point x="470" y="119" type="line"/>
      <point x="245" y="119" type="line"/>
      <point x="290" y="306" type="line"/>
      <point x="477" y="306" type="line"/>
      <point x="505" y="421" type="line"/>
      <point x="318" y="421" type="line"/>
      <point x="355" y="574" type="line"/>
      <point x="558" y="574" type="line"/>
      <point x="586" y="693" type="line"/>
      <point x="241" y="693" type="line"/>
      <point x="75" y="0" type="line"/>
      <point x="328" y="0" type="line"/>
      <point x="269" y="-35"/>
      <point x="241" y="-71"/>
      <point x="241" y="-125" type="curve" smooth="yes"/>
      <point x="241" y="-177"/>
      <point x="278" y="-208"/>
    </contour>
  </outline>
</glyph>
<glyph name="eogonek" format="2">
  <advance width="440"/>
  <unicode hex="0119"/>
  <outline>
    <contour>
      <point x="279" y="-208" type="curve" smooth="yes"/>
      <point x="307" y="-208"/>
      <point x="339" y="-204"/>
      <point x="368" y="-193" type="curve"/>
      <point x="380" y="-100" type="line"/>
      <point x="358" y="-107"/>
      <point x="345" y="-108"/>
      <point x="332" y="-108" type="curve" smooth="yes"/>
      <point x="314" y="-108"/>
      <point x="304" y="-100"/>
      <point x="304" y="-82" type="curve" smooth="yes"/>
      <point x="304" y="-50"/>
      <point x="332" y="-19"/>
      <point x="406" y="14" type="curve"/>
      <point x="399" y="118" type="line"/>
      <point x="374" y="105"/>
      <point x="344" y="100"/>
      <point x="314" y="100" type="curve" smooth="yes"/>
      <point x="263" y="100"/>
      <point x="235" y="118"/>
      <point x="235" y="181" type="curve" smooth="yes"/>
      <point x="235" y="183"/>
      <point x="235" y="186"/>
      <point x="235" y="188" type="curve"/>
      <point x="378" y="198"/>
      <point x="490" y="253"/>
      <point x="497" y="408" type="curve" smooth="yes"/>
      <point x="501" y="494"/>
      <point x="450" y="546"/>
      <point x="364" y="546" type="curve" smooth="yes"/>
      <point x="202" y="546"/>
      <point x="98" y="362"/>
      <point x="98" y="174" type="curve" smooth="yes"/>
      <point x="98" y="79"/>
      <point x="132" y="-1"/>
      <point x="246" y="-13" type="curve" smooth="yes"/>
      <point x="246" y="-13"/>
      <point x="246" y="-13"/>
      <point x="246" y="-13" type="curve"/>
      <point x="203" y="-44"/>
      <point x="183" y="-78"/>
      <point x="183" y="-125" type="curve" smooth="yes"/>
      <point x="183" y="-177"/>
      <point x="220" y="-208"/>
    </contour>
    <contour>
      <point x="242" y="286" type="curve"/>
      <point x="258" y="377"/>
      <point x="299" y="434"/>
      <point x="338" y="434" type="curve" smooth="yes"/>
      <point x="360" y="434"/>
      <point x="369" y="420"/>
      <point x="369" y="396" type="curve" smooth="yes"/>
      <point x="369" y="356"/>
      <point x="345" y="299"/>
    </contour>
  </outline>
</glyph>
<glyph name="Hbar" format="2">
  <advance width="592"/>
  <unicode hex="0126"/>
  <outline>
    <contour>
      <point x="80" y="0" type="line"/>
      <point x="222" y="0" type="line"/>
      <point x="294" y="300" type="line"/>
      <point x="442" y="300" type="line"/>
      <point x="370" y="0" type="line"/>
      <point x="512" y="0" type="line"/>
      <point x="634" y="508" type="line"/>
      <point x="694" y="508" type="line"/>
      <point x="718" y="607" type="line"/>
      <point x="657" y="607" type="line"/>
      <point x="678" y="693" type="line"/>
      <point x="536" y="693" type="line"/>
      <point x="516" y="607" type="line"/>
      <point x="368" y="607" type="line"/>
      <point x="388" y="693" type="line"/>
      <point x="246" y="693" type="line"/>
      <point x="225" y="607" type="line"/>
      <point x="166" y="607" type="line"/>
      <point x="142" y="508" type="line"/>
      <point x="202" y="508" type="line"/>
    </contour>
    <contour>
      <point x="323" y="420" type="line"/>
      <point x="344" y="508" type="line"/>
      <point x="492" y="508" type="line"/>
      <point x="471" y="420" type="line"/>
    </contour>
  </outline>
</glyph>
<glyph name="hbar" format="2">
  <advance width="464"/>
  <unicode hex="0127"/>
  <outline>
    <contour>
      <point x="68" y="0" type="line"/>
      <point x="206" y="0" type="line"/>
      <point x="307" y="422" type="line"/>
      <point x="320" y="426"/>
      <point x="332" y="427"/>
      <point x="338" y="427" type="curve"/>
      <point x="365" y="427"/>
      <point x="381" y="413"/>
      <point x="381" y="374" type="curve" smooth="yes"/>
      <point x="381" y="357"/>
      <point x="378" y="335"/>
      <point x="371" y="307" type="curve" smooth="yes"/>
      <point x="297" y="0" type="line"/>
      <point x="435" y="0" type="line"/>
      <point x="510" y="313" type="line" smooth="yes"/>
      <point x="517" y="343"/>
      <point x="521" y="371"/>
      <point x="521" y="396" type="curve" smooth="yes"/>
      <point x="521" y="488"/>
      <point x="472" y="542"/>
      <point x="390" y="542" type="curve" smooth="yes"/>
      <point x="374" y="542"/>
      <point x="352" y="539"/>
      <point x="333" y="531" type="curve"/>
      <point x="348" y="595" type="line"/>
      <point x="441" y="595" type="line"/>
      <point x="463" y="688" type="line"/>
      <point x="371" y="688" type="line"/>
      <point x="392" y="776" type="line"/>
      <point x="249" y="754" type="line"/>
      <point x="233" y="688" type="line"/>
      <point x="178" y="688" type="line"/>
      <point x="156" y="595" type="line"/>
      <point x="211" y="595" type="line"/>
    </contour>
  </outline>
</glyph>
<glyph name="Iogonek" format="2">
  <advance width="292"/>
  <unicode hex="012E"/>
  <outline>
    <contour>
      <point x="114" y="-208" type="curve" smooth="yes"/>
      <point x="142" y="-208"/>
      <point x="174" y="-204"/>
      <point x="203" y="-193" type="curve"/>
      <point x="215" y="-100" type="line"/>
      <point x="193" y="-107"/>
      <point x="180" y="-108"/>
      <point x="167" y="-108" type="curve" smooth="yes"/>
      <point x="149" y="-108"/>
      <point x="139" y="-100"/>
      <point x="139" y="-82" type="curve" smooth="yes"/>
      <point x="139" y="-54"/>
      <point x="162" y="-27"/>
      <point x="217" y="0" type="curve"/>
      <point x="383" y="693" type="line"/>
      <point x="241" y="693" type="line"/>
      <point x="75" y="0" type="line"/>
      <point x="105" y="0" type="line"/>
      <point x="46" y="-35"/>
      <point x="18" y="-71"/>
      <point x="18" y="-125" type="curve" smooth="yes"/>
      <point x="18" y="-177"/>
      <point x="55" y="-208"/>
    </contour>
  </outline>
</glyph>
<glyph name="iogonek" format="2">
  <advance width="264"/>
  <unicode hex="012F"/>
  <outline>
    <contour>
      <point x="98" y="-208" type="curve" smooth="yes"/>
      <point x="126" y="-208"/>
      <point x="158" y="-204"/>
      <point x="187" y="-193" type="curve"/>
      <point x="199" y="-100" type="line"/>
      <point x="177" y="-107"/>
      <point x="164" y="-108"/>
      <point x="151" y="-108" type="curve" smooth="yes"/>
      <point x="133" y="-108"/>
      <point x="123" y="-100"/>
      <point x="123" y="-82" type="curve" smooth="yes"/>
      <point x="123" y="-54"/>
      <point x="147" y="-28"/>
      <point x="201" y="0" type="curve"/>
      <point x="329" y="532" type="line"/>
      <point x="191" y="532" type="line"/>
      <point x="63" y="0" type="line"/>
      <point x="89" y="0" type="line"/>
      <point x="30" y="-35"/>
      <point x="2" y="-71"/>
      <point x="2" y="-125" type="curve" smooth="yes"/>
      <point x="2" y="-177"/>
      <point x="39" y="-208"/>
    </contour>
    <contour>
      <point x="283" y="596" type="curve" smooth="yes"/>
      <point x="331" y="596"/>
      <point x="379" y="638"/>
      <point x="379" y="696" type="curve" smooth="yes"/>
      <point x="379" y="738"/>
      <point x="348" y="764"/>
      <point x="307" y="764" type="curve" smooth="yes"/>
      <point x="259" y="764"/>
      <point x="211" y="720"/>
      <point x="211" y="663" type="curve" smooth="yes"/>
      <point x="211" y="622"/>
      <point x="242" y="596"/>
    </contour>
  </outline>
</glyph>
<glyph name="dotlessi" format="2">
  <advance width="275"/>
  <unicode hex="0131"/>
  <outline>
    <contour>
      <point x="68" y="0" type="line"/>
      <point x="207" y="0" type="line"/>
      <point x="335" y="532" type="line"/>
      <point x="195" y="532" type="line"/>
    </contour>
  </outline>
</glyph>
<glyph name="kgreenlandic" format="2">
  <advance width="466"/>
  <unicode hex="0138"/>
  <outline>
    <contour>
      <point x="65" y="0" type="line"/>
      <point x="203" y="0" type="line"/>
      <point x="258" y="228" type="line"/>
      <point x="280" y="173"/>
      <point x="299" y="83"/>
      <point x="306" y="0" type="curve"/>
      <point x="449" y="0" type="line"/>
      <point x="440" y="93"/>
      <point x="414" y="192"/>
      <point x="377" y="278" type="curve"/>
      <point x="452" y="366"/>
      <point x="525" y="457"/>
      <point x="575" y="532" type="curve"/>
      <point x="429" y="532" type="line"/>
      <point x="396" y="476"/>
      <point x="329" y="384"/>
      <point x="281" y="325" type="curve"/>
      <point x="331" y="532" type="line"/>
      <point x="193" y="532" type="line"/>
    </contour>
  </outline>
</glyph>
<glyph name="Lslash" format="2">
  <advance width="468"/>
  <unicode hex="0141"/>
  <outline>
    <contour>
      <point x="96" y="0" type="line"/>
      <point x="445" y="0" type="line"/>
      <point x="474" y="119" type="line"/>
      <point x="266" y="119" type="line"/>
      <point x="319" y="340" type="line"/>
      <point x="473" y="413" type="line"/>
      <point x="448" y="501" type="line"/>
      <point x="346" y="453" type="line"/>
      <point x="404" y="693" type="line"/>
      <point x="262" y="693" type="line"/>
      <point x="187" y="378" type="line"/>
      <point x="86" y="331" type="line"/>
      <point x="114" y="243" type="line"/>
      <point x="159" y="264" type="line"/>
    </contour>
  </outline>
</glyph>
<glyph name="lslash" format="2">
  <advance width="327"/>
  <unicode hex="0142"/>
  <outline>
    <contour>
      <point x="280" y="-14" type="curve"/>
      <point x="307" y="98" type="line"/>
      <point x="266" y="101"/>
      <point x="254" y="117"/>
      <point x="264" y="160" type="curve" smooth="yes"/>
      <point x="318" y="383" type="line"/>
      <point x="438" y="440" type="line"/>
      <point x="413" y="534" type="line"/>
      <point x="346" y="502" type="line"/>
      <point x="412" y="776" type="line"/>
      <point x="269" y="754" type="line"/>
      <point x="190" y="429" type="line"/>
      <point x="89" y="381" type="line"/>
      <point x="114" y="287" type="line"/>
      <point x="162" y="309" type="line"/>
      <point x="125" y="158" type="line" smooth="yes"/>
      <point x="97" y="44"/>
      <point x="147" y="-10"/>
    </contour>
  </outline>
</glyph>
<glyph name="Eng" format="2">
  <advance width="594"/>
  <unicode hex="014A"/>
  <outline>
    <contour>
      <point x="275" y="-188" type="curve" smooth="yes"/>
      <point x="375" y="-188"/>
      <point x="426" y="-124"/>
      <point x="451" y="-18" type="curve" smooth="yes"/>
      <point x="621" y="693" type="line"/>
      <point x="486" y="693" type="line"/>
      <point x="394" y="310" type="line"/>
      <point x="362" y="453"/>
      <point x="327" y="582"/>
      <point x="290" y="693" type="curve"/>
      <point x="178" y="693" type="line"/>
      <point x="12" y="0" type="line"/>
      <point x="147" y="0" type="line"/>
      <point x="250" y="428" type="line"/>
      <point x="293" y="275"/>
      <point x="320" y="146"/>
      <point x="336" y="48" type="curve"/>
      <point x="320" y="-18" type="line" smooth="yes"/>
      <point x="311" y="-54"/>
      <point x="294" y="-68"/>
      <point x="270" y="-68" type="curve" smooth="yes"/>
      <point x="258" y="-68"/>
      <point x="246" y="-66"/>
      <point x="235" y="-63" type="curve"/>
      <point x="200" y="-176" type="line"/>
      <point x="223" y="-185"/>
      <point x="248" y="-188"/>
    </contour>
  </outline>
</glyph>
<glyph name="eng" format="2">
  <advance width="496"/>
  <unicode hex="014B"/>
  <outline>
    <contour>
      <point x="251" y="-188" type="curve" smooth="yes"/>
      <point x="347" y="-188"/>
      <point x="404" y="-132"/>
      <point x="432" y="-12" type="curve" smooth="yes"/>
      <point x="510" y="313" type="line" smooth="yes"/>
      <point x="547" y="467"/>
      <point x="498" y="542"/>
      <point x="365" y="542" type="curve" smooth="yes"/>
      <point x="307" y="542"/>
      <point x="251" y="531"/>
      <point x="191" y="513" type="curve"/>
      <point x="68" y="0" type="line"/>
      <point x="206" y="0" type="line"/>
      <point x="307" y="421" type="line"/>
      <point x="318" y="425"/>
      <point x="329" y="427"/>
      <point x="338" y="427" type="curve" smooth="yes"/>
      <point x="379" y="427"/>
      <point x="392" y="392"/>
      <point x="371" y="307" type="curve" smooth="yes"/>
      <point x="292" y="-21" type="line" smooth="yes"/>
      <point x="284" y="-58"/>
      <point x="269" y="-78"/>
      <point x="243" y="-78" type="curve" smooth="yes"/>
      <point x="225" y="-78"/>
      <point x="213" y="-74"/>
      <point x="199" y="-67" type="curve"/>
      <point x="161" y="-169" type="line"/>
      <point x="187" y="-180"/>
      <point x="221" y="-188"/>
    </contour>
  </outline>
</glyph>
<glyph name="OE" format="2">
  <advance width="800"/>
  <unicode hex="0152"/>
  <outline>
    <contour>
      <point x="335" y="-5" type="curve" smooth="yes"/>
      <point x="360" y="-5"/>
      <point x="384" y="-3"/>
      <point x="405" y="0" type="curve"/>
      <point x="755" y="0" type="line"/>
      <point x="784" y="119" type="line"/>
      <point x="559" y="119" type="line"/>
      <point x="604" y="306" type="line"/>
      <point x="791" y="306" type="line"/>
      <point x="819" y="421" type="line"/>
      <point x="632" y="421" type="line"/>
      <point x="669" y="574" type="line"/>
      <point x="872" y="574" type="line"/>
      <point x="900" y="693" type="line"/>
      <point x="558" y="693" type="line"/>
      <point x="535" y="696"/>
      <point x="507" y="698"/>
      <point x="479" y="698" type="curve"/>
      <point x="267" y="698"/>
      <point x="126" y="491"/>
      <point x="126" y="231" type="curve" smooth="yes"/>
      <point x="126" y="80"/>
      <point x="197" y="-5"/>
    </contour>
    <contour>
      <point x="379" y="119" type="curve" smooth="yes"/>
      <point x="319" y="119"/>
      <point x="270" y="149"/>
      <point x="270" y="235" type="curve" smooth="yes"/>
      <point x="270" y="482"/>
      <point x="376" y="576"/>
      <point x="476" y="576" type="curve" smooth="yes"/>
      <point x="493" y="576"/>
      <point x="509" y="573"/>
      <point x="525" y="568" type="curve"/>
      <point x="418" y="122" type="line"/>
      <point x="405" y="120"/>
      <point x="391" y="119"/>
    </contour>
  </outline>
</glyph>
<glyph name="oe" format="2">
  <advance width="693"/>
  <unicode hex="0153"/>
  <outline>
    <contour>
      <point x="194" y="-11" type="curve" smooth="yes"/>
      <point x="243" y="-11"/>
      <point x="285" y="11"/>
      <point x="321" y="46" type="curve"/>
      <point x="349" y="9"/>
      <point x="393" y="-14"/>
      <point x="465" y="-14" type="curve" smooth="yes"/>
      <point x="520" y="-14"/>
      <point x="559" y="-2"/>
      <point x="595" y="14" type="curve"/>
      <point x="588" y="118" type="line"/>
      <point x="563" y="105"/>
      <point x="533" y="100"/>
      <point x="503" y="100" type="curve" smooth="yes"/>
      <point x="452" y="100"/>
      <point x="424" y="118"/>
      <point x="424" y="181" type="curve" smooth="yes"/>
      <point x="424" y="183"/>
      <point x="424" y="186"/>
      <point x="424" y="188" type="curve"/>
      <point x="567" y="198"/>
      <point x="679" y="253"/>
      <point x="686" y="408" type="curve" smooth="yes"/>
      <point x="690" y="494"/>
      <point x="639" y="546"/>
      <point x="553" y="546" type="curve" smooth="yes"/>
      <point x="497" y="546"/>
      <point x="450" y="522"/>
      <point x="409" y="484" type="curve"/>
      <point x="382" y="522"/>
      <point x="343" y="543"/>
      <point x="289" y="543" type="curve" smooth="yes"/>
      <point x="129" y="543"/>
      <point x="35" y="343"/>
      <point x="35" y="165" type="curve" smooth="yes"/>
      <point x="35" y="56"/>
      <point x="91" y="-11"/>
    </contour>
    <contour>
      <point x="208" y="103" type="curve" smooth="yes"/>
      <point x="183" y="103"/>
      <point x="175" y="121"/>
      <point x="175" y="154" type="curve" smooth="yes"/>
      <point x="175" y="229"/>
      <point x="207" y="429"/>
      <point x="274" y="429" type="curve" smooth="yes"/>
      <point x="298" y="429"/>
      <point x="307" y="411"/>
      <point x="307" y="378" type="curve" smooth="yes"/>
      <point x="307" y="301"/>
      <point x="274" y="103"/>
    </contour>
    <contour>
      <point x="431" y="286" type="curve"/>
      <point x="447" y="377"/>
      <point x="488" y="434"/>
      <point x="527" y="434" type="curve" smooth="yes"/>
      <point x="549" y="434"/>
      <point x="558" y="420"/>
      <point x="558" y="396" type="curve" smooth="yes"/>
      <point x="558" y="356"/>
      <point x="534" y="299"/>
    </contour>
  </outline>
</glyph>
<glyph name="Scedilla" format="2">
  <advance width="429"/>
  <unicode hex="015E"/>
  <outline>
    <contour>
      <point x="152" y="-210" type="curve" smooth="yes"/>
      <point x="239" y="-210"/>
      <point x="296" y="-167"/>
      <point x="296" y="-101" type="curve" smooth="yes"/>
      <point x="296" y="-77"/>
      <point x="286" y="-55"/>
      <point x="257" y="-39" type="curve"/>
      <point x="266" y="-26"/>
      <point x="273" y="-14"/>
      <point x="278" y="-5" type="curve"/>
      <point x="387" y="24"/>
      <point x="452" y="115"/>
      <point x="452" y="228" type="curve" smooth="yes"/>
      <point x="452" y="303"/>
      <point x="412" y="353"/>
      <point x="374" y="395" type="curve" smooth="yes"/>
      <point x="338" y="434"/>
      <point x="304" y="467"/>
      <point x="304" y="508" type="curve" smooth="yes"/>
      <point x="304" y="562"/>
      <point x="335" y="587"/>
      <point x="389" y="587" type="curve" smooth="yes"/>
      <point x="423" y="587"/>
      <point x="464" y="578"/>
      <point x="489" y="565" type="curve"/>
      <point x="535" y="675" type="line"/>
      <point x="496" y="696"/>
      <point x="456" y="707"/>
      <point x="399" y="707" type="curve" smooth="yes"/>
      <point x="266" y="707"/>
      <point x="161" y="613"/>
      <point x="161" y="481" type="curve" smooth="yes"/>
      <point x="161" y="407"/>
      <point x="203" y="362"/>
      <point x="242" y="321" type="curve" smooth="yes"/>
      <point x="276" y="286"/>
      <point x="307" y="253"/>
      <point x="307" y="206" type="curve" smooth="yes"/>
      <point x="307" y="145"/>
      <point x="276" y="106"/>
      <point x="222" y="106" type="curve" smooth="yes"/>
      <point x="183" y="106"/>
      <point x="127" y="119"/>
      <point x="94" y="147" type="curve"/>
      <point x="46" y="29" type="line"/>
      <point x="81" y="9"/>
      <point x="129" y="-10"/>
      <point x="185" y="-13" type="curve"/>
      <point x="173" y="-32"/>
      <point x="161" y="-54"/>
      <point x="152" y="-71" type="curve"/>
      <point x="181" y="-75"/>
      <point x="195" y="-84"/>
      <point x="195" y="-99" type="curve" smooth="yes"/>
      <point x="195" y="-114"/>
      <point x="181" y="-126"/>
      <point x="155" y="-126" type="curve" smooth="yes"/>
      <point x="140" y="-126"/>
      <point x="122" y="-123"/>
      <point x="109" y="-117" type="curve"/>
      <point x="79" y="-198" type="line"/>
      <point x="103" y="-206"/>
      <point x="129" y="-210"/>
    </contour>
  </outline>
</glyph>
<glyph name="scedilla" format="2">
  <advance width="384"/>
  <unicode hex="015F"/>
  <outline>
    <contour>
      <point x="65" y="-210" type="curve" smooth="yes"/>
      <point x="152" y="-210"/>
      <point x="209" y="-167"/>
      <point x="209" y="-101" type="curve" smooth="yes"/>
      <point x="209" y="-77"/>
      <point x="199" y="-55"/>
      <point x="170" y="-39" type="curve"/>
      <point x="179" y="-24"/>
      <point x="187" y="-12"/>
      <point x="193" y="-2" type="curve"/>
      <point x="275" y="24"/>
      <point x="330" y="90"/>
      <point x="330" y="176" type="curve" smooth="yes"/>
      <point x="330" y="229"/>
      <point x="315" y="261"/>
      <point x="269" y="305" type="curve" smooth="yes"/>
      <point x="230" y="342"/>
      <point x="212" y="357"/>
      <point x="212" y="381" type="curve"/>
      <point x="212" y="411"/>
      <point x="234" y="434"/>
      <point x="274" y="434" type="curve" smooth="yes"/>
      <point x="296" y="434"/>
      <point x="317" y="429"/>
      <point x="342" y="418" type="curve"/>
      <point x="387" y="524" type="line"/>
      <point x="372" y="533"/>
      <point x="334" y="546"/>
      <point x="286" y="546" type="curve" smooth="yes"/>
      <point x="161" y="546"/>
      <point x="73" y="458"/>
      <point x="73" y="349" type="curve" smooth="yes"/>
      <point x="73" y="299"/>
      <point x="94" y="267"/>
      <point x="134" y="233" type="curve" smooth="yes"/>
      <point x="175" y="199"/>
      <point x="190" y="180"/>
      <point x="190" y="155" type="curve" smooth="yes"/>
      <point x="190" y="126"/>
      <point x="171" y="98"/>
      <point x="124" y="98" type="curve"/>
      <point x="96" y="98"/>
      <point x="62" y="108"/>
      <point x="37" y="124" type="curve"/>
      <point x="-12" y="17" type="line"/>
      <point x="7" y="3"/>
      <point x="48" y="-11"/>
      <point x="98" y="-14" type="curve"/>
      <point x="86" y="-32"/>
      <point x="74" y="-54"/>
      <point x="65" y="-71" type="curve"/>
      <point x="94" y="-75"/>
      <point x="108" y="-84"/>
      <point x="108" y="-99" type="curve" smooth="yes"/>
      <point x="108" y="-114"/>
      <point x="94" y="-126"/>
      <point x="68" y="-126" type="curve" smooth="yes"/>
      <point x="53" y="-126"/>
      <point x="35" y="-123"/>
      <point x="22" y="-117" type="curve"/>
      <point x="-8" y="-198" type="line"/>
      <point x="16" y="-206"/>
      <point x="42" y="-210"/>
    </contour>
  </outline>
</glyph>
<glyph name="Tcedilla" format="2">
  <advance width="464"/>
  <unicode hex="0162"/>
  <outline>
    <contour>
      <point x="90" y="-210" type="curve" smooth="yes"/>
      <point x="177" y="-210"/>
      <point x="234" y="-167"/>
      <point x="234" y="-101" type="curve" smooth="yes"/>
      <point x="234" y="-77"/>
      <point x="224" y="-55"/>
      <point x="195" y="-39" type="curve"/>
      <point x="205" y="-23"/>
      <point x="213" y="-10"/>
      <point x="219" y="0" type="curve"/>
      <point x="240" y="0" type="line"/>
      <point x="378" y="574" type="line"/>
      <point x="516" y="574" type="line"/>
      <point x="544" y="693" type="line"/>
      <point x="125" y="693" type="line"/>
      <point x="97" y="574" type="line"/>
      <point x="236" y="574" type="line"/>
      <point x="98" y="0" type="line"/>
      <point x="131" y="0" type="line"/>
      <point x="118" y="-21"/>
      <point x="101" y="-50"/>
      <point x="90" y="-71" type="curve"/>
      <point x="119" y="-75"/>
      <point x="133" y="-84"/>
      <point x="133" y="-99" type="curve" smooth="yes"/>
      <point x="133" y="-114"/>
      <point x="119" y="-126"/>
      <point x="93" y="-126" type="curve" smooth="yes"/>
      <point x="78" y="-126"/>
      <point x="60" y="-123"/>
      <point x="47" y="-117" type="curve"/>
      <point x="17" y="-198" type="line"/>
      <point x="41" y="-206"/>
      <point x="67" y="-210"/>
    </contour>
  </outline>
</glyph>
<glyph name="uni0162" format="2">
  <advance width="453"/>
  <unicode hex="0162"/>
  <outline>
    <contour>
      <point x="148" y="-210" type="curve" smooth="yes"/>
      <point x="235" y="-210"/>
      <point x="292" y="-167"/>
      <point x="292" y="-101" type="curve" smooth="yes"/>
      <point x="292" y="-77"/>
      <point x="282" y="-55"/>
      <point x="253" y="-39" type="curve"/>
      <point x="263" y="-23"/>
      <point x="271" y="-10"/>
      <point x="277" y="0" type="curve"/>
      <point x="298" y="0" type="line"/>
      <point x="436" y="574" type="line"/>
      <point x="574" y="574" type="line"/>
      <point x="602" y="693" type="line"/>
      <point x="183" y="693" type="line"/>
      <point x="155" y="574" type="line"/>
      <point x="294" y="574" type="line"/>
      <point x="156" y="0" type="line"/>
      <point x="189" y="0" type="line"/>
      <point x="176" y="-21"/>
      <point x="159" y="-50"/>
      <point x="148" y="-71" type="curve"/>
      <point x="177" y="-75"/>
      <point x="191" y="-84"/>
      <point x="191" y="-99" type="curve" smooth="yes"/>
      <point x="191" y="-114"/>
      <point x="177" y="-126"/>
      <point x="151" y="-126" type="curve" smooth="yes"/>
      <point x="136" y="-126"/>
      <point x="118" y="-123"/>
      <point x="105" y="-117" type="curve"/>
      <point x="75" y="-198" type="line"/>
      <point x="99" y="-206"/>
      <point x="125" y="-210"/>
    </contour>
  </outline>
</glyph>
<glyph name="tcedilla" format="2">
  <advance width="353"/>
  <unicode hex="0163"/>
  <outline>
    <contour>
      <point x="148" y="-210" type="curve" smooth="yes"/>
      <point x="235" y="-210"/>
      <point x="292" y="-167"/>
      <point x="292" y="-101" type="curve" smooth="yes"/>
      <point x="292" y="-77"/>
      <point x="282" y="-55"/>
      <point x="253" y="-39" type="curve"/>
      <point x="259" y="-29"/>
      <point x="265" y="-20"/>
      <point x="270" y="-12" type="curve"/>
      <point x="299" y="-9"/>
      <point x="329" y="-3"/>
      <point x="351" y="7" type="curve"/>
      <point x="344" y="115" type="line"/>
      <point x="324" y="109"/>
      <point x="302" y="106"/>
      <point x="281" y="106" type="curve"/>
      <point x="234" y="106"/>
      <point x="225" y="129"/>
      <point x="239" y="187" type="curve" smooth="yes"/>
      <point x="294" y="419" type="line"/>
      <point x="414" y="419" type="line"/>
      <point x="441" y="532" type="line"/>
      <point x="322" y="532" type="line"/>
      <point x="357" y="681" type="line"/>
      <point x="214" y="659" type="line"/>
      <point x="103" y="195" type="line" smooth="yes"/>
      <point x="75" y="77"/>
      <point x="92" y="8"/>
      <point x="184" y="-9" type="curve"/>
      <point x="171" y="-29"/>
      <point x="157" y="-53"/>
      <point x="148" y="-71" type="curve"/>
      <point x="177" y="-75"/>
      <point x="191" y="-84"/>
      <point x="191" y="-99" type="curve" smooth="yes"/>
      <point x="191" y="-114"/>
      <point x="177" y="-126"/>
      <point x="151" y="-126" type="curve" smooth="yes"/>
      <point x="136" y="-126"/>
      <point x="118" y="-123"/>
      <point x="105" y="-117" type="curve"/>
      <point x="75" y="-198" type="line"/>
      <point x="99" y="-206"/>
      <point x="125" y="-210"/>
    </contour>
  </outline>
</glyph>
<glyph name="uni0163" format="2">
  <advance width="343"/>
  <unicode hex="0163"/>
  <outline>
    <contour>
      <point x="143" y="-210" type="curve" smooth="yes"/>
      <point x="230" y="-210"/>
      <point x="287" y="-167"/>
      <point x="287" y="-101" type="curve" smooth="yes"/>
      <point x="287" y="-77"/>
      <point x="277" y="-55"/>
      <point x="248" y="-39" type="curve"/>
      <point x="254" y="-29"/>
      <point x="260" y="-20"/>
      <point x="265" y="-12" type="curve"/>
      <point x="294" y="-9"/>
      <point x="324" y="-3"/>
      <point x="346" y="7" type="curve"/>
      <point x="339" y="115" type="line"/>
      <point x="319" y="109"/>
      <point x="297" y="106"/>
      <point x="276" y="106" type="curve"/>
      <point x="229" y="106"/>
      <point x="220" y="129"/>
      <point x="234" y="187" type="curve" smooth="yes"/>
      <point x="289" y="419" type="line"/>
      <point x="409" y="419" type="line"/>
      <point x="436" y="532" type="line"/>
      <point x="317" y="532" type="line"/>
      <point x="352" y="681" type="line"/>
      <point x="209" y="659" type="line"/>
      <point x="98" y="195" type="line" smooth="yes"/>
      <point x="70" y="77"/>
      <point x="87" y="8"/>
      <point x="179" y="-9" type="curve"/>
      <point x="166" y="-29"/>
      <point x="152" y="-53"/>
      <point x="143" y="-71" type="curve"/>
      <point x="172" y="-75"/>
      <point x="186" y="-84"/>
      <point x="186" y="-99" type="curve" smooth="yes"/>
      <point x="186" y="-114"/>
      <point x="172" y="-126"/>
      <point x="146" y="-126" type="curve" smooth="yes"/>
      <point x="131" y="-126"/>
      <point x="113" y="-123"/>
      <point x="100" y="-117" type="curve"/>
      <point x="70" y="-198" type="line"/>
      <point x="94" y="-206"/>
      <point x="120" y="-210"/>
    </contour>
  </outline>
</glyph>
<glyph name="Tbar" format="2">
  <advance width="463"/>
  <unicode hex="0166"/>
  <outline>
    <contour>
      <point x="161" y="0" type="line"/>
      <point x="303" y="0" type="line"/>
      <point x="375" y="298" type="line"/>
      <point x="458" y="298" type="line"/>
      <point x="482" y="397" type="line"/>
      <point x="398" y="397" type="line"/>
      <point x="441" y="574" type="line"/>
      <point x="579" y="574" type="line"/>
      <point x="607" y="693" type="line"/>
      <point x="188" y="693" type="line"/>
      <point x="160" y="574" type="line"/>
      <point x="299" y="574" type="line"/>
      <point x="256" y="397" type="line"/>
      <point x="172" y="397" type="line"/>
      <point x="148" y="298" type="line"/>
      <point x="233" y="298" type="line"/>
    </contour>
  </outline>
</glyph>
<glyph name="tbar" format="2">
  <advance width="343"/>
  <unicode hex="0167"/>
  <outline>
    <contour>
      <point x="233" y="-14" type="curve" smooth="yes"/>
      <point x="271" y="-14"/>
      <point x="316" y="-6"/>
      <point x="346" y="7" type="curve"/>
      <point x="339" y="115" type="line"/>
      <point x="319" y="109"/>
      <point x="297" y="106"/>
      <point x="276" y="106" type="curve"/>
      <point x="229" y="106"/>
      <point x="220" y="129"/>
      <point x="234" y="187" type="curve" smooth="yes"/>
      <point x="243" y="226" type="line"/>
      <point x="362" y="226" type="line"/>
      <point x="383" y="315" type="line"/>
      <point x="264" y="315" type="line"/>
      <point x="289" y="419" type="line"/>
      <point x="409" y="419" type="line"/>
      <point x="436" y="532" type="line"/>
      <point x="317" y="532" type="line"/>
      <point x="352" y="681" type="line"/>
      <point x="209" y="659" type="line"/>
      <point x="98" y="195" type="line" smooth="yes"/>
      <point x="65" y="56"/>
      <point x="94" y="-14"/>
    </contour>
  </outline>
</glyph>
<glyph name="Uogonek" format="2">
  <advance width="560"/>
  <unicode hex="0172"/>
  <outline>
    <contour>
      <point x="231" y="-208" type="curve" smooth="yes"/>
      <point x="259" y="-208"/>
      <point x="291" y="-204"/>
      <point x="320" y="-193" type="curve"/>
      <point x="332" y="-100" type="line"/>
      <point x="310" y="-107"/>
      <point x="297" y="-108"/>
      <point x="284" y="-108" type="curve" smooth="yes"/>
      <point x="266" y="-108"/>
      <point x="256" y="-100"/>
      <point x="256" y="-82" type="curve" smooth="yes"/>
      <point x="256" y="-50"/>
      <point x="282" y="-21"/>
      <point x="346" y="11" type="curve" smooth="yes"/>
      <point x="415" y="45"/>
      <point x="458" y="118"/>
      <point x="483" y="219" type="curve" smooth="yes"/>
      <point x="597" y="693" type="line"/>
      <point x="455" y="693" type="line"/>
      <point x="341" y="218" type="line" smooth="yes"/>
      <point x="323" y="142"/>
      <point x="299" y="110"/>
      <point x="252" y="110" type="curve" smooth="yes"/>
      <point x="217" y="110"/>
      <point x="192" y="130"/>
      <point x="192" y="178" type="curve" smooth="yes"/>
      <point x="192" y="190"/>
      <point x="194" y="205"/>
      <point x="198" y="222" type="curve" smooth="yes"/>
      <point x="311" y="693" type="line"/>
      <point x="169" y="693" type="line"/>
      <point x="59" y="235" type="line" smooth="yes"/>
      <point x="52" y="207"/>
      <point x="49" y="181"/>
      <point x="49" y="158" type="curve" smooth="yes"/>
      <point x="49" y="59"/>
      <point x="105" y="-1"/>
      <point x="197" y="-12" type="curve"/>
      <point x="155" y="-43"/>
      <point x="135" y="-78"/>
      <point x="135" y="-125" type="curve" smooth="yes"/>
      <point x="135" y="-177"/>
      <point x="172" y="-208"/>
    </contour>
  </outline>
</glyph>
<glyph name="uogonek" format="2">
  <advance width="501"/>
  <unicode hex="0173"/>
  <outline>
    <contour>
      <point x="360" y="-208" type="curve" smooth="yes"/>
      <point x="388" y="-208"/>
      <point x="420" y="-204"/>
      <point x="449" y="-193" type="curve"/>
      <point x="461" y="-100" type="line"/>
      <point x="439" y="-107"/>
      <point x="426" y="-108"/>
      <point x="413" y="-108" type="curve" smooth="yes"/>
      <point x="395" y="-108"/>
      <point x="385" y="-100"/>
      <point x="385" y="-82" type="curve" smooth="yes"/>
      <point x="385" y="-51"/>
      <point x="414" y="-22"/>
      <point x="482" y="9" type="curve"/>
      <point x="470" y="44"/>
      <point x="465" y="84"/>
      <point x="465" y="125" type="curve" smooth="yes"/>
      <point x="465" y="158"/>
      <point x="468" y="192"/>
      <point x="476" y="223" type="curve" smooth="yes"/>
      <point x="550" y="532" type="line"/>
      <point x="412" y="532" type="line"/>
      <point x="337" y="219" type="line" smooth="yes"/>
      <point x="330" y="189"/>
      <point x="326" y="160"/>
      <point x="325" y="133" type="curve"/>
      <point x="315" y="117"/>
      <point x="299" y="105"/>
      <point x="281" y="105" type="curve" smooth="yes"/>
      <point x="238" y="105"/>
      <point x="228" y="139"/>
      <point x="249" y="225" type="curve" smooth="yes"/>
      <point x="323" y="532" type="line"/>
      <point x="185" y="532" type="line"/>
      <point x="110" y="219" type="line" smooth="yes"/>
      <point x="74" y="67"/>
      <point x="134" y="-10"/>
      <point x="226" y="-10" type="curve" smooth="yes"/>
      <point x="278" y="-10"/>
      <point x="322" y="9"/>
      <point x="348" y="31" type="curve"/>
      <point x="351" y="21"/>
      <point x="354" y="10"/>
      <point x="358" y="1" type="curve"/>
      <point x="294" y="-35"/>
      <point x="264" y="-69"/>
      <point x="264" y="-125" type="curve" smooth="yes"/>
      <point x="264" y="-177"/>
      <point x="301" y="-208"/>
    </contour>
  </outline>
</glyph>
<glyph name="longs" format="2">
  <advance width="404"/>
  <unicode hex="017F"/>
  <outline>
    <contour>
      <point x="120" y="-189" type="line"/>
      <point x="174" y="-123"/>
      <point x="213" y="-54"/>
      <point x="247" y="90" type="curve" smooth="yes"/>
      <point x="358" y="554" type="line" smooth="yes"/>
      <point x="373" y="616"/>
      <point x="391" y="659"/>
      <point x="451" y="659" type="curve" smooth="yes"/>
      <point x="476" y="659"/>
      <point x="496" y="651"/>
      <point x="512" y="643" type="curve"/>
      <point x="558" y="752" type="line"/>
      <point x="536" y="766"/>
      <point x="500" y="776"/>
      <point x="459" y="776" type="curve" smooth="yes"/>
      <point x="320" y="776"/>
      <point x="256" y="698"/>
      <point x="222" y="556" type="curve" smooth="yes"/>
      <point x="105" y="72" type="line" smooth="yes"/>
      <point x="86" y="-8"/>
      <point x="45" y="-112"/>
      <point x="-6" y="-169" type="curve"/>
    </contour>
  </outline>
</glyph>
<glyph name="bstroke" format="2">
  <advance width="479"/>
  <unicode hex="0180"/>
  <outline>
    <contour>
      <point x="217" y="-10" type="curve"/>
      <point x="383" y="-10"/>
      <point x="509" y="156"/>
      <point x="509" y="355" type="curve" smooth="yes"/>
      <point x="509" y="449"/>
      <point x="474" y="522"/>
      <point x="378" y="522" type="curve" smooth="yes"/>
      <point x="360" y="522"/>
      <point x="339" y="516"/>
      <point x="323" y="508" type="curve"/>
      <point x="343" y="594" type="line"/>
      <point x="434" y="594" type="line"/>
      <point x="455" y="684" type="line"/>
      <point x="365" y="684" type="line"/>
      <point x="387" y="776" type="line"/>
      <point x="244" y="754" type="line"/>
      <point x="227" y="684" type="line"/>
      <point x="175" y="684" type="line"/>
      <point x="154" y="594" type="line"/>
      <point x="206" y="594" type="line"/>
      <point x="68" y="22" type="line"/>
      <point x="105" y="2"/>
      <point x="175" y="-10"/>
    </contour>
    <contour>
      <point x="256" y="103" type="curve" smooth="yes"/>
      <point x="246" y="103"/>
      <point x="237" y="104"/>
      <point x="227" y="109" type="curve"/>
      <point x="295" y="394" type="line"/>
      <point x="308" y="403"/>
      <point x="322" y="406"/>
      <point x="333" y="406" type="curve" smooth="yes"/>
      <point x="364" y="406"/>
      <point x="369" y="384"/>
      <point x="369" y="344" type="curve" smooth="yes"/>
      <point x="369" y="225"/>
      <point x="309" y="103"/>
    </contour>
  </outline>
</glyph>
<glyph name="Bhook" format="2">
  <advance width="645"/>
  <unicode hex="0181"/>
  <unicode hex="0253"/>
  <outline>
    <contour>
      <point x="336" y="-10" type="curve"/>
      <point x="542" y="-10"/>
      <point x="644" y="98"/>
      <point x="644" y="231" type="curve" smooth="yes"/>
      <point x="644" y="285"/>
      <point x="620" y="331"/>
      <point x="566" y="363" type="curve"/>
      <point x="667" y="405"/>
      <point x="703" y="481"/>
      <point x="703" y="557" type="curve" smooth="yes"/>
      <point x="703" y="651"/>
      <point x="633" y="703"/>
      <point x="476" y="703" type="curve"/>
      <point x="163" y="703"/>
      <point x="128" y="561"/>
      <point x="128" y="461" type="curve"/>
      <point x="239" y="475" type="line"/>
      <point x="239" y="535"/>
      <point x="258" y="573"/>
      <point x="317" y="581" type="curve"/>
      <point x="179" y="7" type="line"/>
      <point x="233" y="-4"/>
      <point x="288" y="-10"/>
    </contour>
    <contour>
      <point x="376" y="105" type="curve" smooth="yes"/>
      <point x="370" y="105"/>
      <point x="361" y="106"/>
      <point x="345" y="108" type="curve"/>
      <point x="392" y="303" type="line"/>
      <point x="426" y="303" type="line" smooth="yes"/>
      <point x="473" y="303"/>
      <point x="498" y="277"/>
      <point x="498" y="228" type="curve" smooth="yes"/>
      <point x="498" y="146"/>
      <point x="454" y="105"/>
    </contour>
    <contour>
      <point x="419" y="415" type="line"/>
      <point x="460" y="587" type="line"/>
      <point x="474" y="588"/>
      <point x="486" y="588"/>
      <point x="494" y="588" type="curve"/>
      <point x="537" y="588"/>
      <point x="557" y="570"/>
      <point x="557" y="531" type="curve" smooth="yes"/>
      <point x="557" y="477"/>
      <point x="534" y="415"/>
      <point x="441" y="415" type="curve" smooth="yes"/>
    </contour>
  </outline>
</glyph>
<glyph name="uni0181" format="2">
  <advance width="635"/>
  <unicode hex="0181"/>
  <outline>
    <contour>
      <point x="331" y="-10" type="curve"/>
      <point x="537" y="-10"/>
      <point x="639" y="98"/>
      <point x="639" y="231" type="curve" smooth="yes"/>
      <point x="639" y="285"/>
      <point x="615" y="331"/>
      <point x="561" y="363" type="curve"/>
      <point x="662" y="405"/>
      <point x="698" y="481"/>
      <point x="698" y="557" type="curve" smooth="yes"/>
      <point x="698" y="651"/>
      <point x="628" y="703"/>
      <point x="471" y="703" type="curve"/>
      <point x="158" y="703"/>
      <point x="123" y="561"/>
      <point x="123" y="461" type="curve"/>
      <point x="234" y="475" type="line"/>
      <point x="234" y="535"/>
      <point x="253" y="573"/>
      <point x="312" y="581" type="curve"/>
      <point x="174" y="7" type="line"/>
      <point x="228" y="-4"/>
      <point x="283" y="-10"/>
    </contour>
    <contour>
      <point x="371" y="105" type="curve" smooth="yes"/>
      <point x="365" y="105"/>
      <point x="356" y="106"/>
      <point x="340" y="108" type="curve"/>
      <point x="387" y="303" type="line"/>
      <point x="421" y="303" type="line" smooth="yes"/>
      <point x="468" y="303"/>
      <point x="493" y="277"/>
      <point x="493" y="228" type="curve" smooth="yes"/>
      <point x="493" y="146"/>
      <point x="449" y="105"/>
    </contour>
    <contour>
      <point x="414" y="415" type="line"/>
      <point x="455" y="587" type="line"/>
      <point x="469" y="588"/>
      <point x="481" y="588"/>
      <point x="489" y="588" type="curve"/>
      <point x="532" y="588"/>
      <point x="552" y="570"/>
      <point x="552" y="531" type="curve" smooth="yes"/>
      <point x="552" y="477"/>
      <point x="529" y="415"/>
      <point x="436" y="415" type="curve" smooth="yes"/>
    </contour>
  </outline>
</glyph>
<glyph name="Btopbar" format="2">
  <advance width="526"/>
  <unicode hex="0182"/>
  <outline>
    <contour>
      <point x="256" y="-10" type="curve"/>
      <point x="425" y="-10"/>
      <point x="536" y="103"/>
      <point x="536" y="272" type="curve" smooth="yes"/>
      <point x="536" y="384"/>
      <point x="467" y="447"/>
      <point x="345" y="447" type="curve" smooth="yes"/>
      <point x="324" y="447" type="line"/>
      <point x="355" y="574" type="line"/>
      <point x="554" y="574" type="line"/>
      <point x="582" y="693" type="line"/>
      <point x="241" y="693" type="line"/>
      <point x="78" y="11" type="line"/>
      <point x="131" y="-4"/>
      <point x="201" y="-10"/>
    </contour>
    <contour>
      <point x="273" y="112" type="curve"/>
      <point x="264" y="112"/>
      <point x="253" y="113"/>
      <point x="245" y="115" type="curve"/>
      <point x="296" y="328" type="line"/>
      <point x="313" y="328" type="line" smooth="yes"/>
      <point x="357" y="328"/>
      <point x="384" y="306"/>
      <point x="384" y="263" type="curve" smooth="yes"/>
      <point x="384" y="173"/>
      <point x="345" y="112"/>
    </contour>
  </outline>
</glyph>
<glyph name="uni0182" format="2">
  <advance width="516"/>
  <unicode hex="0182"/>
  <outline>
    <contour>
      <point x="251" y="-10" type="curve"/>
      <point x="420" y="-10"/>
      <point x="531" y="103"/>
      <point x="531" y="272" type="curve" smooth="yes"/>
      <point x="531" y="384"/>
      <point x="462" y="447"/>
      <point x="340" y="447" type="curve" smooth="yes"/>
      <point x="319" y="447" type="line"/>
      <point x="350" y="574" type="line"/>
      <point x="549" y="574" type="line"/>
      <point x="577" y="693" type="line"/>
      <point x="236" y="693" type="line"/>
      <point x="73" y="11" type="line"/>
      <point x="126" y="-4"/>
      <point x="196" y="-10"/>
    </contour>
    <contour>
      <point x="268" y="112" type="curve"/>
      <point x="259" y="112"/>
      <point x="248" y="113"/>
      <point x="240" y="115" type="curve"/>
      <point x="291" y="328" type="line"/>
      <point x="308" y="328" type="line" smooth="yes"/>
      <point x="352" y="328"/>
      <point x="379" y="306"/>
      <point x="379" y="263" type="curve" smooth="yes"/>
      <point x="379" y="173"/>
      <point x="340" y="112"/>
    </contour>
  </outline>
</glyph>
<glyph name="uni0183" format="2">
  <advance width="488"/>
  <unicode hex="0183"/>
  <outline>
    <contour>
      <point x="222" y="-10" type="curve" smooth="yes"/>
      <point x="391" y="-10"/>
      <point x="516" y="165"/>
      <point x="520" y="376" type="curve" smooth="yes"/>
      <point x="522" y="470"/>
      <point x="485" y="543"/>
      <point x="389" y="543" type="curve" smooth="yes"/>
      <point x="369" y="543"/>
      <point x="349" y="536"/>
      <point x="332" y="527" type="curve"/>
      <point x="363" y="657" type="line"/>
      <point x="542" y="657" type="line"/>
      <point x="569" y="770" type="line"/>
      <point x="253" y="770" type="line"/>
      <point x="73" y="22" type="line"/>
      <point x="110" y="2"/>
      <point x="180" y="-10"/>
    </contour>
    <contour>
      <point x="257" y="103" type="curve" smooth="yes"/>
      <point x="248" y="103"/>
      <point x="241" y="104"/>
      <point x="232" y="109" type="curve"/>
      <point x="304" y="411" type="line"/>
      <point x="318" y="423"/>
      <point x="331" y="427"/>
      <point x="344" y="427" type="curve" smooth="yes"/>
      <point x="375" y="427"/>
      <point x="380" y="405"/>
      <point x="380" y="365" type="curve" smooth="yes"/>
      <point x="380" y="236"/>
      <point x="315" y="103"/>
    </contour>
  </outline>
</glyph>
<glyph name="tonesix" format="2">
  <advance width="517"/>
  <unicode hex="0185"/>
  <outline>
    <contour>
      <point x="255" y="-10" type="curve"/>
      <point x="419" y="-10"/>
      <point x="527" y="103"/>
      <point x="527" y="272" type="curve" smooth="yes"/>
      <point x="527" y="386"/>
      <point x="462" y="450"/>
      <point x="348" y="450" type="curve" smooth="yes"/>
      <point x="339" y="450"/>
      <point x="328" y="449"/>
      <point x="319" y="447" type="curve"/>
      <point x="381" y="703" type="line"/>
      <point x="293" y="681"/>
      <point x="228" y="656"/>
      <point x="153" y="613" type="curve"/>
      <point x="200" y="528" type="line"/>
      <point x="77" y="11" type="line"/>
      <point x="130" y="-4"/>
      <point x="200" y="-10"/>
    </contour>
    <contour>
      <point x="272" y="112" type="curve"/>
      <point x="263" y="112"/>
      <point x="248" y="113"/>
      <point x="240" y="115" type="curve"/>
      <point x="291" y="328" type="line"/>
      <point x="299" y="330"/>
      <point x="308" y="331"/>
      <point x="316" y="331" type="curve"/>
      <point x="353" y="331"/>
      <point x="375" y="308"/>
      <point x="375" y="268" type="curve" smooth="yes"/>
      <point x="375" y="183"/>
      <point x="342" y="112"/>
    </contour>
  </outline>
</glyph>
<glyph name="uni0185" format="2">
  <advance width="507"/>
  <unicode hex="0185"/>
  <outline>
    <contour>
      <point x="250" y="-10" type="curve"/>
      <point x="414" y="-10"/>
      <point x="522" y="103"/>
      <point x="522" y="272" type="curve" smooth="yes"/>
      <point x="522" y="386"/>
      <point x="457" y="450"/>
      <point x="343" y="450" type="curve" smooth="yes"/>
      <point x="334" y="450"/>
      <point x="323" y="449"/>
      <point x="314" y="447" type="curve"/>
      <point x="376" y="703" type="line"/>
      <point x="288" y="681"/>
      <point x="223" y="656"/>
      <point x="148" y="613" type="curve"/>
      <point x="195" y="528" type="line"/>
      <point x="72" y="11" type="line"/>
      <point x="125" y="-4"/>
      <point x="195" y="-10"/>
    </contour>
    <contour>
      <point x="267" y="112" type="curve"/>
      <point x="258" y="112"/>
      <point x="243" y="113"/>
      <point x="235" y="115" type="curve"/>
      <point x="286" y="328" type="line"/>
      <point x="294" y="330"/>
      <point x="303" y="331"/>
      <point x="311" y="331" type="curve"/>
      <point x="348" y="331"/>
      <point x="370" y="308"/>
      <point x="370" y="268" type="curve" smooth="yes"/>
      <point x="370" y="183"/>
      <point x="337" y="112"/>
    </contour>
  </outline>
</glyph>
